{"glyphs":{"0":{"ha":814,"x_min":132,"x_max":682,"o":"m 407 867 q 528 836 476 867 q 609 759 581 804 q 655 650 637 713 q 677 534 673 586 q 682 425 682 483 q 679 334 682 377 q 666 238 675 292 q 636 141 656 184 q 587 60 616 98 q 511 2 557 23 q 407 -19 465 -19 q 286 12 338 -19 q 205 90 233 43 q 159 199 176 136 q 136 315 141 263 q 132 425 132 368 q 136 515 132 472 q 149 612 140 559 q 179 708 159 665 q 228 788 199 751 q 302 846 256 825 q 407 867 349 867 m 407 754 q 309 701 349 754 q 270 590 285 667 q 255 425 255 513 q 260 322 255 370 q 280 218 266 274 q 327 127 294 161 q 407 94 359 94 q 559 425 559 94 q 407 754 559 754 z "},"1":{"ha":814,"x_min":115,"x_max":703,"o":"m 115 738 l 404 867 l 477 867 l 477 111 l 703 111 l 703 0 l 132 0 l 132 111 l 359 111 l 359 720 l 163 632 l 115 738 z "},"2":{"ha":814,"x_min":95,"x_max":661,"o":"m 545 244 l 659 244 l 659 0 l 95 0 l 95 111 q 467 450 302 286 q 537 601 537 521 q 495 705 537 663 q 382 747 453 747 q 326 741 355 747 q 269 708 297 734 q 240 643 240 682 q 243 614 240 628 l 121 614 l 121 732 q 387 867 231 867 q 581 788 500 867 q 661 597 661 709 q 633 478 661 533 q 559 374 605 423 q 408 231 513 326 l 277 111 l 545 111 l 545 244 z "},"3":{"ha":814,"x_min":90,"x_max":652,"o":"m 144 37 l 90 58 l 136 167 q 366 96 277 96 q 482 136 433 96 q 532 250 532 175 q 488 355 532 317 q 366 393 444 393 q 296 391 336 393 l 296 503 q 343 505 326 503 q 393 513 361 506 q 443 533 425 521 q 476 571 461 545 q 491 633 491 597 q 451 720 491 692 q 361 749 411 749 q 281 732 317 749 q 163 665 245 716 l 103 762 q 188 816 156 798 q 268 850 220 834 q 362 867 316 867 q 536 804 461 867 q 612 639 612 741 q 596 554 612 593 q 568 500 581 515 q 534 463 556 484 q 621 373 590 430 q 652 251 652 316 q 568 56 652 130 q 362 -19 484 -19 q 281 -9 323 -19 q 215 9 239 0 q 144 37 191 18 z "},"4":{"ha":814,"x_min":60,"x_max":682,"o":"m 552 867 l 552 339 l 682 339 l 682 224 l 552 224 l 552 111 l 682 111 l 682 0 l 258 0 l 258 111 l 434 111 l 434 224 l 60 224 l 60 332 l 388 867 l 552 867 m 179 339 l 434 339 l 434 760 l 431 760 l 179 339 z "},"5":{"ha":814,"x_min":99,"x_max":682,"o":"m 152 848 l 643 848 l 643 731 l 264 731 l 264 532 q 396 556 328 556 q 602 475 522 556 q 682 274 682 393 q 666 176 682 225 q 616 83 650 127 q 522 9 583 38 q 380 -19 460 -19 q 283 -9 332 -19 q 203 12 235 1 q 99 52 172 23 l 141 161 q 145 160 142 161 q 153 156 152 157 q 373 99 286 99 q 515 151 473 99 q 557 270 557 203 q 511 394 557 345 q 387 444 464 444 q 214 373 301 444 l 152 408 l 152 848 z "},"6":{"ha":814,"x_min":121,"x_max":680,"o":"m 680 863 l 680 746 q 574 749 621 749 q 523 747 543 749 q 465 739 503 746 q 398 715 426 732 q 339 671 370 699 q 287 595 308 643 q 256 484 266 548 q 412 536 327 536 q 595 453 521 536 q 669 255 669 370 q 595 60 669 141 q 411 -20 521 -20 q 335 -9 373 -20 q 258 31 297 3 q 189 101 218 58 q 140 212 159 144 q 121 365 121 279 q 151 572 121 461 q 262 762 182 682 q 576 867 366 867 q 680 863 594 867 m 247 297 q 303 148 254 198 q 410 98 353 98 q 505 141 467 98 q 544 255 544 184 q 507 369 544 320 q 414 418 471 418 q 379 414 397 418 q 336 399 361 410 q 286 361 311 388 q 247 297 262 335 z "},"7":{"ha":814,"x_min":122,"x_max":689,"o":"m 122 848 l 689 848 l 689 755 l 427 0 l 296 0 l 559 732 l 239 732 l 239 614 l 122 614 l 122 848 z "},"8":{"ha":814,"x_min":127,"x_max":686,"o":"m 236 434 q 142 625 142 510 q 220 797 142 727 q 407 867 297 867 q 594 797 517 867 q 671 625 671 727 q 578 434 671 509 q 660 342 633 396 q 686 235 686 288 q 612 60 686 138 q 407 -19 537 -19 q 203 60 278 -19 q 127 233 127 138 q 157 345 127 290 q 236 434 186 400 m 508 717 q 487 734 508 717 q 407 751 467 751 q 306 716 347 751 q 264 624 264 681 q 307 528 264 568 q 407 487 350 487 q 507 527 464 487 q 549 624 549 567 q 508 717 549 682 m 407 369 q 292 327 334 369 q 250 231 250 285 q 295 134 250 175 q 407 94 340 94 q 519 134 473 94 q 564 231 564 175 q 522 327 564 285 q 407 369 479 369 z "},"9":{"ha":814,"x_min":91,"x_max":650,"o":"m 91 -16 l 99 100 q 197 98 157 98 q 248 99 228 98 q 306 107 267 100 q 372 131 345 114 q 431 176 400 148 q 484 251 463 203 q 514 362 505 298 q 358 311 444 311 q 176 393 250 311 q 102 591 102 476 q 176 786 102 705 q 359 867 250 867 q 435 855 397 867 q 513 816 473 844 q 582 745 552 788 q 631 635 612 703 q 650 481 650 567 q 619 275 650 385 q 509 84 589 164 q 194 -20 404 -20 q 91 -16 176 -20 m 524 549 q 467 699 517 648 q 361 749 418 749 q 265 705 304 749 q 227 591 227 662 q 263 477 227 526 q 357 429 300 429 q 391 433 373 429 q 435 448 410 437 q 484 485 460 458 q 524 549 509 511 z "},"\f":{"ha":864,"x_min":0,"x_max":0,"o":""}," ":{"ha":864,"x_min":0,"x_max":0,"o":""},"!":{"ha":814,"x_min":289,"x_max":525,"o":"m 490 802 l 463 254 l 351 254 l 326 802 l 490 802 m 323 160 q 341 176 323 160 q 407 191 358 191 q 490 160 456 191 q 525 85 525 129 q 491 9 525 41 q 407 -22 457 -22 q 323 9 357 -22 q 289 85 289 41 q 323 160 289 129 z "},"\"":{"ha":814,"x_min":193,"x_max":621,"o":"m 193 791 l 372 791 l 357 369 l 209 369 l 193 791 m 442 791 l 621 791 l 606 369 l 458 369 l 442 791 z "},"#":{"ha":814,"x_min":68,"x_max":779,"o":"m 231 892 l 349 892 l 334 642 l 540 642 l 555 892 l 670 892 l 655 642 l 779 642 l 779 509 l 646 509 l 636 297 l 772 297 l 772 164 l 628 164 l 613 -99 l 498 -99 l 513 164 l 307 164 l 288 -99 l 172 -99 l 191 164 l 68 164 l 68 297 l 195 297 l 208 509 l 72 509 l 72 642 l 216 642 l 231 892 m 530 509 l 326 509 l 312 297 l 519 297 l 530 509 z "},"$":{"ha":814,"x_min":126,"x_max":674,"o":"m 549 708 l 559 770 l 659 770 q 651 640 651 665 q 665 473 651 575 l 559 461 q 545 543 553 510 q 513 607 536 575 q 453 650 490 639 l 453 438 q 513 422 491 429 q 570 398 536 415 q 625 361 605 381 q 659 307 644 340 q 674 229 674 273 q 665 173 674 201 q 635 113 656 145 q 566 55 613 80 q 453 20 519 30 l 453 -178 l 357 -178 l 357 20 q 255 84 294 38 l 243 11 l 133 11 q 142 136 142 94 q 126 319 142 198 l 235 319 q 243 264 239 285 q 261 211 248 244 q 298 159 274 178 q 357 138 321 141 l 357 349 q 290 370 317 359 q 226 404 263 381 q 168 467 189 427 q 148 557 148 506 q 210 704 148 648 q 357 770 273 760 l 357 911 l 453 911 l 453 770 q 549 708 514 758 m 357 468 l 357 655 q 259 563 259 642 q 284 503 259 524 q 357 468 309 483 m 453 324 l 453 137 q 563 231 563 153 q 534 292 563 270 q 453 324 506 313 z "},"%":{"ha":814,"x_min":28,"x_max":785,"o":"m 429 312 q 457 342 429 312 q 579 372 486 372 q 729 311 673 372 q 785 176 785 251 q 728 41 785 100 q 579 -19 671 -19 q 430 40 487 -19 q 373 176 373 99 q 429 312 373 252 m 579 279 q 503 248 530 279 q 475 176 475 216 q 502 105 475 137 q 579 73 529 73 q 656 105 628 73 q 684 176 684 137 q 655 248 684 217 q 579 279 627 279 m 87 801 q 116 830 87 801 q 235 860 145 860 q 382 801 324 860 q 441 665 441 742 q 385 529 441 589 q 235 469 328 469 q 84 529 140 469 q 28 665 28 589 q 87 801 28 742 m 235 768 q 159 736 187 768 q 130 665 130 705 q 159 592 130 623 q 235 562 187 562 q 310 591 281 562 q 339 665 339 621 q 310 736 339 705 q 235 768 281 768 m 688 594 l 726 519 l 149 264 l 111 339 l 688 594 z "},"&":{"ha":814,"x_min":117,"x_max":750,"o":"m 563 419 l 732 419 l 732 304 l 647 304 q 595 183 624 233 l 643 111 l 750 111 l 750 0 l 555 0 l 510 64 q 332 -9 433 -9 q 174 58 231 -9 q 117 206 117 125 q 260 431 117 355 q 197 587 197 525 q 252 709 197 658 q 393 761 307 761 q 494 741 442 761 q 511 733 496 739 q 528 726 526 727 q 585 712 560 712 q 631 719 597 712 l 540 579 q 388 646 450 646 q 343 631 355 646 q 331 602 331 617 q 358 534 331 575 q 370 517 361 530 q 389 489 378 503 q 400 472 399 475 l 519 293 q 557 400 540 343 q 560 410 557 401 q 563 419 563 418 m 444 160 l 326 336 q 259 228 259 296 q 286 147 259 183 q 354 111 312 111 q 444 160 401 111 z "},"'":{"ha":814,"x_min":304,"x_max":510,"o":"m 304 791 l 510 791 l 480 369 l 334 369 l 304 791 z "},"(":{"ha":814,"x_min":363,"x_max":665,"o":"m 540 903 l 665 903 q 603 783 624 826 q 552 667 582 741 q 509 526 522 594 q 495 389 495 458 q 524 199 495 298 q 580 41 552 100 q 665 -126 608 -18 l 540 -126 q 536 -120 538 -123 q 530 -113 533 -117 q 410 136 456 -3 q 363 389 363 274 q 413 650 363 513 q 519 875 463 788 q 536 898 522 878 l 540 903 z "},")":{"ha":814,"x_min":149,"x_max":450,"o":"m 275 -126 l 149 -126 q 159 -107 149 -126 q 233 39 206 -18 q 290 198 260 96 q 319 389 319 300 q 291 576 319 479 q 235 732 263 673 q 149 903 208 792 l 275 903 q 279 898 275 898 q 413 616 376 750 q 450 389 450 481 q 372 50 450 233 q 275 -126 339 -23 z "},"*":{"ha":814,"x_min":126,"x_max":688,"o":"m 334 791 l 480 791 l 472 606 l 644 669 l 688 532 l 510 484 l 625 340 l 510 255 l 407 408 l 304 255 l 189 340 l 304 484 l 126 532 l 171 669 l 342 606 l 334 791 z "},"+":{"ha":814,"x_min":73,"x_max":741,"o":"m 347 750 l 467 750 l 467 483 l 741 483 l 741 363 l 467 363 l 467 96 l 347 96 l 347 363 l 73 363 l 73 483 l 347 483 l 347 750 z "},",":{"ha":814,"x_min":209,"x_max":522,"o":"m 327 228 l 522 228 l 355 -144 l 209 -144 l 327 228 z "},"-":{"ha":814,"x_min":256,"x_max":557,"o":"m 256 468 l 557 468 l 557 343 l 256 343 l 256 468 z "},".":{"ha":814,"x_min":279,"x_max":534,"o":"m 407 209 q 494 177 454 209 q 534 94 534 145 q 496 10 534 42 q 407 -22 457 -22 q 319 10 358 -22 q 279 94 279 42 q 319 177 279 145 q 407 209 358 209 z "},"/":{"ha":814,"x_min":98,"x_max":716,"o":"m 610 982 l 716 937 l 202 -180 l 98 -133 l 610 982 z "},":":{"ha":814,"x_min":279,"x_max":534,"o":"m 317 532 q 336 548 317 532 q 407 564 355 564 q 496 532 458 564 q 534 449 534 499 q 495 366 534 397 q 407 334 456 334 q 319 366 358 334 q 279 449 279 397 q 317 532 279 499 m 407 209 q 495 178 456 209 q 534 94 534 146 q 495 10 534 42 q 407 -22 456 -22 q 319 10 358 -22 q 279 94 279 42 q 319 178 279 146 q 407 209 359 209 z "},";":{"ha":814,"x_min":216,"x_max":534,"o":"m 332 229 l 528 229 l 362 -142 l 216 -142 l 332 229 m 407 568 q 496 536 457 568 q 534 453 534 505 q 495 370 534 401 q 407 338 456 338 q 319 370 358 338 q 281 453 281 403 q 318 536 281 503 q 407 568 355 568 z "},"<":{"ha":814,"x_min":7,"x_max":750,"o":"m 700 754 l 750 647 l 277 431 l 749 210 l 700 102 l 7 433 l 700 754 z "},"=":{"ha":814,"x_min":73,"x_max":741,"o":"m 73 602 l 741 602 l 741 483 l 73 483 l 73 602 m 73 365 l 741 365 l 741 245 l 73 245 l 73 365 z "},">":{"ha":814,"x_min":43,"x_max":787,"o":"m 94 754 l 787 433 l 92 102 l 45 210 l 515 431 l 43 647 l 94 754 z "},"?":{"ha":814,"x_min":145,"x_max":662,"o":"m 145 570 l 145 750 q 184 764 148 751 q 382 803 302 803 q 587 732 513 803 q 662 562 662 662 q 643 472 662 513 q 601 408 624 431 q 539 364 578 385 q 479 336 500 343 q 423 319 458 330 l 423 243 l 307 243 l 307 408 l 312 410 q 317 411 316 411 q 354 419 346 418 q 406 432 389 427 q 454 450 423 437 q 500 476 486 463 q 528 513 515 490 q 541 564 541 536 q 498 653 541 621 q 397 685 454 685 q 290 671 326 685 l 263 662 l 263 570 l 145 570 m 362 193 q 446 161 411 193 q 480 85 480 130 q 446 9 480 41 q 362 -22 411 -22 q 279 9 313 -22 q 245 85 245 41 q 279 161 245 129 q 362 193 312 193 z "},"@":{"ha":814,"x_min":30,"x_max":783,"o":"m 700 171 l 742 90 q 391 -16 564 -16 q 130 90 229 -16 q 30 381 30 195 q 65 582 30 496 q 159 713 100 667 q 282 781 217 760 q 419 803 347 803 q 681 708 579 803 q 783 452 783 613 q 721 252 783 324 q 576 179 659 179 q 463 237 505 179 q 336 175 403 175 q 256 212 294 175 q 217 327 217 250 q 280 519 217 429 q 429 610 343 610 q 502 575 467 610 l 509 604 l 608 604 l 545 374 q 532 312 532 340 q 545 285 532 298 q 579 271 559 271 q 656 326 624 271 q 689 458 689 381 q 610 649 689 585 q 416 713 532 713 q 271 680 332 713 q 180 594 210 647 q 138 490 151 541 q 125 387 125 438 q 130 317 125 353 q 152 237 134 282 q 197 157 170 191 q 277 100 225 123 q 396 76 328 76 q 512 92 453 76 q 605 123 571 109 q 700 171 639 138 m 343 270 q 419 336 382 270 q 456 461 456 401 q 446 500 456 486 q 422 515 435 515 q 350 450 387 515 q 313 323 313 384 q 320 288 313 307 q 343 270 327 270 z "},"A":{"ha":814,"x_min":0,"x_max":814,"o":"m 136 791 l 463 791 l 738 111 l 814 111 l 814 0 l 492 0 l 492 111 l 612 111 l 559 244 l 254 244 l 201 111 l 321 111 l 321 0 l 0 0 l 0 111 l 79 111 l 311 680 l 136 680 l 136 791 m 515 355 l 407 614 l 300 355 l 515 355 z "},"B":{"ha":814,"x_min":46,"x_max":754,"o":"m 46 791 l 431 791 q 635 732 567 791 q 707 574 707 670 q 633 419 707 475 q 754 232 754 357 q 740 146 754 184 q 706 85 726 109 q 654 43 686 61 q 595 18 621 26 q 529 5 568 9 q 470 1 490 1 q 419 0 450 0 l 46 0 l 46 111 l 156 111 l 156 680 l 46 680 l 46 791 m 429 680 l 274 680 l 274 467 l 422 467 q 472 469 452 467 q 523 481 492 472 q 570 516 553 491 q 586 581 586 541 q 429 680 586 680 m 411 355 l 274 355 l 274 111 l 416 111 q 505 115 471 111 q 570 129 538 118 q 617 163 602 140 q 632 225 632 187 q 411 355 632 355 z "},"C":{"ha":814,"x_min":71,"x_max":829,"o":"m 750 241 l 829 155 q 452 -22 647 -22 q 174 100 277 -22 q 71 404 71 222 q 181 702 71 590 q 426 814 292 814 q 511 800 472 814 q 571 770 551 785 q 623 728 591 755 l 631 804 l 743 804 q 736 673 736 719 q 750 503 736 595 l 637 488 q 628 545 632 525 q 610 598 624 564 q 578 650 597 632 q 526 683 560 669 q 445 697 491 697 q 269 619 342 697 q 195 406 195 541 q 260 186 195 277 q 450 95 326 95 q 579 123 514 95 q 676 177 644 152 q 750 241 708 202 z "},"D":{"ha":814,"x_min":31,"x_max":761,"o":"m 31 791 l 385 791 q 555 770 488 791 q 675 682 621 750 q 761 408 761 575 q 646 83 761 195 q 381 0 560 0 l 31 0 l 31 111 l 136 111 l 136 680 l 31 680 l 31 791 m 387 680 l 254 680 l 254 111 l 381 111 q 559 167 503 111 q 636 407 636 244 q 583 604 636 528 q 509 666 551 652 q 387 680 467 680 z "},"E":{"ha":814,"x_min":61,"x_max":750,"o":"m 61 791 l 736 791 l 743 498 l 631 498 l 618 680 l 292 680 l 292 472 l 452 472 l 452 570 l 564 570 l 564 264 l 452 264 l 452 361 l 292 361 l 292 111 l 631 111 l 637 294 l 750 294 l 750 0 l 61 0 l 61 111 l 174 111 l 174 680 l 61 680 l 61 791 z "},"F":{"ha":814,"x_min":84,"x_max":757,"o":"m 84 791 l 749 791 l 757 499 l 647 499 l 631 680 l 305 680 l 305 472 l 465 472 l 465 570 l 578 570 l 578 264 l 465 264 l 465 361 l 305 361 l 305 111 l 477 111 l 477 0 l 84 0 l 84 111 l 187 111 l 187 680 l 84 680 l 84 791 z "},"G":{"ha":814,"x_min":50,"x_max":798,"o":"m 610 804 l 719 804 q 713 671 713 736 q 730 503 713 585 l 616 488 q 608 541 612 521 q 592 595 605 562 q 560 647 579 628 q 506 682 541 666 q 423 697 471 697 q 245 614 316 697 q 175 393 175 530 q 243 178 175 260 q 439 95 311 95 q 616 132 518 95 l 616 266 l 420 266 l 420 377 l 798 377 l 798 266 l 734 266 l 734 50 q 438 -22 567 -22 q 220 40 311 -22 q 90 193 130 102 q 50 392 50 285 q 157 694 50 575 q 415 814 264 814 q 602 730 528 814 l 610 804 z "},"H":{"ha":814,"x_min":38,"x_max":776,"o":"m 38 791 l 353 791 l 353 680 l 255 680 l 255 464 l 559 464 l 559 680 l 461 680 l 461 791 l 776 791 l 776 680 l 677 680 l 677 111 l 776 111 l 776 0 l 461 0 l 461 111 l 559 111 l 559 353 l 255 353 l 255 111 l 353 111 l 353 0 l 38 0 l 38 111 l 137 111 l 137 680 l 38 680 l 38 791 z "},"I":{"ha":814,"x_min":119,"x_max":696,"o":"m 119 791 l 696 791 l 696 680 l 467 680 l 467 111 l 696 111 l 696 0 l 119 0 l 119 111 l 349 111 l 349 680 l 119 680 l 119 791 z "},"J":{"ha":814,"x_min":64,"x_max":800,"o":"m 256 791 l 800 791 l 800 680 l 632 680 l 632 294 q 590 75 632 138 q 381 -22 526 -22 q 77 66 243 -22 l 64 399 l 180 399 l 187 245 q 201 170 190 195 q 245 126 213 145 q 377 95 301 95 q 443 106 416 95 q 484 132 469 117 q 505 177 498 146 q 513 230 511 208 q 514 294 514 252 l 514 680 l 256 680 l 256 791 z "},"K":{"ha":814,"x_min":65,"x_max":811,"o":"m 65 791 l 406 791 l 406 680 l 294 680 l 294 435 l 545 680 l 464 680 l 464 791 l 773 791 l 773 680 l 699 680 l 448 431 q 548 340 502 397 q 617 239 594 282 q 681 111 640 195 l 811 111 l 811 0 l 598 0 q 363 350 492 273 l 294 285 l 294 111 l 406 111 l 406 0 l 65 0 l 65 111 l 176 111 l 176 680 l 65 680 l 65 791 z "},"L":{"ha":814,"x_min":65,"x_max":766,"o":"m 65 791 l 476 791 l 476 680 l 313 680 l 313 111 l 633 111 l 651 380 l 766 380 l 749 0 l 65 0 l 65 111 l 195 111 l 195 680 l 65 680 l 65 791 z "},"M":{"ha":814,"x_min":4,"x_max":811,"o":"m 399 392 l 423 392 l 548 791 l 808 791 l 808 680 l 724 680 l 732 111 l 811 111 l 811 0 l 476 0 l 476 111 l 618 111 l 612 594 l 595 594 l 467 209 l 347 209 l 220 594 l 203 594 l 197 111 l 339 111 l 339 0 l 4 0 l 4 111 l 83 111 l 91 680 l 4 680 l 4 791 l 264 791 l 399 392 z "},"N":{"ha":814,"x_min":7,"x_max":806,"o":"m 7 791 l 266 791 l 583 203 l 606 203 l 606 680 l 471 680 l 471 791 l 806 791 l 806 680 l 715 680 l 715 -16 l 570 -16 l 245 581 l 221 581 l 221 111 l 358 111 l 358 0 l 7 0 l 7 111 l 113 111 l 113 680 l 7 680 l 7 791 z "},"O":{"ha":814,"x_min":43,"x_max":770,"o":"m 144 98 q 94 158 144 98 q 43 395 43 218 q 144 692 43 571 q 407 814 245 814 q 670 693 570 814 q 770 396 770 572 q 669 99 770 220 q 407 -22 568 -22 q 144 98 245 -22 m 168 396 q 233 183 168 271 q 407 95 298 95 q 581 182 515 95 q 646 396 646 270 q 581 608 646 518 q 407 697 517 697 q 233 608 298 697 q 168 396 168 519 z "},"P":{"ha":814,"x_min":110,"x_max":768,"o":"m 110 791 l 434 791 q 640 753 572 791 q 732 661 697 722 q 768 534 768 601 q 737 417 768 475 q 661 334 707 359 q 557 296 608 304 q 380 289 506 289 l 332 289 l 332 111 l 525 111 l 525 0 l 110 0 l 110 111 l 214 111 l 214 680 l 110 680 l 110 791 m 435 680 l 332 680 l 332 400 l 381 400 q 520 407 480 400 q 589 429 560 414 q 625 469 608 438 q 643 538 643 499 q 624 610 643 578 q 579 656 605 643 q 435 680 537 680 z "},"Q":{"ha":814,"x_min":45,"x_max":769,"o":"m 699 -4 l 769 -91 l 757 -99 q 709 -130 723 -122 q 663 -150 694 -138 q 600 -161 631 -161 q 476 -129 549 -161 q 385 -106 423 -106 q 321 -117 349 -106 q 232 -163 293 -127 q 227 -165 231 -163 q 221 -170 222 -168 l 164 -72 q 218 -37 201 -50 q 267 11 235 -24 q 140 104 183 50 q 45 400 45 222 q 151 702 45 590 q 406 814 256 814 q 664 700 559 814 q 769 395 769 586 q 743 224 769 300 q 680 108 716 149 q 597 39 643 66 q 519 4 551 12 q 463 -5 487 -4 l 463 -8 l 480 -8 q 537 -39 503 -27 q 595 -52 571 -52 q 699 -4 635 -52 m 401 99 q 442 102 422 99 q 503 121 463 104 q 571 165 543 137 q 622 253 600 194 q 644 393 644 312 q 625 526 644 468 q 579 614 606 583 q 517 666 552 646 q 455 692 481 686 q 406 697 429 697 q 334 684 370 697 q 258 640 297 670 q 195 547 220 609 q 170 400 170 484 q 237 176 170 252 q 401 99 304 99 z "},"R":{"ha":814,"x_min":47,"x_max":798,"o":"m 47 791 l 410 791 q 524 783 483 791 q 604 750 566 776 q 668 673 643 723 q 693 568 693 623 q 692 540 693 553 q 681 496 690 526 q 655 441 671 465 q 603 392 639 418 q 518 351 567 366 q 670 111 571 278 l 798 111 l 798 0 l 589 0 q 457 236 532 123 q 393 319 414 301 q 340 338 373 338 l 271 338 l 271 111 l 389 111 l 389 0 l 47 0 l 47 111 l 153 111 l 153 680 l 47 680 l 47 791 m 410 680 l 271 680 l 271 449 l 372 449 q 522 477 479 449 q 568 572 568 509 q 530 657 568 635 q 410 680 491 680 z "},"S":{"ha":814,"x_min":115,"x_max":712,"o":"m 590 804 l 699 804 q 693 688 693 745 q 701 536 693 633 q 704 503 704 528 l 597 488 q 589 539 593 521 q 574 592 586 557 q 543 646 562 627 q 491 682 525 666 q 412 697 457 697 q 282 656 327 697 q 237 566 237 616 q 255 509 237 532 q 307 475 273 487 q 361 460 342 464 q 416 452 381 456 q 579 420 540 437 q 616 401 598 412 q 712 225 712 340 q 629 50 712 121 q 427 -22 547 -22 q 337 -8 376 -22 q 282 19 298 5 q 244 56 266 33 l 233 -26 l 123 -26 q 127 65 127 15 q 117 282 127 167 l 225 282 q 410 95 243 95 q 535 127 480 95 q 590 222 590 159 q 565 286 590 262 q 509 318 540 311 q 430 331 479 326 q 382 336 400 334 q 327 347 363 339 q 266 363 290 354 q 210 391 241 373 q 160 431 179 408 q 128 487 141 453 q 115 563 115 521 q 202 741 115 667 q 395 814 289 814 q 579 728 499 814 l 590 804 z "},"T":{"ha":814,"x_min":42,"x_max":773,"o":"m 68 791 l 747 791 l 773 433 l 656 416 l 639 680 l 467 680 l 467 111 l 627 111 l 627 0 l 191 0 l 191 111 l 349 111 l 349 680 l 176 680 l 159 416 l 42 433 l 68 791 z "},"U":{"ha":814,"x_min":20,"x_max":793,"o":"m 20 791 l 365 791 l 365 680 l 232 680 l 232 334 q 233 263 232 289 q 244 201 235 237 q 271 144 254 164 q 323 110 289 125 q 407 95 358 95 q 490 110 456 95 q 543 144 525 125 q 570 201 560 164 q 581 263 579 237 q 582 334 582 289 l 582 680 l 449 680 l 449 791 l 793 791 l 793 680 l 700 680 l 700 334 q 651 92 700 163 q 553 2 606 26 q 407 -22 500 -22 q 271 5 338 -22 q 163 92 203 31 q 114 334 114 164 l 114 680 l 20 680 l 20 791 z "},"V":{"ha":814,"x_min":0,"x_max":814,"o":"m 411 168 l 604 680 l 481 680 l 481 791 l 814 791 l 814 680 l 724 680 l 468 0 l 351 0 l 98 680 l 0 680 l 0 791 l 334 791 l 334 680 l 222 680 l 411 168 z "},"W":{"ha":814,"x_min":0,"x_max":814,"o":"m 0 791 l 312 791 l 312 680 l 182 680 l 228 266 l 231 266 l 369 624 l 450 624 l 585 266 l 587 266 l 636 680 l 505 680 l 505 791 l 814 791 l 814 680 l 750 680 l 662 0 l 555 0 l 403 416 l 400 416 l 254 0 l 146 0 l 65 680 l 0 680 l 0 791 z "},"X":{"ha":814,"x_min":30,"x_max":784,"o":"m 56 791 l 362 791 l 362 680 l 282 680 l 408 503 l 537 680 l 465 680 l 465 791 l 758 791 l 758 680 l 678 680 l 477 414 l 703 111 l 784 111 l 784 0 l 465 0 l 465 111 l 557 111 l 408 321 l 251 111 l 362 111 l 362 0 l 30 0 l 30 111 l 110 111 l 338 414 l 138 680 l 56 680 l 56 791 z "},"Y":{"ha":814,"x_min":28,"x_max":785,"o":"m 28 791 l 339 791 l 339 680 l 260 680 l 411 429 l 559 680 l 477 680 l 477 791 l 785 791 l 785 680 l 690 680 l 467 304 l 467 111 l 621 111 l 621 0 l 193 0 l 193 111 l 350 111 l 350 304 l 123 680 l 28 680 l 28 791 z "},"Z":{"ha":814,"x_min":98,"x_max":716,"o":"m 106 791 l 686 791 l 686 701 l 255 111 l 598 111 l 598 326 l 716 326 l 716 0 l 98 0 l 98 95 l 524 680 l 224 680 l 224 486 l 106 486 l 106 791 z "},"[":{"ha":814,"x_min":393,"x_max":675,"o":"m 393 911 l 675 911 l 675 791 l 511 791 l 511 -5 l 675 -5 l 675 -123 l 393 -123 l 393 911 z "},"\\":{"ha":814,"x_min":98,"x_max":716,"o":"m 202 986 l 716 -141 l 610 -189 l 98 940 l 202 986 z "},"]":{"ha":814,"x_min":138,"x_max":420,"o":"m 420 -123 l 138 -123 l 138 -5 l 302 -5 l 302 791 l 138 791 l 138 911 l 420 911 l 420 -123 z "},"^":{"ha":814,"x_min":85,"x_max":728,"o":"m 728 208 l 583 208 l 403 652 l 231 208 l 85 208 l 312 791 l 494 791 l 728 208 z "},"_":{"ha":814,"x_min":-65,"x_max":879,"o":"m -65 -102 l 879 -102 l 879 -170 l -65 -170 l -65 -102 z "},"`":{"ha":814,"x_min":212,"x_max":556,"o":"m 212 865 l 212 871 l 414 871 l 556 738 l 438 738 l 212 865 z "},"a":{"ha":814,"x_min":65,"x_max":761,"o":"m 644 416 l 644 111 l 761 111 l 761 0 l 526 0 l 526 65 q 302 -19 411 -19 q 132 45 199 -19 q 65 193 65 110 q 80 262 65 227 q 127 334 95 298 q 224 393 160 370 q 372 416 288 416 q 526 406 429 416 q 524 446 526 431 q 510 482 521 460 q 470 515 499 505 q 393 526 441 526 q 156 464 300 526 l 110 572 q 395 643 282 643 q 583 584 521 643 q 644 416 644 525 m 526 220 l 526 290 q 385 305 422 305 q 292 294 331 305 q 233 270 252 283 q 202 238 213 256 q 189 210 191 220 q 187 191 187 199 q 222 126 187 155 q 301 98 256 98 q 526 220 416 98 z "},"b":{"ha":814,"x_min":0,"x_max":751,"o":"m 0 865 l 231 879 l 231 545 q 430 620 321 620 q 657 527 563 620 q 751 302 751 434 q 661 83 751 179 q 435 -14 571 -14 q 231 60 323 -14 l 231 0 l 8 0 l 8 111 l 113 111 l 113 755 l 8 750 l 0 865 m 231 304 q 290 163 231 222 q 434 103 349 103 q 572 161 518 103 q 627 302 627 220 q 570 444 627 385 q 433 503 514 503 q 290 444 349 503 q 231 304 231 384 z "},"c":{"ha":814,"x_min":80,"x_max":769,"o":"m 616 633 l 722 623 q 713 487 713 549 q 722 368 713 430 l 608 353 q 595 416 601 395 q 573 465 590 437 q 521 505 556 492 q 430 517 486 517 q 314 493 362 517 q 244 433 266 469 q 214 366 222 397 q 205 308 205 335 q 258 162 205 227 q 420 98 312 98 q 525 119 469 98 q 616 163 581 141 q 704 221 652 184 l 769 129 q 415 -19 576 -19 q 174 75 269 -19 q 80 307 80 168 q 170 534 80 435 q 411 633 259 633 q 604 559 515 633 l 616 633 z "},"d":{"ha":814,"x_min":60,"x_max":802,"o":"m 368 850 l 692 879 l 692 111 l 802 111 l 802 0 l 574 0 l 574 57 q 376 -14 491 -14 q 151 81 243 -14 q 60 304 60 175 q 155 530 60 441 q 373 620 250 620 q 574 549 484 620 l 574 751 l 355 735 l 368 850 m 571 302 q 519 440 571 377 q 377 503 468 503 q 241 448 298 503 q 184 305 184 393 q 241 161 184 218 q 377 103 297 103 q 513 160 456 103 q 571 302 571 217 z "},"e":{"ha":814,"x_min":83,"x_max":781,"o":"m 727 195 l 781 91 q 430 -19 591 -19 q 175 75 267 -19 q 83 304 83 168 q 176 537 83 441 q 420 633 269 633 q 657 545 571 633 q 743 346 743 456 q 739 263 743 300 l 208 263 q 223 215 214 235 q 254 164 232 195 q 321 115 277 133 q 427 98 366 98 q 727 195 562 98 m 216 374 l 618 374 q 422 517 581 517 q 216 374 269 517 z "},"f":{"ha":814,"x_min":114,"x_max":707,"o":"m 114 601 l 251 601 l 251 648 q 254 710 251 685 q 269 768 256 735 q 305 822 282 802 q 374 857 328 842 q 483 872 419 872 q 707 849 568 872 l 659 732 q 468 755 551 755 q 410 750 431 755 q 380 727 389 745 q 370 696 372 709 q 369 647 369 682 l 369 601 l 648 601 l 648 490 l 369 490 l 369 111 l 648 111 l 648 0 l 114 0 l 114 111 l 251 111 l 251 490 l 114 490 l 114 601 z "},"g":{"ha":814,"x_min":49,"x_max":765,"o":"m 540 614 l 765 614 l 765 503 l 658 503 l 658 61 q 581 -149 658 -92 q 361 -206 505 -206 l 220 -206 l 220 -95 q 465 -80 425 -95 q 502 -59 487 -72 q 524 -34 517 -46 q 535 0 532 -22 q 539 36 538 22 q 540 77 540 50 q 354 11 458 11 q 138 100 227 11 q 49 315 49 190 q 140 532 49 444 q 355 620 232 620 q 540 556 460 620 l 540 614 m 540 313 q 486 450 540 396 q 359 503 433 503 q 230 450 286 503 q 174 316 174 396 q 228 182 174 237 q 358 127 282 127 q 488 183 437 127 q 540 313 540 239 z "},"h":{"ha":814,"x_min":16,"x_max":795,"o":"m 16 860 l 266 879 l 266 557 q 463 633 373 633 q 624 566 563 633 q 685 391 685 498 l 685 111 l 795 111 l 795 0 l 453 0 l 453 111 l 567 111 l 567 385 q 541 479 567 441 q 465 517 515 517 q 266 425 389 517 l 266 111 l 369 111 l 369 0 l 35 0 l 35 111 l 148 111 l 148 754 l 26 746 l 16 860 z "},"i":{"ha":814,"x_min":119,"x_max":694,"o":"m 156 614 l 468 614 l 468 111 l 694 111 l 694 0 l 119 0 l 119 111 l 350 111 l 350 503 l 156 503 l 156 614 m 324 732 l 324 911 l 468 911 l 468 732 l 324 732 z "},"j":{"ha":814,"x_min":71,"x_max":552,"o":"m 98 614 l 552 614 l 552 80 q 281 -198 552 -198 q 71 -170 203 -198 l 98 -56 q 282 -81 229 -81 q 355 -71 326 -81 q 400 -45 385 -60 q 423 -5 415 -31 q 433 38 431 20 q 434 85 434 56 l 434 503 l 98 503 l 98 614 m 382 732 l 382 911 l 526 911 l 526 732 l 382 732 z "},"k":{"ha":814,"x_min":33,"x_max":777,"o":"m 33 857 l 283 879 l 283 395 l 454 500 l 454 503 l 393 503 l 393 614 l 728 614 l 728 503 l 639 503 l 422 357 q 654 111 498 293 l 777 111 l 777 0 l 453 0 l 453 111 l 503 111 q 328 288 425 199 l 283 254 l 283 0 l 57 0 l 57 111 l 165 111 l 165 754 l 43 743 l 33 857 z "},"l":{"ha":814,"x_min":119,"x_max":693,"o":"m 125 856 l 465 879 l 465 111 l 693 111 l 693 0 l 119 0 l 119 111 l 347 111 l 347 757 l 136 743 l 125 856 z "},"m":{"ha":814,"x_min":0,"x_max":814,"o":"m 0 614 l 194 614 l 194 570 q 324 633 266 633 q 435 570 389 633 q 473 600 460 590 q 517 621 486 609 q 579 633 548 633 q 751 382 751 633 l 751 111 l 814 111 l 814 0 l 633 0 l 633 382 q 632 438 633 420 q 626 477 631 456 q 608 508 621 499 q 574 517 595 517 q 531 503 552 517 q 503 481 510 490 q 473 446 495 472 l 473 111 l 553 111 l 553 0 l 355 0 l 355 388 q 354 431 355 415 q 348 470 353 446 q 330 505 343 494 q 296 517 317 517 q 195 458 256 517 l 195 111 l 289 111 l 289 0 l 0 0 l 0 111 l 77 111 l 77 503 l 0 503 l 0 614 z "},"n":{"ha":814,"x_min":28,"x_max":788,"o":"m 31 614 l 259 614 l 259 557 q 456 633 368 633 q 617 566 556 633 q 678 389 678 498 l 678 111 l 788 111 l 788 0 l 446 0 l 446 111 l 560 111 l 560 384 q 533 479 560 441 q 458 517 506 517 q 382 500 423 517 q 323 470 342 483 q 259 425 304 457 l 259 111 l 362 111 l 362 0 l 28 0 l 28 111 l 141 111 l 141 503 l 31 503 l 31 614 z "},"o":{"ha":814,"x_min":56,"x_max":758,"o":"m 56 312 q 151 547 56 452 q 407 643 247 643 q 664 545 570 643 q 758 312 758 448 q 666 80 758 179 q 407 -19 574 -19 q 149 79 243 -19 q 56 312 56 176 m 180 312 q 241 161 180 224 q 407 98 301 98 q 574 161 515 98 q 633 312 633 225 q 574 463 633 399 q 407 526 515 526 q 240 464 300 526 q 180 312 180 401 z "},"p":{"ha":814,"x_min":14,"x_max":758,"o":"m 14 614 l 239 614 l 239 563 q 441 633 321 633 q 669 537 581 633 q 758 315 758 441 q 661 83 758 175 q 442 -9 564 -9 q 239 65 327 -9 l 239 -95 l 434 -95 l 434 -206 l 14 -206 l 14 -95 l 121 -95 l 121 503 l 14 503 l 14 614 m 233 317 q 298 164 233 221 q 439 107 363 107 q 576 167 519 107 q 633 315 633 227 q 583 456 633 395 q 441 517 533 517 q 292 458 351 517 q 233 317 233 399 z "},"q":{"ha":814,"x_min":57,"x_max":802,"o":"m 802 614 l 802 503 l 694 503 l 694 -95 l 802 -95 l 802 -206 l 381 -206 l 381 -95 l 576 -95 l 576 65 q 373 -9 488 -9 q 154 83 251 -9 q 57 315 57 175 q 146 537 57 441 q 374 633 235 633 q 576 563 494 633 l 576 614 l 802 614 m 582 317 q 523 458 582 399 q 374 517 464 517 q 232 456 282 517 q 182 315 182 395 q 239 167 182 227 q 376 107 296 107 q 517 164 452 107 q 582 317 582 221 z "},"r":{"ha":814,"x_min":84,"x_max":795,"o":"m 96 614 l 365 614 l 365 514 q 429 571 403 551 q 506 612 456 591 q 610 633 556 633 q 699 617 658 633 q 755 587 739 601 q 795 551 772 574 l 674 458 q 587 517 640 517 q 553 511 571 517 q 517 495 534 505 q 481 472 499 486 q 448 446 463 458 q 417 418 433 433 q 392 393 401 403 q 374 374 382 384 l 365 365 l 365 111 l 616 111 l 616 0 l 84 0 l 84 111 l 247 111 l 247 503 l 96 503 l 96 614 z "},"s":{"ha":814,"x_min":117,"x_max":703,"o":"m 564 646 l 670 628 q 656 510 656 560 q 670 412 656 467 l 564 397 q 557 415 559 407 l 547 446 q 381 517 522 517 q 239 441 239 517 q 252 401 239 416 q 298 377 266 385 q 347 367 330 369 q 407 362 365 365 q 513 354 486 357 q 578 342 541 351 q 637 315 614 332 q 703 184 703 266 q 627 39 703 98 q 433 -19 551 -19 q 343 -6 384 -19 q 286 18 302 7 q 243 50 270 28 l 227 -20 l 121 -14 q 134 115 134 68 q 121 221 134 164 l 227 233 q 281 134 240 170 q 411 98 321 98 q 534 121 487 98 q 581 187 581 145 q 546 235 581 224 q 416 251 511 245 q 206 296 266 260 q 142 359 167 319 q 117 445 117 399 q 196 585 117 536 q 366 633 275 633 q 547 570 463 633 l 564 646 z "},"t":{"ha":814,"x_min":126,"x_max":750,"o":"m 216 791 l 334 791 l 334 601 l 643 601 l 643 490 l 334 490 l 334 262 q 334 208 334 224 q 340 165 335 191 q 356 127 346 138 q 387 107 366 117 q 439 98 408 98 q 518 107 477 98 q 584 126 559 117 q 662 157 609 136 l 705 175 l 750 68 q 450 -19 562 -19 q 273 42 332 -19 q 226 132 236 81 q 216 262 216 183 l 216 490 l 126 490 l 126 601 l 216 601 l 216 791 z "},"u":{"ha":814,"x_min":30,"x_max":768,"o":"m 30 614 l 254 614 l 254 243 q 365 98 254 98 q 439 115 403 98 q 491 147 475 133 q 544 198 507 161 l 544 503 l 433 503 l 433 614 l 662 614 l 662 111 l 768 111 l 768 0 l 544 0 l 544 42 q 366 -19 458 -19 q 267 1 315 -19 q 191 54 218 20 q 136 243 136 123 l 136 503 l 30 503 l 30 614 z "},"v":{"ha":814,"x_min":15,"x_max":799,"o":"m 15 614 l 347 614 l 347 503 l 256 503 l 411 165 l 568 503 l 480 503 l 480 614 l 799 614 l 799 503 l 693 503 l 456 0 l 359 0 l 122 503 l 15 503 l 15 614 z "},"w":{"ha":814,"x_min":0,"x_max":814,"o":"m 0 614 l 288 614 l 288 503 l 187 503 l 262 216 l 264 216 l 370 503 l 453 503 l 562 216 l 564 216 l 640 503 l 538 503 l 538 614 l 814 614 l 814 503 l 757 503 l 620 0 l 513 0 l 408 296 l 406 296 l 304 0 l 201 0 l 62 503 l 0 503 l 0 614 z "},"x":{"ha":814,"x_min":20,"x_max":793,"o":"m 41 614 l 355 614 l 355 503 l 298 503 l 404 401 l 518 503 l 457 503 l 457 614 l 760 614 l 760 503 l 670 503 l 484 321 l 701 111 l 793 111 l 793 0 l 473 0 l 473 111 l 536 111 l 404 241 l 271 111 l 334 111 l 334 0 l 20 0 l 20 111 l 118 111 l 324 321 l 133 503 l 41 503 l 41 614 z "},"y":{"ha":814,"x_min":19,"x_max":811,"o":"m 19 614 l 316 614 l 316 503 l 243 503 l 408 186 l 590 503 l 519 503 l 519 614 l 811 614 l 811 503 l 726 503 l 385 -90 l 487 -90 l 487 -201 l 39 -201 l 39 -90 l 250 -90 l 339 64 l 109 503 l 19 503 l 19 614 z "},"z":{"ha":814,"x_min":123,"x_max":690,"o":"m 137 614 l 690 614 l 690 524 l 301 111 l 572 111 l 572 236 l 690 236 l 690 0 l 123 0 l 123 98 l 509 503 l 255 503 l 255 385 l 137 385 l 137 614 z "},"{":{"ha":814,"x_min":296,"x_max":644,"o":"m 644 906 l 644 791 q 592 790 608 791 q 553 785 576 789 q 521 774 530 781 q 504 753 511 766 q 496 718 496 739 q 513 617 496 701 l 522 570 q 530 506 530 513 q 476 391 530 445 q 530 274 530 332 q 513 164 530 255 q 496 64 496 80 q 505 28 496 42 q 522 6 513 14 q 555 -5 532 -1 q 594 -9 578 -8 q 644 -9 610 -9 l 644 -123 q 502 -113 552 -127 q 409 -45 442 -95 q 376 64 376 4 q 395 190 376 103 q 407 275 407 251 q 296 334 407 327 l 296 449 q 349 455 330 452 q 387 472 368 458 q 407 510 407 486 q 406 530 407 518 q 403 552 404 541 q 399 572 401 563 q 396 586 397 581 l 395 593 q 376 715 376 681 q 385 779 376 747 q 418 840 395 810 q 486 889 441 871 q 594 907 532 907 q 614 907 598 907 q 644 906 631 906 z "},"|":{"ha":814,"x_min":340,"x_max":473,"o":"m 473 913 l 473 -250 l 340 -250 l 340 913 l 473 913 z "},"}":{"ha":814,"x_min":170,"x_max":518,"o":"m 518 449 l 518 334 q 467 329 487 332 q 427 311 448 326 q 407 273 407 297 q 419 190 407 239 q 438 68 438 102 q 400 -51 438 -5 q 312 -113 362 -96 q 170 -123 260 -127 l 170 -9 q 220 -9 203 -9 q 259 -5 236 -8 q 292 6 282 -1 q 309 28 301 14 q 317 64 317 42 q 292 213 317 94 q 283 275 283 270 q 338 393 283 335 q 283 509 283 452 q 301 614 283 532 q 317 719 317 704 q 310 753 317 739 q 293 774 302 766 q 260 785 283 781 q 222 790 237 789 q 170 791 206 791 l 170 907 q 312 895 266 910 q 404 829 369 878 q 438 719 438 781 q 419 594 438 680 q 407 507 407 540 q 417 478 407 490 q 448 461 427 467 q 481 454 468 456 q 518 449 494 452 z "},"~":{"ha":814,"x_min":104,"x_max":709,"o":"m 629 559 l 709 468 q 707 464 709 467 q 705 460 705 461 q 675 413 686 429 q 640 372 663 397 q 590 334 617 346 q 530 323 563 323 q 397 363 498 323 q 289 400 311 400 q 240 379 260 400 q 194 311 220 358 l 184 293 l 104 387 q 106 391 104 388 q 109 395 109 393 q 138 444 126 426 q 174 488 151 463 q 226 526 197 513 q 289 538 255 538 q 431 496 335 538 q 530 461 511 461 q 578 483 557 461 q 629 559 598 505 z "},"¡":{"ha":814,"x_min":289,"x_max":525,"o":"m 490 -179 l 326 -179 l 351 368 l 463 368 l 490 -179 m 407 430 q 322 463 355 430 q 289 537 289 495 q 322 611 289 579 q 407 643 355 643 q 491 612 457 643 q 525 537 525 581 q 491 462 525 494 q 407 430 457 430 z "},"¢":{"ha":814,"x_min":144,"x_max":705,"o":"m 465 557 l 465 236 q 581 279 517 244 q 616 301 587 282 q 648 321 646 320 l 705 224 q 465 118 586 138 l 465 -75 l 369 -75 l 369 118 q 202 217 260 138 q 144 393 144 296 q 212 580 144 507 q 369 671 279 652 l 369 854 l 465 854 l 465 680 q 564 614 524 666 l 575 688 l 674 680 q 662 515 662 545 q 666 422 662 477 l 564 407 q 556 459 559 442 q 546 499 553 476 q 529 532 538 522 q 504 549 519 541 q 465 557 488 557 m 369 236 l 369 555 q 295 505 323 540 q 261 444 267 469 q 255 396 255 419 q 262 344 255 372 q 296 281 269 316 q 369 236 324 247 z "},"£":{"ha":814,"x_min":113,"x_max":742,"o":"m 113 498 l 220 498 q 198 613 198 566 q 277 787 198 719 q 454 856 357 856 q 610 818 528 856 l 616 837 l 727 831 q 686 614 696 723 l 579 627 q 585 696 585 648 q 539 728 585 718 q 460 739 494 739 q 355 702 395 739 q 316 614 316 665 q 345 498 316 576 l 671 498 l 671 384 l 376 384 q 381 316 381 349 q 336 133 381 213 q 384 141 369 141 q 491 115 425 141 q 556 98 534 98 q 600 109 579 98 q 661 153 620 121 l 671 163 l 742 75 q 732 66 735 68 q 689 28 707 42 q 635 -1 671 14 q 559 -16 600 -16 q 460 4 515 -16 q 374 27 400 27 q 220 -34 324 27 l 148 60 q 267 309 267 179 q 258 384 267 343 l 113 384 l 113 498 z "},"¤":{"ha":814,"x_min":73,"x_max":739,"o":"m 627 262 l 739 152 l 655 71 l 545 179 q 407 138 475 138 q 267 179 340 138 l 157 71 l 73 152 l 186 262 l 168 294 q 146 389 146 338 q 168 503 146 460 l 186 534 l 73 644 l 157 726 l 267 618 l 297 633 q 397 658 338 658 q 517 633 469 658 l 545 618 l 655 726 l 739 644 l 628 536 q 667 389 673 472 q 627 262 663 308 m 552 399 q 513 499 552 456 q 407 543 473 543 q 300 498 339 543 q 262 399 262 454 q 302 296 262 339 q 407 254 342 254 q 511 296 471 254 q 552 399 552 339 z "},"¥":{"ha":814,"x_min":30,"x_max":784,"o":"m 468 187 l 468 111 l 625 111 l 625 0 l 197 0 l 197 111 l 353 111 l 353 187 l 160 187 l 160 274 l 353 274 l 353 339 l 160 339 l 160 426 l 346 426 l 123 719 l 30 719 l 30 830 l 340 830 l 340 719 l 267 719 l 414 503 l 563 719 l 476 719 l 476 830 l 784 830 l 784 719 l 692 719 l 476 426 l 658 426 l 658 339 l 468 339 l 468 274 l 658 274 l 658 187 l 468 187 z "},"¦":{"ha":814,"x_min":340,"x_max":473,"o":"m 473 913 l 473 404 l 340 404 l 340 913 l 473 913 m 473 259 l 473 -250 l 340 -250 l 340 259 l 473 259 z "},"§":{"ha":814,"x_min":151,"x_max":682,"o":"m 654 791 l 654 559 l 538 559 l 538 671 l 400 671 q 342 667 357 671 q 328 639 328 662 q 382 568 328 612 l 564 427 q 655 340 628 377 q 682 254 682 304 q 674 202 682 218 q 627 140 666 186 q 583 121 612 121 q 600 75 583 106 q 610 22 610 53 q 590 -61 610 -28 q 533 -106 570 -94 q 473 -121 496 -118 q 418 -123 450 -123 l 159 -123 l 159 121 l 271 121 l 271 0 l 418 0 q 460 1 448 0 q 480 9 472 3 q 488 30 488 15 q 433 106 488 62 l 258 243 q 174 321 198 289 q 151 406 151 354 q 161 464 151 445 q 221 534 171 483 q 241 543 229 543 q 206 644 206 591 q 406 791 206 791 l 654 791 m 490 338 l 328 463 q 290 443 311 460 q 270 403 270 426 q 272 389 270 393 q 287 372 274 384 q 328 338 300 359 l 496 208 q 562 259 562 220 q 490 338 562 282 z "},"¨":{"ha":814,"x_min":241,"x_max":572,"o":"m 241 723 l 241 879 l 372 879 l 372 723 l 241 723 m 442 723 l 442 879 l 572 879 l 572 723 l 442 723 z "},"©":{"ha":814,"x_min":9,"x_max":804,"o":"m 587 609 l 587 473 l 525 473 q 500 547 522 514 q 430 581 477 581 q 342 540 377 581 q 308 426 308 499 q 346 296 308 343 q 439 248 384 248 q 552 323 517 248 l 604 302 q 406 179 555 179 q 244 246 304 179 q 184 411 184 313 q 248 576 184 509 q 423 643 311 643 q 587 609 492 643 m 688 134 q 629 76 688 134 q 407 18 571 18 q 126 134 243 18 q 9 415 9 250 q 126 696 9 579 q 407 812 243 812 q 688 696 572 812 q 804 415 804 579 q 688 134 804 250 m 182 189 q 229 143 182 189 q 407 96 275 96 q 632 189 538 96 q 726 415 726 282 q 632 640 726 547 q 407 734 538 734 q 182 640 275 734 q 88 415 88 547 q 182 189 88 282 z "},"ª":{"ha":814,"x_min":221,"x_max":591,"o":"m 271 705 l 243 774 q 397 814 339 814 q 532 690 532 814 l 532 543 l 591 543 l 591 471 l 458 471 l 458 496 q 350 461 404 461 q 258 494 296 461 q 221 576 221 528 q 267 664 221 631 q 385 697 312 697 q 458 693 410 697 q 444 730 457 719 q 396 741 430 741 q 271 705 351 741 m 458 593 l 458 620 q 392 625 416 625 q 323 612 349 625 q 297 575 297 598 q 313 547 297 559 q 350 534 330 534 q 458 593 400 534 m 229 414 l 585 414 l 585 340 l 229 340 l 229 414 z "},"«":{"ha":814,"x_min":58,"x_max":754,"o":"m 408 24 l 58 327 l 408 628 l 481 541 l 233 327 l 487 111 l 408 24 m 675 24 l 326 327 l 675 628 l 749 541 l 500 327 l 754 111 l 675 24 z "},"¬":{"ha":814,"x_min":104,"x_max":720,"o":"m 104 627 l 720 627 l 720 221 l 601 221 l 601 507 l 104 507 l 104 627 z "},"®":{"ha":814,"x_min":9,"x_max":804,"o":"m 217 586 l 217 635 l 410 635 q 568 522 568 635 q 487 412 568 444 q 545 328 514 392 q 583 260 572 269 q 614 254 589 254 l 614 208 l 552 208 q 492 224 510 208 q 448 302 473 240 q 404 384 419 374 q 365 389 396 389 l 365 282 q 373 255 365 256 q 410 254 377 254 l 410 208 l 217 208 l 217 254 q 257 256 250 254 q 264 275 264 259 l 264 563 q 260 583 264 579 q 239 586 256 586 l 217 586 m 365 562 l 365 439 q 404 442 391 441 q 434 450 416 444 q 460 473 452 457 q 468 514 468 488 q 460 554 468 538 q 436 576 452 570 q 410 583 420 582 q 384 585 400 585 q 368 581 370 585 q 365 562 365 576 m 688 134 q 629 76 688 134 q 407 18 571 18 q 126 134 243 18 q 9 415 9 250 q 126 696 9 579 q 407 812 243 812 q 688 696 572 812 q 804 415 804 579 q 688 134 804 250 m 182 189 q 229 143 182 189 q 407 96 275 96 q 632 189 538 96 q 726 415 726 282 q 632 640 726 547 q 407 734 538 734 q 182 640 275 734 q 88 415 88 547 q 182 189 88 282 z "},"¯":{"ha":814,"x_min":175,"x_max":639,"o":"m 175 861 l 639 861 l 639 746 l 175 746 l 175 861 z "},"°":{"ha":814,"x_min":195,"x_max":618,"o":"m 195 655 q 257 805 195 743 q 407 867 319 867 q 556 805 494 867 q 618 655 618 743 q 557 505 618 567 q 407 442 495 442 q 257 504 319 442 q 195 655 195 566 m 304 655 q 334 581 304 612 q 407 551 363 551 q 480 581 450 551 q 510 655 510 612 q 480 728 510 697 q 407 758 450 758 q 334 728 363 758 q 304 655 304 697 z "},"±":{"ha":814,"x_min":73,"x_max":741,"o":"m 347 815 l 467 815 l 467 560 l 741 560 l 741 441 l 467 441 l 467 186 l 347 186 l 347 441 l 73 441 l 73 560 l 347 560 l 347 815 m 73 151 l 741 151 l 741 31 l 73 31 l 73 151 z "},"²":{"ha":814,"x_min":214,"x_max":564,"o":"m 487 490 l 563 490 l 563 334 l 214 334 l 214 406 l 231 419 q 382 556 262 445 q 465 641 448 616 q 481 701 481 666 q 455 762 481 736 q 392 787 429 787 q 334 769 358 787 q 309 728 309 751 l 313 704 l 229 704 l 229 783 q 393 867 298 867 q 514 818 464 867 q 564 700 564 769 q 530 595 564 646 q 411 477 513 570 l 339 412 l 487 412 l 487 490 z "},"³":{"ha":814,"x_min":209,"x_max":560,"o":"m 258 734 l 217 800 q 310 853 277 840 q 380 867 343 867 q 490 825 445 867 q 534 724 534 784 q 491 618 534 666 q 560 490 560 572 q 509 370 560 418 q 380 323 458 323 q 245 355 317 323 l 209 372 l 240 444 q 382 400 331 400 q 452 425 425 400 q 479 488 479 449 q 453 550 479 528 q 380 571 427 572 l 336 570 l 336 648 q 425 665 403 648 q 453 722 453 685 q 433 768 453 750 q 381 787 412 787 q 290 754 342 787 l 258 734 z "},"´":{"ha":814,"x_min":285,"x_max":629,"o":"m 629 865 l 403 738 l 285 738 l 427 871 l 629 871 l 629 865 z "},"µ":{"ha":814,"x_min":35,"x_max":780,"o":"m 35 614 l 256 614 l 256 281 q 262 199 256 227 q 288 148 269 172 q 406 90 331 90 q 511 132 463 90 q 559 281 559 175 l 559 503 l 449 503 l 449 614 l 670 614 l 670 111 l 780 111 l 780 0 l 559 0 l 559 66 l 556 66 q 410 -20 505 -20 q 259 66 315 -20 l 256 66 l 256 -208 l 145 -208 l 145 503 l 35 503 l 35 614 z "},"¶":{"ha":814,"x_min":98,"x_max":716,"o":"m 644 724 l 644 -39 l 716 -39 l 716 -107 l 540 -107 l 540 724 l 472 724 l 472 -107 l 278 -107 l 278 -39 l 366 -39 l 366 363 q 195 393 266 357 q 121 474 144 420 q 98 579 98 528 q 187 755 98 699 q 396 791 244 791 l 716 791 l 716 724 l 644 724 m 366 425 l 366 724 q 297 628 297 724 l 297 522 q 304 470 297 491 q 323 440 311 449 q 344 429 335 431 q 366 425 353 426 z "},"·":{"ha":814,"x_min":279,"x_max":534,"o":"m 407 540 q 494 508 454 540 q 534 425 534 476 q 496 341 534 373 q 407 309 457 309 q 319 341 358 309 q 279 425 279 373 q 319 508 279 476 q 407 540 358 540 z "},"¸":{"ha":814,"x_min":302,"x_max":609,"o":"m 511 8 l 507 -24 q 570 -53 532 -24 q 609 -130 609 -81 q 604 -158 609 -144 q 588 -191 600 -172 q 547 -220 576 -209 q 477 -232 518 -232 q 315 -209 407 -232 q 308 -208 313 -209 l 302 -206 l 317 -113 q 469 -137 427 -137 q 494 -132 488 -137 q 446 -113 503 -121 q 418 -109 441 -111 l 399 -106 l 412 8 l 511 8 z "},"¹":{"ha":814,"x_min":225,"x_max":590,"o":"m 225 787 l 404 867 l 453 867 l 453 411 l 590 411 l 590 334 l 236 334 l 236 411 l 374 411 l 374 768 l 256 715 l 225 787 z "},"º":{"ha":814,"x_min":220,"x_max":594,"o":"m 273 511 q 246 535 273 511 q 220 637 220 560 q 272 764 220 715 q 407 814 324 814 q 541 764 488 814 q 594 637 594 715 q 541 511 594 560 q 407 461 488 461 q 273 511 326 461 m 329 712 q 314 698 329 712 q 298 637 298 684 q 329 563 298 591 q 407 534 359 534 q 485 563 454 534 q 515 637 515 591 q 486 712 515 684 q 407 741 456 741 q 329 712 359 741 m 229 415 l 585 415 l 585 340 l 229 340 l 229 415 z "},"»":{"ha":814,"x_min":60,"x_max":755,"o":"m 138 628 l 488 326 l 138 24 l 65 111 l 313 326 l 60 541 l 138 628 m 406 628 l 755 326 l 406 24 l 332 111 l 581 326 l 327 541 l 406 628 z "},"¼":{"ha":814,"x_min":1,"x_max":819,"o":"m 741 412 l 741 83 l 811 83 l 811 5 l 741 5 l 741 -33 l 811 -33 l 811 -107 l 557 -107 l 557 -33 l 663 -33 l 663 5 l 453 5 l 453 76 l 656 412 l 741 412 m 663 83 l 663 300 l 661 300 l 545 83 l 663 83 m 1 807 l 148 872 l 197 872 l 197 429 l 286 429 l 286 351 l 16 351 l 16 429 l 118 429 l 118 774 l 34 736 l 1 807 m 754 891 l 819 846 l 111 -127 l 49 -79 l 754 891 z "},"½":{"ha":814,"x_min":1,"x_max":811,"o":"m 1 807 l 148 872 l 197 872 l 197 429 l 286 429 l 286 351 l 16 351 l 16 429 l 118 429 l 118 774 l 34 736 l 1 807 m 727 891 l 792 846 l 84 -127 l 22 -79 l 727 891 m 734 46 l 810 46 l 810 -107 l 464 -107 l 464 -37 l 480 -23 q 629 110 480 -23 q 712 194 696 171 q 728 251 728 217 q 703 309 728 285 q 640 334 677 334 q 584 317 609 334 q 559 281 559 301 l 560 266 l 562 252 l 479 252 l 479 331 q 642 412 548 412 q 762 365 712 412 q 811 250 811 317 q 781 155 811 197 q 658 33 751 113 l 589 -30 l 734 -30 l 734 46 z "},"¾":{"ha":814,"x_min":4,"x_max":841,"o":"m 758 412 l 758 83 l 830 83 l 830 5 l 758 5 l 758 -33 l 830 -33 l 830 -107 l 575 -107 l 575 -33 l 681 -33 l 681 5 l 471 5 l 471 76 l 674 412 l 758 412 m 681 83 l 681 300 l 678 300 l 564 83 l 681 83 m 53 742 l 12 807 q 104 859 71 845 q 172 872 137 872 q 283 832 239 872 q 327 732 327 792 q 283 629 327 673 q 351 503 351 585 q 301 387 351 433 q 174 340 251 340 q 41 373 119 340 l 4 388 l 35 460 q 175 418 123 418 q 244 441 217 418 q 271 503 271 465 q 174 583 271 583 l 142 582 l 129 582 l 129 659 l 141 659 q 217 675 199 661 q 245 731 245 696 q 225 776 245 758 q 172 793 205 793 q 84 761 137 793 l 53 742 m 777 891 l 841 846 l 134 -127 l 72 -79 l 777 891 z "},"¿":{"ha":814,"x_min":144,"x_max":661,"o":"m 661 53 l 661 -127 q 621 -141 658 -129 q 423 -180 509 -180 q 218 -110 293 -180 q 144 61 144 -39 q 163 151 144 110 q 205 214 182 191 q 267 258 228 237 q 326 286 305 279 q 382 304 347 293 l 382 380 l 499 380 l 499 214 l 494 213 q 488 212 490 212 q 452 203 460 205 q 399 191 416 195 q 351 173 382 186 q 305 146 320 160 q 277 110 290 133 q 264 58 264 87 q 308 -31 264 1 q 408 -62 351 -62 q 515 -49 475 -62 l 543 -39 l 543 53 l 661 53 m 444 430 q 360 461 395 430 q 326 537 326 492 q 360 613 326 582 q 444 644 395 644 q 526 613 492 644 q 560 537 560 582 q 527 462 560 494 q 444 430 494 430 z "},"À":{"ha":814,"x_min":0,"x_max":814,"o":"m 136 791 l 463 791 l 738 111 l 814 111 l 814 0 l 492 0 l 492 111 l 612 111 l 559 244 l 254 244 l 201 111 l 321 111 l 321 0 l 0 0 l 0 111 l 79 111 l 311 680 l 136 680 l 136 791 m 515 355 l 407 614 l 300 355 l 515 355 m 212 1042 l 212 1047 l 414 1047 l 556 914 l 438 914 l 212 1042 z "},"Á":{"ha":814,"x_min":0,"x_max":814,"o":"m 136 791 l 463 791 l 738 111 l 814 111 l 814 0 l 492 0 l 492 111 l 612 111 l 559 244 l 254 244 l 201 111 l 321 111 l 321 0 l 0 0 l 0 111 l 79 111 l 311 680 l 136 680 l 136 791 m 515 355 l 407 614 l 300 355 l 515 355 m 629 1042 l 403 914 l 285 914 l 427 1047 l 629 1047 l 629 1042 z "},"Â":{"ha":814,"x_min":0,"x_max":814,"o":"m 136 791 l 463 791 l 738 111 l 814 111 l 814 0 l 492 0 l 492 111 l 612 111 l 559 244 l 254 244 l 201 111 l 321 111 l 321 0 l 0 0 l 0 111 l 79 111 l 311 680 l 136 680 l 136 791 m 515 355 l 407 614 l 300 355 l 515 355 m 346 1061 l 463 1061 l 595 945 l 525 902 l 401 967 l 292 902 l 220 945 l 346 1061 z "},"Ã":{"ha":814,"x_min":0,"x_max":814,"o":"m 136 791 l 463 791 l 738 111 l 814 111 l 814 0 l 492 0 l 492 111 l 612 111 l 559 244 l 254 244 l 201 111 l 321 111 l 321 0 l 0 0 l 0 111 l 79 111 l 311 680 l 136 680 l 136 791 m 515 355 l 407 614 l 300 355 l 515 355 m 552 1072 l 646 1043 q 629 998 636 1015 q 603 954 621 981 q 555 912 585 926 q 486 898 525 898 q 380 939 438 898 q 321 968 338 968 q 267 906 290 968 q 264 901 266 906 q 262 895 263 895 l 168 926 q 187 973 179 956 q 214 1017 195 990 q 259 1056 232 1043 q 321 1069 286 1069 q 431 1025 369 1069 q 491 997 468 997 q 525 1015 513 997 q 552 1072 537 1032 z "},"Ä":{"ha":814,"x_min":0,"x_max":814,"o":"m 136 791 l 463 791 l 738 111 l 814 111 l 814 0 l 492 0 l 492 111 l 612 111 l 559 244 l 254 244 l 201 111 l 321 111 l 321 0 l 0 0 l 0 111 l 79 111 l 311 680 l 136 680 l 136 791 m 515 355 l 407 614 l 300 355 l 515 355 m 241 899 l 241 1055 l 372 1055 l 372 899 l 241 899 m 442 899 l 442 1055 l 572 1055 l 572 899 l 442 899 z "},"Å":{"ha":814,"x_min":0,"x_max":814,"o":"m 136 791 l 463 791 l 738 111 l 814 111 l 814 0 l 492 0 l 492 111 l 612 111 l 559 244 l 254 244 l 201 111 l 321 111 l 321 0 l 0 0 l 0 111 l 79 111 l 311 680 l 136 680 l 136 791 m 515 355 l 407 614 l 300 355 l 515 355 m 492 1081 q 510 1063 492 1081 q 528 996 528 1046 q 492 911 528 945 q 407 876 457 876 q 322 911 357 876 q 288 996 288 945 q 322 1081 288 1046 q 407 1116 357 1116 q 492 1081 457 1116 m 450 996 q 438 1027 450 1015 q 407 1039 426 1039 q 376 1026 389 1039 q 363 996 363 1013 q 376 965 363 978 q 407 952 389 952 q 437 965 425 952 q 450 996 450 978 z "},"Æ":{"ha":814,"x_min":3,"x_max":807,"o":"m 168 791 l 807 791 l 807 498 l 711 498 l 700 680 l 494 680 l 494 452 l 551 452 l 551 562 l 655 562 l 655 258 l 551 258 l 551 347 l 494 347 l 494 111 l 700 111 l 711 296 l 807 296 l 807 0 l 377 0 l 377 243 l 232 243 l 184 111 l 289 111 l 289 0 l 3 0 l 3 111 l 80 111 l 289 680 l 168 680 l 168 791 m 377 347 l 377 659 l 374 659 l 260 347 l 377 347 z "},"Ç":{"ha":814,"x_min":71,"x_max":829,"o":"m 502 -19 l 502 -24 q 604 -138 604 -50 q 572 -218 604 -187 q 472 -248 540 -248 q 297 -222 397 -248 l 312 -129 q 468 -153 442 -153 q 492 -137 492 -153 q 453 -114 492 -121 q 437 -112 450 -114 q 410 -108 425 -110 q 393 -106 396 -106 l 403 -19 q 165 111 259 -5 q 71 404 71 228 q 181 702 71 590 q 426 814 292 814 q 511 800 472 814 q 571 770 551 785 q 623 728 591 755 l 631 804 l 743 804 q 736 673 736 719 q 750 503 736 595 l 637 488 q 629 535 632 519 q 618 581 627 551 q 597 627 609 610 q 565 662 585 643 q 515 689 545 681 q 445 697 484 697 q 269 619 342 697 q 195 406 195 541 q 260 187 195 277 q 450 98 326 98 q 545 111 499 98 q 632 151 591 125 q 696 195 673 176 q 750 241 719 213 l 829 155 q 680 40 753 83 q 502 -19 608 -3 z "},"È":{"ha":814,"x_min":61,"x_max":750,"o":"m 61 791 l 736 791 l 743 498 l 631 498 l 618 680 l 292 680 l 292 472 l 452 472 l 452 570 l 564 570 l 564 264 l 452 264 l 452 361 l 292 361 l 292 111 l 631 111 l 637 294 l 750 294 l 750 0 l 61 0 l 61 111 l 174 111 l 174 680 l 61 680 l 61 791 m 212 1042 l 212 1047 l 414 1047 l 556 914 l 438 914 l 212 1042 z "},"É":{"ha":814,"x_min":61,"x_max":750,"o":"m 61 791 l 736 791 l 743 498 l 631 498 l 618 680 l 292 680 l 292 472 l 452 472 l 452 570 l 564 570 l 564 264 l 452 264 l 452 361 l 292 361 l 292 111 l 631 111 l 637 294 l 750 294 l 750 0 l 61 0 l 61 111 l 174 111 l 174 680 l 61 680 l 61 791 m 629 1042 l 403 914 l 285 914 l 427 1047 l 629 1047 l 629 1042 z "},"Ê":{"ha":814,"x_min":61,"x_max":750,"o":"m 61 791 l 736 791 l 743 498 l 631 498 l 618 680 l 292 680 l 292 472 l 452 472 l 452 570 l 564 570 l 564 264 l 452 264 l 452 361 l 292 361 l 292 111 l 631 111 l 637 294 l 750 294 l 750 0 l 61 0 l 61 111 l 174 111 l 174 680 l 61 680 l 61 791 m 346 1061 l 463 1061 l 595 945 l 525 902 l 401 967 l 292 902 l 220 945 l 346 1061 z "},"Ë":{"ha":814,"x_min":61,"x_max":750,"o":"m 61 791 l 736 791 l 743 498 l 631 498 l 618 680 l 292 680 l 292 472 l 452 472 l 452 570 l 564 570 l 564 264 l 452 264 l 452 361 l 292 361 l 292 111 l 631 111 l 637 294 l 750 294 l 750 0 l 61 0 l 61 111 l 174 111 l 174 680 l 61 680 l 61 791 m 241 899 l 241 1055 l 372 1055 l 372 899 l 241 899 m 442 899 l 442 1055 l 572 1055 l 572 899 l 442 899 z "},"Ì":{"ha":814,"x_min":119,"x_max":696,"o":"m 119 791 l 696 791 l 696 680 l 467 680 l 467 111 l 696 111 l 696 0 l 119 0 l 119 111 l 349 111 l 349 680 l 119 680 l 119 791 m 212 1042 l 212 1047 l 414 1047 l 556 914 l 438 914 l 212 1042 z "},"Í":{"ha":814,"x_min":119,"x_max":696,"o":"m 119 791 l 696 791 l 696 680 l 467 680 l 467 111 l 696 111 l 696 0 l 119 0 l 119 111 l 349 111 l 349 680 l 119 680 l 119 791 m 629 1042 l 403 914 l 285 914 l 427 1047 l 629 1047 l 629 1042 z "},"Î":{"ha":814,"x_min":119,"x_max":696,"o":"m 119 791 l 696 791 l 696 680 l 467 680 l 467 111 l 696 111 l 696 0 l 119 0 l 119 111 l 349 111 l 349 680 l 119 680 l 119 791 m 346 1061 l 463 1061 l 595 945 l 525 902 l 401 967 l 292 902 l 220 945 l 346 1061 z "},"Ï":{"ha":814,"x_min":119,"x_max":696,"o":"m 119 791 l 696 791 l 696 680 l 467 680 l 467 111 l 696 111 l 696 0 l 119 0 l 119 111 l 349 111 l 349 680 l 119 680 l 119 791 m 241 899 l 241 1055 l 372 1055 l 372 899 l 241 899 m 442 899 l 442 1055 l 572 1055 l 572 899 l 442 899 z "},"Ð":{"ha":814,"x_min":31,"x_max":761,"o":"m 31 791 l 385 791 q 555 770 488 791 q 675 682 621 750 q 761 408 761 575 q 646 83 761 195 q 381 0 560 0 l 31 0 l 31 111 l 136 111 l 136 351 l 31 351 l 31 465 l 136 465 l 136 680 l 31 680 l 31 791 m 387 680 l 254 680 l 254 465 l 452 465 l 452 351 l 254 351 l 254 111 l 381 111 q 559 167 503 111 q 636 407 636 244 q 583 604 636 528 q 509 666 551 652 q 387 680 467 680 z "},"Ñ":{"ha":814,"x_min":7,"x_max":806,"o":"m 7 791 l 266 791 l 583 203 l 606 203 l 606 680 l 471 680 l 471 791 l 806 791 l 806 680 l 715 680 l 715 -16 l 570 -16 l 245 581 l 221 581 l 221 111 l 358 111 l 358 0 l 7 0 l 7 111 l 113 111 l 113 680 l 7 680 l 7 791 m 552 1072 l 646 1043 q 629 998 636 1015 q 603 954 621 981 q 555 912 585 926 q 486 898 525 898 q 380 939 438 898 q 321 968 338 968 q 267 906 290 968 q 264 901 266 906 q 262 895 263 895 l 168 926 q 187 973 179 956 q 214 1017 195 990 q 259 1056 232 1043 q 321 1069 286 1069 q 431 1025 369 1069 q 491 997 468 997 q 525 1015 513 997 q 552 1072 537 1032 z "},"Ò":{"ha":814,"x_min":43,"x_max":770,"o":"m 144 98 q 94 158 144 98 q 43 395 43 218 q 144 692 43 571 q 407 814 245 814 q 670 693 570 814 q 770 396 770 572 q 669 99 770 220 q 407 -22 568 -22 q 144 98 245 -22 m 168 396 q 233 183 168 271 q 407 95 298 95 q 581 182 515 95 q 646 396 646 270 q 581 608 646 518 q 407 697 517 697 q 233 608 298 697 q 168 396 168 519 m 212 1042 l 212 1047 l 414 1047 l 556 914 l 438 914 l 212 1042 z "},"Ó":{"ha":814,"x_min":43,"x_max":770,"o":"m 144 98 q 94 158 144 98 q 43 395 43 218 q 144 692 43 571 q 407 814 245 814 q 670 693 570 814 q 770 396 770 572 q 669 99 770 220 q 407 -22 568 -22 q 144 98 245 -22 m 168 396 q 233 183 168 271 q 407 95 298 95 q 581 182 515 95 q 646 396 646 270 q 581 608 646 518 q 407 697 517 697 q 233 608 298 697 q 168 396 168 519 m 629 1042 l 403 914 l 285 914 l 427 1047 l 629 1047 l 629 1042 z "},"Ô":{"ha":814,"x_min":43,"x_max":770,"o":"m 144 98 q 94 158 144 98 q 43 395 43 218 q 144 692 43 571 q 407 814 245 814 q 670 693 570 814 q 770 396 770 572 q 669 99 770 220 q 407 -22 568 -22 q 144 98 245 -22 m 168 396 q 233 183 168 271 q 407 95 298 95 q 581 182 515 95 q 646 396 646 270 q 581 608 646 518 q 407 697 517 697 q 233 608 298 697 q 168 396 168 519 m 346 1061 l 463 1061 l 595 945 l 525 902 l 401 967 l 292 902 l 220 945 l 346 1061 z "},"Õ":{"ha":814,"x_min":43,"x_max":770,"o":"m 144 98 q 94 158 144 98 q 43 395 43 218 q 144 692 43 571 q 407 814 245 814 q 670 693 570 814 q 770 396 770 572 q 669 99 770 220 q 407 -22 568 -22 q 144 98 245 -22 m 168 396 q 233 183 168 271 q 407 95 298 95 q 581 182 515 95 q 646 396 646 270 q 581 608 646 518 q 407 697 517 697 q 233 608 298 697 q 168 396 168 519 m 552 1072 l 646 1043 q 629 998 636 1015 q 603 954 621 981 q 555 912 585 926 q 486 898 525 898 q 380 939 438 898 q 321 968 338 968 q 267 906 290 968 q 264 901 266 906 q 262 895 263 895 l 168 926 q 187 973 179 956 q 214 1017 195 990 q 259 1056 232 1043 q 321 1069 286 1069 q 431 1025 369 1069 q 491 997 468 997 q 525 1015 513 997 q 552 1072 537 1032 z "},"Ö":{"ha":814,"x_min":43,"x_max":770,"o":"m 144 98 q 94 158 144 98 q 43 395 43 218 q 144 692 43 571 q 407 814 245 814 q 670 693 570 814 q 770 396 770 572 q 669 99 770 220 q 407 -22 568 -22 q 144 98 245 -22 m 168 396 q 233 183 168 271 q 407 95 298 95 q 581 182 515 95 q 646 396 646 270 q 581 608 646 518 q 407 697 517 697 q 233 608 298 697 q 168 396 168 519 m 241 899 l 241 1055 l 372 1055 l 372 899 l 241 899 m 442 899 l 442 1055 l 572 1055 l 572 899 l 442 899 z "},"×":{"ha":814,"x_min":129,"x_max":685,"o":"m 491 429 l 685 235 l 601 152 l 407 346 l 213 152 l 129 235 l 323 429 l 129 623 l 213 707 l 407 513 l 601 707 l 685 623 l 491 429 z "},"Ø":{"ha":814,"x_min":43,"x_max":770,"o":"m 666 808 l 754 743 l 693 662 q 770 396 770 541 q 669 98 770 217 q 408 -22 568 -22 q 210 39 290 -22 l 148 -41 l 60 27 l 130 117 q 43 397 43 225 q 144 692 43 571 q 406 814 244 814 q 617 743 529 814 l 666 808 m 612 557 l 282 133 q 408 95 326 95 q 578 179 509 95 q 648 400 648 263 q 612 557 648 476 m 210 220 l 544 650 q 407 697 484 697 q 233 607 297 697 q 168 399 168 517 q 210 220 168 294 z "},"Ù":{"ha":814,"x_min":20,"x_max":793,"o":"m 20 791 l 365 791 l 365 680 l 232 680 l 232 334 q 233 263 232 289 q 244 201 235 237 q 271 144 254 164 q 323 110 289 125 q 407 95 358 95 q 490 110 456 95 q 543 144 525 125 q 570 201 560 164 q 581 263 579 237 q 582 334 582 289 l 582 680 l 449 680 l 449 791 l 793 791 l 793 680 l 700 680 l 700 334 q 651 92 700 163 q 553 2 606 26 q 407 -22 500 -22 q 271 5 338 -22 q 163 92 203 31 q 114 334 114 164 l 114 680 l 20 680 l 20 791 m 212 1042 l 212 1047 l 414 1047 l 556 914 l 438 914 l 212 1042 z "},"Ú":{"ha":814,"x_min":20,"x_max":793,"o":"m 20 791 l 365 791 l 365 680 l 232 680 l 232 334 q 233 263 232 289 q 244 201 235 237 q 271 144 254 164 q 323 110 289 125 q 407 95 358 95 q 490 110 456 95 q 543 144 525 125 q 570 201 560 164 q 581 263 579 237 q 582 334 582 289 l 582 680 l 449 680 l 449 791 l 793 791 l 793 680 l 700 680 l 700 334 q 651 92 700 163 q 553 2 606 26 q 407 -22 500 -22 q 271 5 338 -22 q 163 92 203 31 q 114 334 114 164 l 114 680 l 20 680 l 20 791 m 629 1042 l 403 914 l 285 914 l 427 1047 l 629 1047 l 629 1042 z "},"Û":{"ha":814,"x_min":20,"x_max":793,"o":"m 20 791 l 365 791 l 365 680 l 232 680 l 232 334 q 233 263 232 289 q 244 201 235 237 q 271 144 254 164 q 323 110 289 125 q 407 95 358 95 q 490 110 456 95 q 543 144 525 125 q 570 201 560 164 q 581 263 579 237 q 582 334 582 289 l 582 680 l 449 680 l 449 791 l 793 791 l 793 680 l 700 680 l 700 334 q 651 92 700 163 q 553 2 606 26 q 407 -22 500 -22 q 271 5 338 -22 q 163 92 203 31 q 114 334 114 164 l 114 680 l 20 680 l 20 791 m 346 1061 l 463 1061 l 595 945 l 525 902 l 401 967 l 292 902 l 220 945 l 346 1061 z "},"Ü":{"ha":814,"x_min":20,"x_max":793,"o":"m 20 791 l 365 791 l 365 680 l 232 680 l 232 334 q 233 263 232 289 q 244 201 235 237 q 271 144 254 164 q 323 110 289 125 q 407 95 358 95 q 490 110 456 95 q 543 144 525 125 q 570 201 560 164 q 581 263 579 237 q 582 334 582 289 l 582 680 l 449 680 l 449 791 l 793 791 l 793 680 l 700 680 l 700 334 q 651 92 700 163 q 553 2 606 26 q 407 -22 500 -22 q 271 5 338 -22 q 163 92 203 31 q 114 334 114 164 l 114 680 l 20 680 l 20 791 m 241 899 l 241 1055 l 372 1055 l 372 899 l 241 899 m 442 899 l 442 1055 l 572 1055 l 572 899 l 442 899 z "},"Ý":{"ha":814,"x_min":28,"x_max":785,"o":"m 28 791 l 339 791 l 339 680 l 260 680 l 411 429 l 559 680 l 477 680 l 477 791 l 785 791 l 785 680 l 690 680 l 467 304 l 467 111 l 621 111 l 621 0 l 193 0 l 193 111 l 350 111 l 350 304 l 123 680 l 28 680 l 28 791 m 629 1042 l 403 914 l 285 914 l 427 1047 l 629 1047 l 629 1042 z "},"Þ":{"ha":814,"x_min":110,"x_max":768,"o":"m 332 624 l 434 624 q 503 623 477 624 q 574 616 528 621 q 648 595 620 610 q 707 557 677 581 q 753 492 738 533 q 768 396 768 450 q 741 280 768 334 q 663 205 713 227 q 567 180 623 187 q 380 174 511 174 l 332 174 l 332 111 l 499 111 l 499 0 l 110 0 l 110 111 l 214 111 l 214 680 l 110 680 l 110 791 l 499 791 l 499 680 l 332 680 l 332 624 m 450 519 l 332 519 l 332 277 l 420 277 q 602 298 547 277 q 656 396 656 320 q 638 467 656 439 q 583 505 620 494 q 521 517 547 515 q 450 519 495 519 z "},"ß":{"ha":814,"x_min":72,"x_max":712,"o":"m 72 111 l 172 111 l 172 614 q 240 801 172 730 q 412 872 308 872 q 567 808 510 872 q 624 656 624 745 q 544 498 624 557 q 712 239 712 427 q 656 52 712 123 q 496 -19 600 -19 q 340 47 399 -19 l 340 176 q 486 99 418 99 q 543 116 519 99 q 574 161 566 133 q 585 208 582 190 q 587 243 587 225 q 340 429 587 420 l 340 540 q 502 658 502 548 q 478 727 502 701 q 410 753 454 753 q 318 711 346 753 q 290 608 290 670 l 290 0 l 72 0 l 72 111 z "},"à":{"ha":814,"x_min":65,"x_max":761,"o":"m 644 416 l 644 111 l 761 111 l 761 0 l 526 0 l 526 65 q 302 -19 411 -19 q 132 45 199 -19 q 65 193 65 110 q 80 262 65 227 q 127 334 95 298 q 224 393 160 370 q 372 416 288 416 q 526 406 429 416 q 524 446 526 431 q 510 482 521 460 q 470 515 499 505 q 393 526 441 526 q 156 464 300 526 l 110 572 q 395 643 282 643 q 583 584 521 643 q 644 416 644 525 m 526 220 l 526 290 q 385 305 422 305 q 292 294 331 305 q 233 270 252 283 q 202 238 213 256 q 189 210 191 220 q 187 191 187 199 q 222 126 187 155 q 301 98 256 98 q 526 220 416 98 m 212 865 l 212 871 l 414 871 l 556 738 l 438 738 l 212 865 z "},"á":{"ha":814,"x_min":65,"x_max":761,"o":"m 644 416 l 644 111 l 761 111 l 761 0 l 526 0 l 526 65 q 302 -19 411 -19 q 132 45 199 -19 q 65 193 65 110 q 80 262 65 227 q 127 334 95 298 q 224 393 160 370 q 372 416 288 416 q 526 406 429 416 q 524 446 526 431 q 510 482 521 460 q 470 515 499 505 q 393 526 441 526 q 156 464 300 526 l 110 572 q 395 643 282 643 q 583 584 521 643 q 644 416 644 525 m 526 220 l 526 290 q 385 305 422 305 q 292 294 331 305 q 233 270 252 283 q 202 238 213 256 q 189 210 191 220 q 187 191 187 199 q 222 126 187 155 q 301 98 256 98 q 526 220 416 98 m 629 865 l 403 738 l 285 738 l 427 871 l 629 871 l 629 865 z "},"â":{"ha":814,"x_min":65,"x_max":761,"o":"m 644 416 l 644 111 l 761 111 l 761 0 l 526 0 l 526 65 q 302 -19 411 -19 q 132 45 199 -19 q 65 193 65 110 q 80 262 65 227 q 127 334 95 298 q 224 393 160 370 q 372 416 288 416 q 526 406 429 416 q 524 446 526 431 q 510 482 521 460 q 470 515 499 505 q 393 526 441 526 q 156 464 300 526 l 110 572 q 395 643 282 643 q 583 584 521 643 q 644 416 644 525 m 526 220 l 526 290 q 385 305 422 305 q 292 294 331 305 q 233 270 252 283 q 202 238 213 256 q 189 210 191 220 q 187 191 187 199 q 222 126 187 155 q 301 98 256 98 q 526 220 416 98 m 346 884 l 463 884 l 595 769 l 525 726 l 401 791 l 292 726 l 220 769 l 346 884 z "},"ã":{"ha":814,"x_min":65,"x_max":761,"o":"m 644 416 l 644 111 l 761 111 l 761 0 l 526 0 l 526 65 q 302 -19 411 -19 q 132 45 199 -19 q 65 193 65 110 q 80 262 65 227 q 127 334 95 298 q 224 393 160 370 q 372 416 288 416 q 526 406 429 416 q 524 446 526 431 q 510 482 521 460 q 470 515 499 505 q 393 526 441 526 q 156 464 300 526 l 110 572 q 395 643 282 643 q 583 584 521 643 q 644 416 644 525 m 526 220 l 526 290 q 385 305 422 305 q 292 294 331 305 q 233 270 252 283 q 202 238 213 256 q 189 210 191 220 q 187 191 187 199 q 222 126 187 155 q 301 98 256 98 q 526 220 416 98 m 552 895 l 646 867 q 629 821 636 838 q 603 777 621 804 q 555 736 585 750 q 486 722 525 722 q 380 762 438 722 q 321 792 338 792 q 267 730 290 792 q 264 724 266 730 q 262 719 263 719 l 168 750 q 187 797 179 780 q 214 840 195 814 q 259 880 232 867 q 321 892 286 892 q 431 849 369 892 q 491 821 468 821 q 525 838 513 821 q 552 895 537 856 z "},"ä":{"ha":814,"x_min":65,"x_max":761,"o":"m 644 416 l 644 111 l 761 111 l 761 0 l 526 0 l 526 65 q 302 -19 411 -19 q 132 45 199 -19 q 65 193 65 110 q 80 262 65 227 q 127 334 95 298 q 224 393 160 370 q 372 416 288 416 q 526 406 429 416 q 524 446 526 431 q 510 482 521 460 q 470 515 499 505 q 393 526 441 526 q 156 464 300 526 l 110 572 q 395 643 282 643 q 583 584 521 643 q 644 416 644 525 m 526 220 l 526 290 q 385 305 422 305 q 292 294 331 305 q 233 270 252 283 q 202 238 213 256 q 189 210 191 220 q 187 191 187 199 q 222 126 187 155 q 301 98 256 98 q 526 220 416 98 m 241 723 l 241 879 l 372 879 l 372 723 l 241 723 m 442 723 l 442 879 l 572 879 l 572 723 l 442 723 z "},"å":{"ha":814,"x_min":65,"x_max":761,"o":"m 644 416 l 644 111 l 761 111 l 761 0 l 526 0 l 526 65 q 302 -19 411 -19 q 132 45 199 -19 q 65 193 65 110 q 80 262 65 227 q 127 334 95 298 q 224 393 160 370 q 372 416 288 416 q 526 406 429 416 q 524 446 526 431 q 510 482 521 460 q 470 515 499 505 q 393 526 441 526 q 156 464 300 526 l 110 572 q 395 643 282 643 q 583 584 521 643 q 644 416 644 525 m 526 220 l 526 290 q 385 305 422 305 q 292 294 331 305 q 233 270 252 283 q 202 238 213 256 q 189 210 191 220 q 187 191 187 199 q 222 126 187 155 q 301 98 256 98 q 526 220 416 98 m 492 905 q 510 887 492 905 q 528 819 528 869 q 492 734 528 769 q 407 700 457 700 q 322 734 357 700 q 288 819 288 769 q 322 905 288 869 q 407 940 357 940 q 492 905 457 940 m 450 819 q 438 850 450 838 q 407 863 426 863 q 376 850 389 863 q 363 819 363 837 q 376 789 363 802 q 407 776 389 776 q 437 789 425 776 q 450 819 450 802 z "},"æ":{"ha":814,"x_min":11,"x_max":800,"o":"m 788 269 l 456 269 q 494 140 465 182 q 605 98 524 98 q 757 132 673 98 l 800 26 q 792 22 799 24 q 788 20 789 20 q 591 -19 670 -19 q 410 68 476 -19 q 209 -19 304 -19 q 64 40 117 -19 q 11 176 11 99 q 73 328 11 258 q 247 397 136 397 q 338 389 273 397 q 324 498 338 469 q 266 526 311 526 q 83 481 199 526 l 47 591 q 271 643 180 643 q 346 631 315 643 q 391 606 377 618 q 420 570 404 593 q 579 643 483 643 q 730 572 667 643 q 793 358 793 502 q 788 269 793 309 m 338 149 l 338 279 q 250 286 270 286 q 163 257 193 286 q 133 174 133 228 q 149 120 133 142 q 201 98 165 98 q 338 149 263 98 m 456 380 l 675 380 q 671 426 674 407 q 659 471 667 445 q 629 512 650 498 q 575 526 608 526 q 522 515 545 526 q 488 489 499 503 q 469 450 476 475 q 459 413 461 426 q 456 380 457 400 z "},"ç":{"ha":814,"x_min":80,"x_max":769,"o":"m 484 -12 l 484 -24 q 585 -138 585 -49 q 552 -218 585 -189 q 453 -248 519 -248 q 278 -222 378 -248 l 293 -129 q 449 -153 423 -153 q 473 -137 473 -153 q 434 -114 473 -121 q 419 -112 431 -114 q 392 -108 407 -110 q 374 -106 377 -106 l 385 -18 q 161 91 241 -5 q 80 309 80 187 q 170 537 80 438 q 411 636 259 636 q 604 562 515 636 l 616 636 l 722 625 q 713 490 713 552 q 722 370 713 433 l 608 355 q 595 418 601 397 q 573 467 590 439 q 521 507 556 495 q 430 519 486 519 q 314 496 362 519 q 244 436 266 472 q 214 369 222 400 q 205 311 205 338 q 258 164 205 229 q 420 99 312 99 q 704 221 532 99 l 769 129 q 484 -12 609 8 z "},"è":{"ha":814,"x_min":83,"x_max":781,"o":"m 727 195 l 781 91 q 430 -19 591 -19 q 175 75 267 -19 q 83 304 83 168 q 176 537 83 441 q 420 633 269 633 q 657 545 571 633 q 743 346 743 456 q 739 263 743 300 l 208 263 q 223 215 214 235 q 254 164 232 195 q 321 115 277 133 q 427 98 366 98 q 727 195 562 98 m 216 374 l 618 374 q 422 517 581 517 q 216 374 269 517 m 239 865 l 239 871 l 441 871 l 583 738 l 465 738 l 239 865 z "},"é":{"ha":814,"x_min":83,"x_max":781,"o":"m 727 195 l 781 91 q 430 -19 591 -19 q 175 75 267 -19 q 83 304 83 168 q 176 537 83 441 q 420 633 269 633 q 657 545 571 633 q 743 346 743 456 q 739 263 743 300 l 208 263 q 223 215 214 235 q 254 164 232 195 q 321 115 277 133 q 427 98 366 98 q 727 195 562 98 m 216 374 l 618 374 q 422 517 581 517 q 216 374 269 517 m 629 865 l 403 738 l 285 738 l 427 871 l 629 871 l 629 865 z "},"ê":{"ha":814,"x_min":83,"x_max":781,"o":"m 727 195 l 781 91 q 430 -19 591 -19 q 175 75 267 -19 q 83 304 83 168 q 176 537 83 441 q 420 633 269 633 q 657 545 571 633 q 743 346 743 456 q 739 263 743 300 l 208 263 q 223 215 214 235 q 254 164 232 195 q 321 115 277 133 q 427 98 366 98 q 727 195 562 98 m 216 374 l 618 374 q 422 517 581 517 q 216 374 269 517 m 346 884 l 463 884 l 595 769 l 525 726 l 401 791 l 292 726 l 220 769 l 346 884 z "},"ë":{"ha":814,"x_min":83,"x_max":781,"o":"m 727 195 l 781 91 q 430 -19 591 -19 q 175 75 267 -19 q 83 304 83 168 q 176 537 83 441 q 420 633 269 633 q 657 545 571 633 q 743 346 743 456 q 739 263 743 300 l 208 263 q 223 215 214 235 q 254 164 232 195 q 321 115 277 133 q 427 98 366 98 q 727 195 562 98 m 216 374 l 618 374 q 422 517 581 517 q 216 374 269 517 m 241 723 l 241 879 l 372 879 l 372 723 l 241 723 m 442 723 l 442 879 l 572 879 l 572 723 l 442 723 z "},"ì":{"ha":814,"x_min":119,"x_max":694,"o":"m 156 614 l 468 614 l 468 111 l 694 111 l 694 0 l 119 0 l 119 111 l 350 111 l 350 503 l 156 503 l 156 614 m 212 865 l 212 871 l 414 871 l 556 738 l 438 738 l 212 865 z "},"í":{"ha":814,"x_min":119,"x_max":694,"o":"m 156 614 l 468 614 l 468 111 l 694 111 l 694 0 l 119 0 l 119 111 l 350 111 l 350 503 l 156 503 l 156 614 m 629 865 l 403 738 l 285 738 l 427 871 l 629 871 l 629 865 z "},"î":{"ha":814,"x_min":119,"x_max":694,"o":"m 156 614 l 468 614 l 468 111 l 694 111 l 694 0 l 119 0 l 119 111 l 350 111 l 350 503 l 156 503 l 156 614 m 346 884 l 463 884 l 595 769 l 525 726 l 401 791 l 292 726 l 220 769 l 346 884 z "},"ï":{"ha":814,"x_min":119,"x_max":694,"o":"m 156 614 l 468 614 l 468 111 l 694 111 l 694 0 l 119 0 l 119 111 l 350 111 l 350 503 l 156 503 l 156 614 m 241 723 l 241 879 l 372 879 l 372 723 l 241 723 m 442 723 l 442 879 l 572 879 l 572 723 l 442 723 z "},"ð":{"ha":814,"x_min":57,"x_max":757,"o":"m 339 895 l 396 987 l 483 929 l 429 850 l 450 837 q 536 777 507 799 q 608 709 566 755 q 681 606 650 663 q 757 315 757 461 q 663 76 757 171 q 407 -19 568 -19 q 150 78 243 -19 q 57 309 57 175 q 157 547 57 456 q 395 639 256 639 q 563 590 492 639 l 566 593 q 363 766 495 688 l 293 654 l 202 705 l 271 811 q 122 869 201 844 l 171 960 q 339 895 251 939 m 239 465 q 208 432 239 465 q 178 309 178 400 q 239 154 178 218 q 407 90 300 90 q 576 155 515 90 q 636 309 636 221 q 576 463 636 397 q 407 529 515 529 q 239 465 300 529 z "},"ñ":{"ha":814,"x_min":28,"x_max":788,"o":"m 31 614 l 259 614 l 259 557 q 456 633 368 633 q 617 566 556 633 q 678 389 678 498 l 678 111 l 788 111 l 788 0 l 446 0 l 446 111 l 560 111 l 560 384 q 533 479 560 441 q 458 517 506 517 q 382 500 423 517 q 323 470 342 483 q 259 425 304 457 l 259 111 l 362 111 l 362 0 l 28 0 l 28 111 l 141 111 l 141 503 l 31 503 l 31 614 m 552 895 l 646 867 q 629 821 636 838 q 603 777 621 804 q 555 736 585 750 q 486 722 525 722 q 380 762 438 722 q 321 792 338 792 q 267 730 290 792 q 264 724 266 730 q 262 719 263 719 l 168 750 q 187 797 179 780 q 214 840 195 814 q 259 880 232 867 q 321 892 286 892 q 431 849 369 892 q 491 821 468 821 q 525 838 513 821 q 552 895 537 856 z "},"ò":{"ha":814,"x_min":56,"x_max":758,"o":"m 56 312 q 151 547 56 452 q 407 643 247 643 q 664 545 570 643 q 758 312 758 448 q 666 80 758 179 q 407 -19 574 -19 q 149 79 243 -19 q 56 312 56 176 m 180 312 q 241 161 180 224 q 407 98 301 98 q 574 161 515 98 q 633 312 633 225 q 574 463 633 399 q 407 526 515 526 q 240 464 300 526 q 180 312 180 401 m 212 865 l 212 871 l 414 871 l 556 738 l 438 738 l 212 865 z "},"ó":{"ha":814,"x_min":56,"x_max":758,"o":"m 56 312 q 151 547 56 452 q 407 643 247 643 q 664 545 570 643 q 758 312 758 448 q 666 80 758 179 q 407 -19 574 -19 q 149 79 243 -19 q 56 312 56 176 m 180 312 q 241 161 180 224 q 407 98 301 98 q 574 161 515 98 q 633 312 633 225 q 574 463 633 399 q 407 526 515 526 q 240 464 300 526 q 180 312 180 401 m 629 865 l 403 738 l 285 738 l 427 871 l 629 871 l 629 865 z "},"ô":{"ha":814,"x_min":56,"x_max":758,"o":"m 56 312 q 151 547 56 452 q 407 643 247 643 q 664 545 570 643 q 758 312 758 448 q 666 80 758 179 q 407 -19 574 -19 q 149 79 243 -19 q 56 312 56 176 m 180 312 q 241 161 180 224 q 407 98 301 98 q 574 161 515 98 q 633 312 633 225 q 574 463 633 399 q 407 526 515 526 q 240 464 300 526 q 180 312 180 401 m 346 884 l 463 884 l 595 769 l 525 726 l 401 791 l 292 726 l 220 769 l 346 884 z "},"õ":{"ha":814,"x_min":56,"x_max":758,"o":"m 56 312 q 151 547 56 452 q 407 643 247 643 q 664 545 570 643 q 758 312 758 448 q 666 80 758 179 q 407 -19 574 -19 q 149 79 243 -19 q 56 312 56 176 m 180 312 q 241 161 180 224 q 407 98 301 98 q 574 161 515 98 q 633 312 633 225 q 574 463 633 399 q 407 526 515 526 q 240 464 300 526 q 180 312 180 401 m 552 895 l 646 867 q 629 821 636 838 q 603 777 621 804 q 555 736 585 750 q 486 722 525 722 q 380 762 438 722 q 321 792 338 792 q 267 730 290 792 q 264 724 266 730 q 262 719 263 719 l 168 750 q 187 797 179 780 q 214 840 195 814 q 259 880 232 867 q 321 892 286 892 q 431 849 369 892 q 491 821 468 821 q 525 838 513 821 q 552 895 537 856 z "},"ö":{"ha":814,"x_min":56,"x_max":758,"o":"m 56 312 q 151 547 56 452 q 407 643 247 643 q 664 545 570 643 q 758 312 758 448 q 666 80 758 179 q 407 -19 574 -19 q 149 79 243 -19 q 56 312 56 176 m 180 312 q 241 161 180 224 q 407 98 301 98 q 574 161 515 98 q 633 312 633 225 q 574 463 633 399 q 407 526 515 526 q 240 464 300 526 q 180 312 180 401 m 241 723 l 241 879 l 372 879 l 372 723 l 241 723 m 442 723 l 442 879 l 572 879 l 572 723 l 442 723 z "},"÷":{"ha":814,"x_min":73,"x_max":741,"o":"m 346 720 q 358 733 346 720 q 407 746 370 746 q 468 721 444 746 q 492 661 492 696 q 468 601 492 627 q 407 575 444 575 q 346 601 370 575 q 321 661 321 627 q 346 720 321 694 m 73 484 l 741 484 l 741 365 l 73 365 l 73 484 m 346 250 q 358 262 346 250 q 407 274 370 274 q 468 249 444 274 q 492 190 492 224 q 468 129 492 155 q 407 103 444 103 q 346 129 370 103 q 321 190 321 155 q 346 250 321 225 z "},"ø":{"ha":814,"x_min":56,"x_max":758,"o":"m 206 37 l 140 -33 l 68 37 l 129 100 q 56 313 56 190 q 151 547 56 450 q 406 643 247 643 q 612 589 526 643 l 673 650 l 746 576 l 689 519 q 758 313 758 430 q 666 79 758 178 q 407 -19 574 -19 q 206 37 292 -19 m 600 430 l 294 122 q 408 98 327 98 q 574 161 514 98 q 633 313 633 225 q 632 343 633 330 q 629 366 631 357 q 622 385 627 374 q 616 400 617 396 q 608 416 614 404 q 600 430 601 427 m 217 189 l 526 498 q 406 526 472 526 q 240 463 300 526 q 180 313 180 400 q 217 189 180 247 z "},"ù":{"ha":814,"x_min":30,"x_max":768,"o":"m 30 614 l 254 614 l 254 243 q 365 98 254 98 q 439 115 403 98 q 491 147 475 133 q 544 198 507 161 l 544 503 l 433 503 l 433 614 l 662 614 l 662 111 l 768 111 l 768 0 l 544 0 l 544 42 q 366 -19 458 -19 q 267 1 315 -19 q 191 54 218 20 q 136 243 136 123 l 136 503 l 30 503 l 30 614 m 212 865 l 212 871 l 414 871 l 556 738 l 438 738 l 212 865 z "},"ú":{"ha":814,"x_min":30,"x_max":768,"o":"m 30 614 l 254 614 l 254 243 q 365 98 254 98 q 439 115 403 98 q 491 147 475 133 q 544 198 507 161 l 544 503 l 433 503 l 433 614 l 662 614 l 662 111 l 768 111 l 768 0 l 544 0 l 544 42 q 366 -19 458 -19 q 267 1 315 -19 q 191 54 218 20 q 136 243 136 123 l 136 503 l 30 503 l 30 614 m 629 865 l 403 738 l 285 738 l 427 871 l 629 871 l 629 865 z "},"û":{"ha":814,"x_min":30,"x_max":768,"o":"m 30 614 l 254 614 l 254 243 q 365 98 254 98 q 439 115 403 98 q 491 147 475 133 q 544 198 507 161 l 544 503 l 433 503 l 433 614 l 662 614 l 662 111 l 768 111 l 768 0 l 544 0 l 544 42 q 366 -19 458 -19 q 267 1 315 -19 q 191 54 218 20 q 136 243 136 123 l 136 503 l 30 503 l 30 614 m 346 884 l 463 884 l 595 769 l 525 726 l 401 791 l 292 726 l 220 769 l 346 884 z "},"ü":{"ha":814,"x_min":30,"x_max":768,"o":"m 30 614 l 254 614 l 254 243 q 365 98 254 98 q 439 115 403 98 q 491 147 475 133 q 544 198 507 161 l 544 503 l 433 503 l 433 614 l 662 614 l 662 111 l 768 111 l 768 0 l 544 0 l 544 42 q 366 -19 458 -19 q 267 1 315 -19 q 191 54 218 20 q 136 243 136 123 l 136 503 l 30 503 l 30 614 m 241 723 l 241 879 l 372 879 l 372 723 l 241 723 m 442 723 l 442 879 l 572 879 l 572 723 l 442 723 z "},"ý":{"ha":814,"x_min":19,"x_max":811,"o":"m 19 614 l 316 614 l 316 503 l 243 503 l 408 186 l 590 503 l 519 503 l 519 614 l 811 614 l 811 503 l 726 503 l 385 -90 l 487 -90 l 487 -201 l 39 -201 l 39 -90 l 250 -90 l 339 64 l 109 503 l 19 503 l 19 614 m 629 865 l 403 738 l 285 738 l 427 871 l 629 871 l 629 865 z "},"þ":{"ha":814,"x_min":-1,"x_max":758,"o":"m -1 842 l 239 856 l 239 563 q 441 633 321 633 q 669 537 581 633 q 758 315 758 441 q 661 83 758 175 q 442 -9 564 -9 q 239 65 327 -9 l 239 -95 l 434 -95 l 434 -206 l 14 -206 l 14 -95 l 121 -95 l 121 735 l 12 728 l -1 842 m 233 317 q 298 164 233 221 q 439 107 363 107 q 576 167 519 107 q 633 315 633 227 q 583 456 633 395 q 441 517 533 517 q 292 458 351 517 q 233 317 233 399 z "},"ÿ":{"ha":814,"x_min":19,"x_max":811,"o":"m 19 614 l 316 614 l 316 503 l 243 503 l 408 186 l 590 503 l 519 503 l 519 614 l 811 614 l 811 503 l 726 503 l 385 -90 l 487 -90 l 487 -201 l 39 -201 l 39 -90 l 250 -90 l 339 64 l 109 503 l 19 503 l 19 614 m 241 723 l 241 879 l 372 879 l 372 723 l 241 723 m 442 723 l 442 879 l 572 879 l 572 723 l 442 723 z "},"Ā":{"ha":814,"x_min":0,"x_max":814,"o":"m 136 791 l 463 791 l 738 111 l 814 111 l 814 0 l 492 0 l 492 111 l 612 111 l 559 244 l 254 244 l 201 111 l 321 111 l 321 0 l 0 0 l 0 111 l 79 111 l 311 680 l 136 680 l 136 791 m 515 355 l 407 614 l 300 355 l 515 355 m 175 1038 l 639 1038 l 639 922 l 175 922 l 175 1038 z "},"ā":{"ha":814,"x_min":65,"x_max":761,"o":"m 644 416 l 644 111 l 761 111 l 761 0 l 526 0 l 526 65 q 302 -19 411 -19 q 132 45 199 -19 q 65 193 65 110 q 80 262 65 227 q 127 334 95 298 q 224 393 160 370 q 372 416 288 416 q 526 406 429 416 q 524 446 526 431 q 510 482 521 460 q 470 515 499 505 q 393 526 441 526 q 156 464 300 526 l 110 572 q 395 643 282 643 q 583 584 521 643 q 644 416 644 525 m 526 220 l 526 290 q 385 305 422 305 q 292 294 331 305 q 233 270 252 283 q 202 238 213 256 q 189 210 191 220 q 187 191 187 199 q 222 126 187 155 q 301 98 256 98 q 526 220 416 98 m 175 861 l 639 861 l 639 746 l 175 746 l 175 861 z "},"Ă":{"ha":814,"x_min":0,"x_max":814,"o":"m 136 791 l 463 791 l 738 111 l 814 111 l 814 0 l 492 0 l 492 111 l 612 111 l 559 244 l 254 244 l 201 111 l 321 111 l 321 0 l 0 0 l 0 111 l 79 111 l 311 680 l 136 680 l 136 791 m 515 355 l 407 614 l 300 355 l 515 355 m 165 1074 l 271 1074 q 407 978 301 978 q 543 1074 514 978 l 648 1074 q 644 1058 648 1066 q 599 968 629 1005 q 531 914 568 930 q 464 892 494 898 q 407 886 434 886 q 198 990 269 886 q 165 1074 180 1017 z "},"ă":{"ha":814,"x_min":65,"x_max":761,"o":"m 644 416 l 644 111 l 761 111 l 761 0 l 526 0 l 526 65 q 302 -19 411 -19 q 132 45 199 -19 q 65 193 65 110 q 80 262 65 227 q 127 334 95 298 q 224 393 160 370 q 372 416 288 416 q 526 406 429 416 q 524 446 526 431 q 510 482 521 460 q 470 515 499 505 q 393 526 441 526 q 156 464 300 526 l 110 572 q 395 643 282 643 q 583 584 521 643 q 644 416 644 525 m 526 220 l 526 290 q 385 305 422 305 q 292 294 331 305 q 233 270 252 283 q 202 238 213 256 q 189 210 191 220 q 187 191 187 199 q 222 126 187 155 q 301 98 256 98 q 526 220 416 98 m 165 898 l 271 898 q 407 802 301 802 q 543 898 514 802 l 648 898 q 644 882 648 890 q 599 791 629 829 q 531 738 568 754 q 464 715 494 722 q 407 709 434 709 q 198 814 269 709 q 165 898 180 841 z "},"Ą":{"ha":814,"x_min":0,"x_max":814,"o":"m 776 -66 l 755 -156 q 631 -195 696 -195 q 545 -167 579 -195 q 510 -98 510 -138 q 579 -3 510 -39 l 579 0 l 492 0 l 492 111 l 612 111 l 559 244 l 254 244 l 201 111 l 321 111 l 321 0 l 0 0 l 0 111 l 79 111 l 311 680 l 136 680 l 136 791 l 463 791 l 738 111 l 814 111 l 814 0 l 760 0 q 673 -30 713 -9 q 632 -75 632 -50 q 645 -98 632 -90 q 674 -106 658 -106 q 776 -66 708 -106 m 515 355 l 407 614 l 300 355 l 515 355 z "},"ą":{"ha":814,"x_min":65,"x_max":761,"o":"m 761 111 l 761 0 l 713 0 q 627 -31 669 -9 q 586 -75 586 -53 q 599 -98 586 -90 q 628 -106 612 -106 q 730 -66 661 -106 l 709 -156 q 585 -195 650 -195 q 497 -167 532 -195 q 463 -98 463 -138 q 533 -3 463 -35 l 533 0 l 526 0 l 526 65 q 302 -19 411 -19 q 132 45 199 -19 q 65 193 65 110 q 80 262 65 227 q 127 334 95 298 q 224 393 160 370 q 372 416 288 416 q 526 406 429 416 q 524 446 526 431 q 510 482 521 460 q 470 515 499 505 q 393 526 441 526 q 156 464 300 526 l 110 572 q 395 643 282 643 q 583 584 521 643 q 644 416 644 525 l 644 111 l 761 111 m 526 220 l 526 290 q 385 305 422 305 q 292 294 331 305 q 233 270 252 283 q 202 238 213 256 q 189 210 191 220 q 187 191 187 199 q 222 126 187 155 q 301 98 256 98 q 526 220 415 98 z "},"Ć":{"ha":814,"x_min":71,"x_max":829,"o":"m 750 241 l 829 155 q 452 -22 647 -22 q 174 100 277 -22 q 71 404 71 222 q 181 702 71 590 q 426 814 292 814 q 511 800 472 814 q 571 770 551 785 q 623 728 591 755 l 631 804 l 743 804 q 736 673 736 719 q 750 503 736 595 l 637 488 q 628 545 632 525 q 610 598 624 564 q 578 650 597 632 q 526 683 560 669 q 445 697 491 697 q 269 619 342 697 q 195 406 195 541 q 260 186 195 277 q 450 95 326 95 q 579 123 514 95 q 676 177 644 152 q 750 241 708 202 m 629 1042 l 403 914 l 285 914 l 427 1047 l 629 1047 l 629 1042 z "},"ć":{"ha":814,"x_min":80,"x_max":769,"o":"m 616 633 l 722 623 q 713 487 713 549 q 722 368 713 430 l 608 353 q 595 416 601 395 q 573 465 590 437 q 521 505 556 492 q 430 517 486 517 q 314 493 362 517 q 244 433 266 469 q 214 366 222 397 q 205 308 205 335 q 258 162 205 227 q 420 98 312 98 q 525 119 469 98 q 616 163 581 141 q 704 221 652 184 l 769 129 q 415 -19 576 -19 q 174 75 269 -19 q 80 307 80 168 q 170 534 80 435 q 411 633 259 633 q 604 559 515 633 l 616 633 m 629 865 l 403 738 l 285 738 l 427 871 l 629 871 l 629 865 z "},"Ĉ":{"ha":814,"x_min":71,"x_max":829,"o":"m 750 241 l 829 155 q 452 -22 647 -22 q 174 100 277 -22 q 71 404 71 222 q 181 702 71 590 q 426 814 292 814 q 511 800 472 814 q 571 770 551 785 q 623 728 591 755 l 631 804 l 743 804 q 736 673 736 719 q 750 503 736 595 l 637 488 q 628 545 632 525 q 610 598 624 564 q 578 650 597 632 q 526 683 560 669 q 445 697 491 697 q 269 619 342 697 q 195 406 195 541 q 260 186 195 277 q 450 95 326 95 q 579 123 514 95 q 676 177 644 152 q 750 241 708 202 m 370 1061 l 487 1061 l 620 945 l 549 902 l 426 967 l 316 902 l 244 945 l 370 1061 z "},"ĉ":{"ha":814,"x_min":80,"x_max":769,"o":"m 616 633 l 722 623 q 713 487 713 549 q 722 368 713 430 l 608 353 q 595 416 601 395 q 573 465 590 437 q 521 505 556 492 q 430 517 486 517 q 314 493 362 517 q 244 433 266 469 q 214 366 222 397 q 205 308 205 335 q 258 162 205 227 q 420 98 312 98 q 525 119 469 98 q 616 163 581 141 q 704 221 652 184 l 769 129 q 415 -19 576 -19 q 174 75 269 -19 q 80 307 80 168 q 170 534 80 435 q 411 633 259 633 q 604 559 515 633 l 616 633 m 370 884 l 487 884 l 620 769 l 549 726 l 426 791 l 316 726 l 244 769 l 370 884 z "},"Ċ":{"ha":814,"x_min":71,"x_max":829,"o":"m 750 241 l 829 155 q 452 -22 647 -22 q 174 100 277 -22 q 71 404 71 222 q 181 702 71 590 q 426 814 292 814 q 511 800 472 814 q 571 770 551 785 q 623 728 591 755 l 631 804 l 743 804 q 736 673 736 719 q 750 503 736 595 l 637 488 q 628 545 632 525 q 610 598 624 564 q 578 650 597 632 q 526 683 560 669 q 445 697 491 697 q 269 619 342 697 q 195 406 195 541 q 260 186 195 277 q 450 95 326 95 q 579 123 514 95 q 676 177 644 152 q 750 241 708 202 m 342 899 l 342 1062 l 472 1062 l 472 899 l 342 899 z "},"ċ":{"ha":814,"x_min":80,"x_max":769,"o":"m 616 633 l 722 623 q 713 487 713 549 q 722 368 713 430 l 608 353 q 595 416 601 395 q 573 465 590 437 q 521 505 556 492 q 430 517 486 517 q 314 493 362 517 q 244 433 266 469 q 214 366 222 397 q 205 308 205 335 q 258 162 205 227 q 420 98 312 98 q 525 119 469 98 q 616 163 581 141 q 704 221 652 184 l 769 129 q 415 -19 576 -19 q 174 75 269 -19 q 80 307 80 168 q 170 534 80 435 q 411 633 259 633 q 604 559 515 633 l 616 633 m 342 723 l 342 886 l 472 886 l 472 723 l 342 723 z "},"Č":{"ha":814,"x_min":71,"x_max":829,"o":"m 750 241 l 829 155 q 452 -22 647 -22 q 174 100 277 -22 q 71 404 71 222 q 181 702 71 590 q 426 814 292 814 q 511 800 472 814 q 571 770 551 785 q 623 728 591 755 l 631 804 l 743 804 q 736 673 736 719 q 750 503 736 595 l 637 488 q 628 545 632 525 q 610 598 624 564 q 578 650 597 632 q 526 683 560 669 q 445 697 491 697 q 269 619 342 697 q 195 406 195 541 q 260 186 195 277 q 450 95 326 95 q 579 123 514 95 q 676 177 644 152 q 750 241 708 202 m 492 902 l 377 902 l 244 1017 l 313 1061 l 437 996 l 547 1061 l 618 1017 l 492 902 z "},"č":{"ha":814,"x_min":80,"x_max":769,"o":"m 616 633 l 722 623 q 713 487 713 549 q 722 368 713 430 l 608 353 q 595 416 601 395 q 573 465 590 437 q 521 505 556 492 q 430 517 486 517 q 314 493 362 517 q 244 433 266 469 q 214 366 222 397 q 205 308 205 335 q 258 162 205 227 q 420 98 312 98 q 525 119 469 98 q 616 163 581 141 q 704 221 652 184 l 769 129 q 415 -19 576 -19 q 174 75 269 -19 q 80 307 80 168 q 170 534 80 435 q 411 633 259 633 q 604 559 515 633 l 616 633 m 492 726 l 377 726 l 244 841 l 313 884 l 437 819 l 547 884 l 618 841 l 492 726 z "},"Ď":{"ha":814,"x_min":31,"x_max":761,"o":"m 31 791 l 385 791 q 555 770 488 791 q 675 682 621 750 q 761 408 761 575 q 646 83 761 195 q 381 0 560 0 l 31 0 l 31 111 l 136 111 l 136 680 l 31 680 l 31 791 m 387 680 l 254 680 l 254 111 l 381 111 q 559 167 503 111 q 636 407 636 244 q 583 604 636 528 q 509 666 551 652 q 387 680 467 680 m 468 902 l 353 902 l 220 1017 l 289 1061 l 412 996 l 522 1061 l 594 1017 l 468 902 z "},"ď":{"ha":814,"x_min":60,"x_max":802,"o":"m 368 850 l 692 879 l 692 111 l 802 111 l 802 0 l 574 0 l 574 57 q 376 -14 491 -14 q 151 81 243 -14 q 60 304 60 175 q 155 530 60 441 q 373 620 250 620 q 574 549 484 620 l 574 751 l 355 735 l 368 850 m 571 302 q 519 440 571 377 q 377 503 468 503 q 241 448 298 503 q 184 305 184 393 q 241 161 184 218 q 377 103 297 103 q 513 160 456 103 q 571 302 571 217 m 509 990 l 393 990 l 260 1105 l 330 1149 l 453 1084 l 563 1149 l 635 1105 l 509 990 z "},"đ":{"ha":814,"x_min":60,"x_max":802,"o":"m 692 708 l 802 708 l 802 624 l 692 624 l 692 111 l 802 111 l 802 0 l 574 0 l 574 53 q 515 17 536 28 q 457 -4 494 5 q 374 -14 420 -14 q 145 81 231 -14 q 60 289 60 175 q 153 503 60 415 q 369 590 245 590 q 574 517 483 590 l 574 624 l 256 624 l 256 708 l 574 708 l 574 764 l 355 747 l 368 848 l 692 879 l 692 708 m 571 294 q 522 426 571 363 q 382 488 473 488 q 243 432 301 488 q 184 286 184 376 q 239 146 184 203 q 376 88 293 88 q 491 127 444 88 q 555 210 538 165 q 571 294 571 254 z "},"Ē":{"ha":814,"x_min":61,"x_max":750,"o":"m 61 791 l 736 791 l 743 498 l 631 498 l 618 680 l 292 680 l 292 472 l 452 472 l 452 570 l 564 570 l 564 264 l 452 264 l 452 361 l 292 361 l 292 111 l 631 111 l 637 294 l 750 294 l 750 0 l 61 0 l 61 111 l 174 111 l 174 680 l 61 680 l 61 791 m 175 1038 l 639 1038 l 639 922 l 175 922 l 175 1038 z "},"ē":{"ha":814,"x_min":83,"x_max":781,"o":"m 727 195 l 781 91 q 430 -19 591 -19 q 175 75 267 -19 q 83 304 83 168 q 176 537 83 441 q 420 633 269 633 q 657 545 571 633 q 743 346 743 456 q 739 263 743 300 l 208 263 q 223 215 214 235 q 254 164 232 195 q 321 115 277 133 q 427 98 366 98 q 727 195 562 98 m 216 374 l 618 374 q 422 517 581 517 q 216 374 269 517 m 175 861 l 639 861 l 639 746 l 175 746 l 175 861 z "},"Ė":{"ha":814,"x_min":61,"x_max":750,"o":"m 61 791 l 736 791 l 743 498 l 631 498 l 618 680 l 292 680 l 292 472 l 452 472 l 452 570 l 564 570 l 564 264 l 452 264 l 452 361 l 292 361 l 292 111 l 631 111 l 637 294 l 750 294 l 750 0 l 61 0 l 61 111 l 174 111 l 174 680 l 61 680 l 61 791 m 342 899 l 342 1062 l 472 1062 l 472 899 l 342 899 z "},"ė":{"ha":814,"x_min":83,"x_max":781,"o":"m 727 195 l 781 91 q 430 -19 591 -19 q 175 75 267 -19 q 83 304 83 168 q 176 537 83 441 q 420 633 269 633 q 657 545 571 633 q 743 346 743 456 q 739 263 743 300 l 208 263 q 223 215 214 235 q 254 164 232 195 q 321 115 277 133 q 427 98 366 98 q 727 195 562 98 m 216 374 l 618 374 q 422 517 581 517 q 216 374 269 517 m 342 723 l 342 886 l 472 886 l 472 723 l 342 723 z "},"Ę":{"ha":814,"x_min":61,"x_max":750,"o":"m 750 -66 l 728 -156 q 604 -195 669 -195 q 517 -167 552 -195 q 483 -98 483 -138 q 553 -3 483 -39 l 553 0 l 61 0 l 61 111 l 174 111 l 174 680 l 61 680 l 61 791 l 736 791 l 743 498 l 631 498 l 618 680 l 292 680 l 292 472 l 452 472 l 452 570 l 564 570 l 564 264 l 452 264 l 452 361 l 292 361 l 292 111 l 631 111 l 637 294 l 750 294 l 750 0 l 734 0 q 647 -31 689 -9 q 605 -75 605 -53 q 648 -106 605 -106 q 750 -66 681 -106 z "},"ę":{"ha":814,"x_min":83,"x_max":781,"o":"m 586 -66 l 566 -156 q 441 -195 506 -195 q 353 -167 388 -195 q 319 -98 319 -138 q 368 -15 319 -53 q 155 96 228 4 q 83 307 83 189 q 176 540 83 444 q 420 636 269 636 q 658 547 571 636 q 745 349 745 458 q 739 266 745 315 l 209 266 q 224 218 216 237 q 256 167 233 198 q 322 119 278 136 q 427 102 366 102 q 727 195 548 102 l 781 91 q 686 42 719 56 q 555 -3 652 28 q 541 -7 552 -4 q 526 -13 530 -11 q 510 -20 521 -15 q 493 -27 499 -24 q 477 -35 487 -30 q 463 -44 468 -39 q 453 -54 458 -49 q 445 -64 448 -58 q 442 -75 442 -69 q 455 -98 442 -90 q 484 -106 468 -106 q 586 -66 517 -106 m 217 377 l 618 377 q 422 519 581 519 q 217 377 270 519 z "},"Ě":{"ha":814,"x_min":61,"x_max":750,"o":"m 61 791 l 736 791 l 743 498 l 631 498 l 618 680 l 292 680 l 292 472 l 452 472 l 452 570 l 564 570 l 564 264 l 452 264 l 452 361 l 292 361 l 292 111 l 631 111 l 637 294 l 750 294 l 750 0 l 61 0 l 61 111 l 174 111 l 174 680 l 61 680 l 61 791 m 468 902 l 353 902 l 220 1017 l 289 1061 l 412 996 l 522 1061 l 594 1017 l 468 902 z "},"ě":{"ha":814,"x_min":83,"x_max":781,"o":"m 727 195 l 781 91 q 430 -19 591 -19 q 175 75 267 -19 q 83 304 83 168 q 176 537 83 441 q 420 633 269 633 q 657 545 571 633 q 743 346 743 456 q 739 263 743 300 l 208 263 q 223 215 214 235 q 254 164 232 195 q 321 115 277 133 q 427 98 366 98 q 727 195 562 98 m 216 374 l 618 374 q 422 517 581 517 q 216 374 269 517 m 468 726 l 353 726 l 220 841 l 289 884 l 412 819 l 522 884 l 594 841 l 468 726 z "},"Ĝ":{"ha":814,"x_min":50,"x_max":798,"o":"m 610 804 l 719 804 q 713 671 713 736 q 730 503 713 585 l 616 488 q 608 541 612 521 q 592 595 605 562 q 560 647 579 628 q 506 682 541 666 q 423 697 471 697 q 245 614 316 697 q 175 393 175 530 q 243 178 175 260 q 439 95 311 95 q 616 132 518 95 l 616 266 l 420 266 l 420 377 l 798 377 l 798 266 l 734 266 l 734 50 q 438 -22 567 -22 q 220 40 311 -22 q 90 193 130 102 q 50 392 50 285 q 157 694 50 575 q 415 814 264 814 q 602 730 528 814 l 610 804 m 370 1061 l 487 1061 l 620 945 l 549 902 l 426 967 l 316 902 l 244 945 l 370 1061 z "},"ĝ":{"ha":814,"x_min":49,"x_max":765,"o":"m 540 614 l 765 614 l 765 503 l 658 503 l 658 61 q 581 -149 658 -92 q 361 -206 505 -206 l 220 -206 l 220 -95 q 465 -80 425 -95 q 502 -59 487 -72 q 524 -34 517 -46 q 535 0 532 -22 q 539 36 538 22 q 540 77 540 50 q 354 11 458 11 q 138 100 227 11 q 49 315 49 190 q 140 532 49 444 q 355 620 232 620 q 540 556 460 620 l 540 614 m 540 313 q 486 450 540 396 q 359 503 433 503 q 230 450 286 503 q 174 316 174 396 q 228 182 174 237 q 358 127 282 127 q 488 183 437 127 q 540 313 540 239 m 346 884 l 463 884 l 595 769 l 525 726 l 401 791 l 292 726 l 220 769 l 346 884 z "},"Ğ":{"ha":814,"x_min":50,"x_max":798,"o":"m 610 804 l 719 804 q 713 671 713 736 q 730 503 713 585 l 616 488 q 608 541 612 521 q 592 595 605 562 q 560 647 579 628 q 506 682 541 666 q 423 697 471 697 q 245 614 316 697 q 175 393 175 530 q 243 178 175 260 q 439 95 311 95 q 616 132 518 95 l 616 266 l 420 266 l 420 377 l 798 377 l 798 266 l 734 266 l 734 50 q 438 -22 567 -22 q 220 40 311 -22 q 90 193 130 102 q 50 392 50 285 q 157 694 50 575 q 415 814 264 814 q 602 730 528 814 l 610 804 m 190 1074 l 296 1074 q 431 978 326 978 q 567 1074 538 978 l 673 1074 q 669 1058 673 1066 q 623 968 654 1005 q 555 914 593 930 q 488 892 518 898 q 431 886 458 886 q 222 990 293 886 q 190 1074 205 1017 z "},"ğ":{"ha":814,"x_min":49,"x_max":765,"o":"m 540 614 l 765 614 l 765 503 l 658 503 l 658 61 q 581 -149 658 -92 q 361 -206 505 -206 l 220 -206 l 220 -95 q 465 -80 425 -95 q 502 -59 487 -72 q 524 -34 517 -46 q 535 0 532 -22 q 539 36 538 22 q 540 77 540 50 q 354 11 458 11 q 138 100 227 11 q 49 315 49 190 q 140 532 49 444 q 355 620 232 620 q 540 556 460 620 l 540 614 m 540 313 q 486 450 540 396 q 359 503 433 503 q 230 450 286 503 q 174 316 174 396 q 228 182 174 237 q 358 127 282 127 q 488 183 437 127 q 540 313 540 239 m 165 898 l 271 898 q 407 802 301 802 q 543 898 514 802 l 648 898 q 644 882 648 890 q 599 791 629 829 q 531 738 568 754 q 464 715 494 722 q 407 709 434 709 q 198 814 269 709 q 165 898 180 841 z "},"Ġ":{"ha":814,"x_min":50,"x_max":798,"o":"m 610 804 l 719 804 q 713 671 713 736 q 730 503 713 585 l 616 488 q 608 541 612 521 q 592 595 605 562 q 560 647 579 628 q 506 682 541 666 q 423 697 471 697 q 245 614 316 697 q 175 393 175 530 q 243 178 175 260 q 439 95 311 95 q 616 132 518 95 l 616 266 l 420 266 l 420 377 l 798 377 l 798 266 l 734 266 l 734 50 q 438 -22 567 -22 q 220 40 311 -22 q 90 193 130 102 q 50 392 50 285 q 157 694 50 575 q 415 814 264 814 q 602 730 528 814 l 610 804 m 366 899 l 366 1062 l 496 1062 l 496 899 l 366 899 z "},"ġ":{"ha":814,"x_min":49,"x_max":765,"o":"m 540 614 l 765 614 l 765 503 l 658 503 l 658 61 q 581 -149 658 -92 q 361 -206 505 -206 l 220 -206 l 220 -95 q 465 -80 425 -95 q 502 -59 487 -72 q 524 -34 517 -46 q 535 0 532 -22 q 539 36 538 22 q 540 77 540 50 q 354 11 458 11 q 138 100 227 11 q 49 315 49 190 q 140 532 49 444 q 355 620 232 620 q 540 556 460 620 l 540 614 m 540 313 q 486 450 540 396 q 359 503 433 503 q 230 450 286 503 q 174 316 174 396 q 228 182 174 237 q 358 127 282 127 q 488 183 437 127 q 540 313 540 239 m 342 723 l 342 886 l 472 886 l 472 723 l 342 723 z "},"Ģ":{"ha":814,"x_min":50,"x_max":798,"o":"m 480 -20 l 479 -24 q 542 -53 503 -24 q 581 -130 581 -81 q 576 -158 581 -144 q 559 -191 571 -172 q 519 -220 548 -209 q 449 -232 490 -232 q 274 -206 388 -232 l 290 -113 q 441 -137 388 -137 q 467 -130 460 -137 q 449 -117 464 -121 q 370 -106 434 -114 l 381 -19 q 239 28 301 -7 q 142 109 176 64 q 85 208 107 153 q 57 307 64 263 q 50 392 50 350 q 157 694 50 575 q 415 814 264 814 q 602 730 528 814 l 610 804 l 719 804 q 713 671 713 736 q 730 503 713 585 l 616 488 q 608 541 612 521 q 592 595 605 562 q 560 647 579 628 q 506 682 541 666 q 423 697 471 697 q 245 614 316 697 q 175 393 175 530 q 243 178 175 260 q 439 96 311 96 q 616 132 522 96 l 616 264 l 420 264 l 420 377 l 798 377 l 798 264 l 734 264 l 734 50 q 480 -20 593 -11 z "},"Ĥ":{"ha":814,"x_min":38,"x_max":776,"o":"m 38 791 l 353 791 l 353 680 l 255 680 l 255 464 l 559 464 l 559 680 l 461 680 l 461 791 l 776 791 l 776 680 l 677 680 l 677 111 l 776 111 l 776 0 l 461 0 l 461 111 l 559 111 l 559 353 l 255 353 l 255 111 l 353 111 l 353 0 l 38 0 l 38 111 l 137 111 l 137 680 l 38 680 l 38 791 m 346 1061 l 463 1061 l 595 945 l 525 902 l 401 967 l 292 902 l 220 945 l 346 1061 z "},"ĥ":{"ha":814,"x_min":16,"x_max":795,"o":"m 16 860 l 266 879 l 266 557 q 463 633 373 633 q 624 566 563 633 q 685 391 685 498 l 685 111 l 795 111 l 795 0 l 453 0 l 453 111 l 567 111 l 567 385 q 541 479 567 441 q 465 517 515 517 q 266 425 389 517 l 266 111 l 369 111 l 369 0 l 35 0 l 35 111 l 148 111 l 148 754 l 26 746 l 16 860 m 319 1149 l 435 1149 l 568 1034 l 498 990 l 374 1055 l 264 990 l 193 1034 l 319 1149 z "},"Ħ":{"ha":814,"x_min":37,"x_max":777,"o":"m 38 791 l 353 791 l 353 680 l 255 680 l 255 632 l 559 632 l 559 680 l 461 680 l 461 791 l 776 791 l 776 680 l 677 680 l 677 632 l 777 632 l 777 518 l 677 518 l 677 111 l 776 111 l 776 0 l 461 0 l 461 111 l 559 111 l 559 353 l 255 353 l 255 111 l 353 111 l 353 0 l 38 0 l 38 111 l 137 111 l 137 518 l 37 518 l 37 632 l 137 632 l 137 680 l 38 680 l 38 791 m 559 518 l 255 518 l 255 465 l 559 465 l 559 518 z "},"ħ":{"ha":814,"x_min":18,"x_max":795,"o":"m 266 715 l 566 715 l 566 631 l 266 631 l 266 521 q 464 597 370 597 q 625 533 564 597 q 685 369 685 469 l 685 111 l 795 111 l 795 0 l 453 0 l 453 111 l 567 111 l 567 378 q 541 460 567 427 q 465 492 515 492 q 266 404 380 492 l 266 111 l 369 111 l 369 0 l 35 0 l 35 111 l 148 111 l 148 631 l 18 631 l 18 715 l 148 715 l 148 762 l 26 754 l 18 860 l 266 879 l 266 715 z "},"Ĩ":{"ha":814,"x_min":119,"x_max":696,"o":"m 119 791 l 696 791 l 696 680 l 467 680 l 467 111 l 696 111 l 696 0 l 119 0 l 119 111 l 349 111 l 349 680 l 119 680 l 119 791 m 552 1072 l 646 1043 q 629 998 636 1015 q 603 954 621 981 q 555 912 585 926 q 486 898 525 898 q 380 939 438 898 q 321 968 338 968 q 267 906 290 968 q 264 901 266 906 q 262 895 263 895 l 168 926 q 187 973 179 956 q 214 1017 195 990 q 259 1056 232 1043 q 321 1069 286 1069 q 431 1025 369 1069 q 491 997 468 997 q 525 1015 513 997 q 552 1072 537 1032 z "},"ĩ":{"ha":814,"x_min":119,"x_max":694,"o":"m 156 614 l 468 614 l 468 111 l 694 111 l 694 0 l 119 0 l 119 111 l 350 111 l 350 503 l 156 503 l 156 614 m 552 895 l 646 867 q 629 821 636 838 q 603 777 621 804 q 555 736 585 750 q 486 722 525 722 q 380 762 438 722 q 321 792 338 792 q 267 730 290 792 q 264 724 266 730 q 262 719 263 719 l 168 750 q 187 797 179 780 q 214 840 195 814 q 259 880 232 867 q 321 892 286 892 q 431 849 369 892 q 491 821 468 821 q 525 838 513 821 q 552 895 537 856 z "},"Ī":{"ha":814,"x_min":119,"x_max":696,"o":"m 119 791 l 696 791 l 696 680 l 467 680 l 467 111 l 696 111 l 696 0 l 119 0 l 119 111 l 349 111 l 349 680 l 119 680 l 119 791 m 175 1038 l 639 1038 l 639 922 l 175 922 l 175 1038 z "},"ī":{"ha":814,"x_min":119,"x_max":694,"o":"m 156 614 l 468 614 l 468 111 l 694 111 l 694 0 l 119 0 l 119 111 l 350 111 l 350 503 l 156 503 l 156 614 m 175 861 l 639 861 l 639 746 l 175 746 l 175 861 z "},"Į":{"ha":814,"x_min":119,"x_max":696,"o":"m 570 -66 l 549 -156 q 425 -195 490 -195 q 337 -167 372 -195 q 302 -98 302 -138 q 373 -3 302 -39 l 373 0 l 119 0 l 119 111 l 349 111 l 349 680 l 119 680 l 119 791 l 696 791 l 696 680 l 467 680 l 467 111 l 696 111 l 696 0 l 553 0 q 467 -31 509 -9 q 426 -75 426 -53 q 439 -98 426 -90 q 468 -106 452 -106 q 570 -66 500 -106 z "},"į":{"ha":814,"x_min":119,"x_max":694,"o":"m 570 -66 l 548 -156 q 425 -195 488 -195 q 337 -167 372 -195 q 302 -98 302 -138 q 373 -3 302 -39 l 373 0 l 119 0 l 119 111 l 350 111 l 350 503 l 156 503 l 156 614 l 468 614 l 468 111 l 694 111 l 694 0 l 553 0 q 467 -31 509 -9 q 425 -75 425 -53 q 468 -106 425 -106 q 570 -66 500 -106 m 324 732 l 324 911 l 468 911 l 468 732 l 324 732 z "},"İ":{"ha":814,"x_min":119,"x_max":696,"o":"m 119 791 l 696 791 l 696 680 l 467 680 l 467 111 l 696 111 l 696 0 l 119 0 l 119 111 l 349 111 l 349 680 l 119 680 l 119 791 m 342 899 l 342 1062 l 472 1062 l 472 899 l 342 899 z "},"ı":{"ha":814,"x_min":119,"x_max":694,"o":"m 156 614 l 468 614 l 468 111 l 694 111 l 694 0 l 119 0 l 119 111 l 350 111 l 350 503 l 156 503 l 156 614 z "},"Ĳ":{"ha":814,"x_min":18,"x_max":803,"o":"m 18 791 l 365 791 l 365 680 l 251 680 l 251 111 l 353 111 l 353 0 l 18 0 l 18 111 l 133 111 l 133 680 l 18 680 l 18 791 m 472 791 l 803 791 l 803 680 l 719 680 l 719 294 q 718 224 719 250 q 713 155 718 199 q 699 85 709 111 q 670 32 688 60 q 623 -9 652 4 q 553 -22 593 -22 q 404 79 449 -22 l 393 332 l 500 332 l 500 245 q 509 125 500 153 q 552 96 518 96 q 581 109 571 96 q 595 165 590 122 q 601 294 601 209 l 601 680 l 472 680 l 472 791 z "},"ĳ":{"ha":814,"x_min":107,"x_max":696,"o":"m 144 614 l 406 614 l 406 0 l 107 0 l 107 111 l 288 111 l 288 503 l 144 503 l 144 614 m 262 732 l 262 911 l 406 911 l 406 732 l 262 732 m 460 614 l 696 614 l 696 80 q 425 -198 696 -198 q 213 -170 349 -198 l 241 -56 q 427 -81 373 -81 q 545 -43 513 -81 q 578 85 578 -5 l 578 503 l 460 503 l 460 614 m 525 732 l 525 911 l 669 911 l 669 732 l 525 732 z "},"Ĵ":{"ha":814,"x_min":64,"x_max":800,"o":"m 256 791 l 800 791 l 800 680 l 632 680 l 632 294 q 590 75 632 138 q 381 -22 526 -22 q 77 66 243 -22 l 64 399 l 180 399 l 187 245 q 201 170 190 195 q 245 126 213 145 q 377 95 301 95 q 443 106 416 95 q 484 132 469 117 q 505 177 498 146 q 513 230 511 208 q 514 294 514 252 l 514 680 l 256 680 l 256 791 m 461 1061 l 578 1061 l 711 945 l 640 902 l 517 967 l 407 902 l 335 945 l 461 1061 z "},"ĵ":{"ha":814,"x_min":71,"x_max":552,"o":"m 98 614 l 552 614 l 552 80 q 281 -198 552 -198 q 71 -170 205 -198 l 98 -56 q 283 -81 218 -81 q 357 -71 327 -81 q 401 -45 387 -60 q 424 -5 416 -31 q 433 38 431 20 q 434 85 434 56 l 434 503 l 98 503 l 98 614 m 277 884 l 393 884 l 526 769 l 456 726 l 332 791 l 222 726 l 151 769 l 277 884 z "},"Ķ":{"ha":814,"x_min":65,"x_max":811,"o":"m 65 791 l 406 791 l 406 680 l 294 680 l 294 444 l 533 680 l 464 680 l 464 791 l 773 791 l 773 680 l 699 680 l 448 431 q 548 340 502 397 q 617 239 594 282 q 681 111 640 195 l 811 111 l 811 0 l 598 0 q 363 350 492 273 l 294 285 l 294 111 l 406 111 l 406 0 l 65 0 l 65 111 l 176 111 l 176 680 l 65 680 l 65 791 m 543 8 l 538 -24 q 602 -53 563 -24 q 640 -130 640 -81 q 635 -158 640 -144 q 619 -191 631 -172 q 578 -220 608 -209 q 509 -232 549 -232 q 334 -206 448 -232 l 350 -113 q 500 -137 448 -137 q 526 -130 519 -137 q 509 -117 524 -121 q 430 -106 494 -114 l 444 8 l 543 8 z "},"ķ":{"ha":814,"x_min":33,"x_max":777,"o":"m 33 857 l 283 879 l 283 395 l 422 500 l 422 503 l 393 503 l 393 614 l 728 614 l 728 503 l 609 503 l 422 357 q 654 111 502 288 l 777 111 l 777 0 l 453 0 l 453 111 l 503 111 q 328 288 425 199 l 283 254 l 283 0 l 57 0 l 57 111 l 165 111 l 165 754 l 43 743 l 33 857 m 431 8 l 427 -24 q 490 -53 452 -24 q 529 -130 529 -81 q 524 -158 529 -144 q 508 -191 519 -172 q 467 -220 496 -209 q 397 -232 438 -232 q 222 -206 336 -232 l 237 -113 q 389 -137 347 -137 q 415 -130 408 -137 q 397 -117 412 -121 q 319 -106 382 -114 l 332 8 l 431 8 z "},"ĸ":{"ha":814,"x_min":34,"x_max":777,"o":"m 34 614 l 283 614 l 283 395 l 454 500 l 454 503 l 393 503 l 393 614 l 728 614 l 728 503 l 639 503 l 422 357 q 654 111 498 293 l 777 111 l 777 0 l 453 0 l 453 111 l 503 111 q 328 288 425 199 l 283 254 l 283 0 l 57 0 l 57 111 l 165 111 l 165 503 l 34 503 l 34 614 z "},"Ĺ":{"ha":814,"x_min":65,"x_max":766,"o":"m 65 791 l 476 791 l 476 680 l 313 680 l 313 111 l 633 111 l 651 380 l 766 380 l 749 0 l 65 0 l 65 111 l 195 111 l 195 680 l 65 680 l 65 791 m 494 1042 l 267 914 l 149 914 l 292 1047 l 494 1047 l 494 1042 z "},"ĺ":{"ha":814,"x_min":119,"x_max":693,"o":"m 125 856 l 465 879 l 465 111 l 693 111 l 693 0 l 119 0 l 119 111 l 347 111 l 347 757 l 136 743 l 125 856 m 602 1130 l 376 1002 l 258 1002 l 400 1135 l 602 1135 l 602 1130 z "},"Ļ":{"ha":814,"x_min":65,"x_max":766,"o":"m 492 0 l 490 -24 q 551 -53 513 -24 q 590 -130 590 -81 q 585 -158 590 -144 q 569 -191 581 -172 q 528 -220 557 -209 q 458 -232 499 -232 q 285 -206 393 -232 l 300 -113 q 452 -137 397 -137 q 476 -130 471 -137 q 459 -117 473 -121 q 381 -106 445 -114 l 393 0 l 65 0 l 65 111 l 195 111 l 195 680 l 65 680 l 65 791 l 476 791 l 476 680 l 313 680 l 313 111 l 633 111 l 651 380 l 766 380 l 749 0 l 492 0 z "},"ļ":{"ha":814,"x_min":119,"x_max":693,"o":"m 446 0 l 444 -24 q 507 -53 468 -24 q 545 -130 545 -81 q 541 -158 545 -144 q 524 -191 536 -172 q 484 -220 513 -209 q 414 -232 454 -232 q 239 -206 353 -232 l 255 -113 q 406 -137 353 -137 q 431 -130 425 -137 q 414 -117 429 -121 q 336 -106 400 -114 l 349 0 l 119 0 l 119 111 l 347 111 l 347 757 l 136 743 l 125 856 l 465 879 l 465 111 l 693 111 l 693 0 l 446 0 z "},"Ľ":{"ha":814,"x_min":65,"x_max":766,"o":"m 65 791 l 476 791 l 476 680 l 313 680 l 313 111 l 633 111 l 651 380 l 766 380 l 749 0 l 65 0 l 65 111 l 195 111 l 195 680 l 65 680 l 65 791 m 332 902 l 217 902 l 84 1017 l 153 1061 l 277 996 l 387 1061 l 458 1017 l 332 902 z "},"ľ":{"ha":814,"x_min":119,"x_max":693,"o":"m 125 856 l 465 879 l 465 111 l 693 111 l 693 0 l 119 0 l 119 111 l 347 111 l 347 757 l 136 743 l 125 856 m 468 990 l 353 990 l 220 1105 l 289 1149 l 412 1084 l 522 1149 l 594 1105 l 468 990 z "},"Ŀ":{"ha":814,"x_min":65,"x_max":766,"o":"m 65 791 l 476 791 l 476 680 l 313 680 l 313 111 l 633 111 l 651 380 l 766 380 l 749 0 l 65 0 l 65 111 l 195 111 l 195 680 l 65 680 l 65 791 m 419 512 q 437 527 419 512 q 499 541 454 541 q 578 513 544 541 q 613 438 613 484 q 578 363 613 392 q 499 334 544 334 q 419 363 454 334 q 384 438 384 392 q 419 512 384 483 z "},"ŀ":{"ha":814,"x_min":119,"x_max":787,"o":"m 125 856 l 465 879 l 465 111 l 693 111 l 693 0 l 119 0 l 119 111 l 347 111 l 347 757 l 136 743 l 125 856 m 592 531 q 609 546 592 531 q 671 560 627 560 q 751 531 716 560 q 787 456 787 502 q 751 381 787 410 q 671 353 716 353 q 592 381 627 353 q 557 456 557 410 q 592 531 557 502 z "},"Ł":{"ha":814,"x_min":52,"x_max":766,"o":"m 313 358 l 313 111 l 633 111 l 651 380 l 766 380 l 749 0 l 65 0 l 65 111 l 195 111 l 195 297 l 111 250 l 52 353 l 195 435 l 195 680 l 65 680 l 65 791 l 476 791 l 476 680 l 313 680 l 313 495 l 543 628 l 602 525 l 313 358 z "},"ł":{"ha":814,"x_min":119,"x_max":693,"o":"m 125 856 l 465 879 l 465 540 l 618 628 l 678 525 l 465 401 l 465 111 l 693 111 l 693 0 l 119 0 l 119 111 l 347 111 l 347 343 l 186 250 l 126 353 l 347 481 l 347 757 l 136 743 l 125 856 z "},"Ń":{"ha":814,"x_min":7,"x_max":806,"o":"m 7 791 l 266 791 l 583 203 l 606 203 l 606 680 l 471 680 l 471 791 l 806 791 l 806 680 l 715 680 l 715 -16 l 570 -16 l 245 581 l 221 581 l 221 111 l 358 111 l 358 0 l 7 0 l 7 111 l 113 111 l 113 680 l 7 680 l 7 791 m 629 1042 l 403 914 l 285 914 l 427 1047 l 629 1047 l 629 1042 z "},"ń":{"ha":814,"x_min":28,"x_max":788,"o":"m 31 614 l 259 614 l 259 557 q 456 633 368 633 q 617 566 556 633 q 678 389 678 498 l 678 111 l 788 111 l 788 0 l 446 0 l 446 111 l 560 111 l 560 384 q 533 479 560 441 q 458 517 506 517 q 382 500 423 517 q 323 470 342 483 q 259 425 304 457 l 259 111 l 362 111 l 362 0 l 28 0 l 28 111 l 141 111 l 141 503 l 31 503 l 31 614 m 629 865 l 403 738 l 285 738 l 427 871 l 629 871 l 629 865 z "},"Ņ":{"ha":814,"x_min":7,"x_max":806,"o":"m 7 791 l 266 791 l 583 203 l 606 203 l 606 680 l 471 680 l 471 791 l 806 791 l 806 680 l 715 680 l 715 -16 l 570 -16 l 245 581 l 221 581 l 221 111 l 358 111 l 358 0 l 7 0 l 7 111 l 113 111 l 113 680 l 7 680 l 7 791 m 488 8 l 484 -24 q 547 -53 509 -24 q 586 -130 586 -81 q 581 -158 586 -144 q 565 -191 576 -172 q 524 -220 553 -209 q 454 -232 495 -232 q 279 -206 393 -232 l 294 -113 q 446 -137 392 -137 q 472 -130 465 -137 q 454 -117 469 -121 q 376 -106 439 -114 l 389 8 l 488 8 z "},"ņ":{"ha":814,"x_min":28,"x_max":788,"o":"m 460 0 l 457 -24 q 520 -53 481 -24 q 559 -130 559 -81 q 554 -158 559 -144 q 538 -191 549 -172 q 497 -220 526 -209 q 427 -232 468 -232 q 252 -206 366 -232 l 267 -113 q 419 -137 377 -137 q 445 -130 438 -137 q 427 -117 442 -121 q 349 -106 412 -114 l 361 0 l 28 0 l 28 111 l 141 111 l 141 503 l 28 503 l 28 614 l 259 614 l 259 560 q 456 633 363 633 q 618 567 557 633 q 678 393 678 500 l 678 111 l 788 111 l 788 0 l 460 0 m 369 8 l 446 8 l 446 111 l 560 111 l 560 388 q 535 479 560 441 q 460 517 510 517 q 382 500 423 517 q 321 470 340 483 q 259 427 302 457 l 259 111 l 369 111 l 369 8 z "},"Ň":{"ha":814,"x_min":7,"x_max":806,"o":"m 7 791 l 266 791 l 583 203 l 606 203 l 606 680 l 471 680 l 471 791 l 806 791 l 806 680 l 715 680 l 715 -16 l 570 -16 l 245 581 l 221 581 l 221 111 l 358 111 l 358 0 l 7 0 l 7 111 l 113 111 l 113 680 l 7 680 l 7 791 m 468 902 l 353 902 l 220 1017 l 289 1061 l 412 996 l 522 1061 l 594 1017 l 468 902 z "},"ň":{"ha":814,"x_min":28,"x_max":788,"o":"m 31 614 l 259 614 l 259 557 q 456 633 368 633 q 617 566 556 633 q 678 389 678 498 l 678 111 l 788 111 l 788 0 l 446 0 l 446 111 l 560 111 l 560 384 q 533 479 560 441 q 458 517 506 517 q 382 500 423 517 q 323 470 342 483 q 259 425 304 457 l 259 111 l 362 111 l 362 0 l 28 0 l 28 111 l 141 111 l 141 503 l 31 503 l 31 614 m 468 726 l 353 726 l 220 841 l 289 884 l 412 819 l 522 884 l 594 841 l 468 726 z "},"Ŋ":{"ha":814,"x_min":46,"x_max":730,"o":"m 46 791 l 275 791 l 275 728 q 510 807 404 807 q 674 731 618 807 q 730 559 730 655 l 730 52 q 661 -117 730 -57 q 505 -178 593 -178 l 373 -178 l 373 -57 l 494 -57 q 585 -18 559 -57 q 612 61 612 22 l 612 570 q 511 686 612 686 q 385 652 453 686 q 275 578 316 617 l 275 111 l 387 111 l 387 0 l 46 0 l 46 111 l 157 111 l 157 680 l 46 680 l 46 791 z "},"ŋ":{"ha":814,"x_min":31,"x_max":680,"o":"m 259 423 l 259 111 l 369 111 l 369 0 l 31 0 l 31 111 l 141 111 l 141 503 l 31 503 l 31 614 l 259 614 l 259 563 q 450 636 358 636 q 618 566 556 636 q 680 392 680 495 l 680 52 q 611 -120 680 -58 q 453 -182 543 -182 l 332 -182 l 332 -61 l 442 -61 q 532 -22 502 -61 q 562 61 562 18 l 562 392 q 537 481 562 446 q 465 515 513 515 q 368 492 414 515 q 259 423 321 469 z "},"Ō":{"ha":814,"x_min":43,"x_max":770,"o":"m 144 98 q 94 158 144 98 q 43 395 43 218 q 144 692 43 571 q 407 814 245 814 q 670 693 570 814 q 770 396 770 572 q 669 99 770 220 q 407 -22 568 -22 q 144 98 245 -22 m 168 396 q 233 183 168 271 q 407 95 298 95 q 581 182 515 95 q 646 396 646 270 q 581 608 646 518 q 407 697 517 697 q 233 608 298 697 q 168 396 168 519 m 175 1038 l 639 1038 l 639 922 l 175 922 l 175 1038 z "},"ō":{"ha":814,"x_min":56,"x_max":758,"o":"m 56 312 q 151 547 56 452 q 407 643 247 643 q 664 545 570 643 q 758 312 758 448 q 666 80 758 179 q 407 -19 574 -19 q 149 79 243 -19 q 56 312 56 176 m 180 312 q 241 161 180 224 q 407 98 301 98 q 574 161 515 98 q 633 312 633 225 q 574 463 633 399 q 407 526 515 526 q 240 464 300 526 q 180 312 180 401 m 175 861 l 639 861 l 639 746 l 175 746 l 175 861 z "},"Ő":{"ha":814,"x_min":43,"x_max":770,"o":"m 144 98 q 94 158 144 98 q 43 395 43 218 q 144 692 43 571 q 407 814 245 814 q 670 693 570 814 q 770 396 770 572 q 669 99 770 220 q 407 -22 568 -22 q 144 98 245 -22 m 168 396 q 233 183 168 271 q 407 95 298 95 q 581 182 515 95 q 646 396 646 270 q 581 608 646 518 q 407 697 517 697 q 233 608 298 697 q 168 396 168 519 m 475 1067 l 263 892 l 171 892 l 320 1067 l 475 1067 m 694 1067 l 483 892 l 389 892 l 540 1067 l 694 1067 z "},"ő":{"ha":814,"x_min":56,"x_max":758,"o":"m 56 312 q 151 547 56 452 q 407 643 247 643 q 664 545 570 643 q 758 312 758 448 q 666 80 758 179 q 407 -19 574 -19 q 149 79 243 -19 q 56 312 56 176 m 180 312 q 241 161 180 224 q 407 98 301 98 q 574 161 515 98 q 633 312 633 225 q 574 463 633 399 q 407 526 515 526 q 240 464 300 526 q 180 312 180 401 m 475 891 l 263 716 l 171 716 l 320 891 l 475 891 m 694 891 l 483 716 l 389 716 l 540 891 l 694 891 z "},"Œ":{"ha":814,"x_min":4,"x_max":811,"o":"m 800 791 l 806 498 l 709 498 l 699 680 l 514 680 l 514 476 l 559 476 l 559 562 l 663 562 l 663 273 l 559 273 l 559 358 l 514 358 l 514 111 l 701 111 l 709 296 l 811 296 l 811 0 l 335 0 q 256 2 282 0 q 195 19 231 4 q 129 64 160 34 q 4 388 4 182 q 26 530 4 460 q 87 660 47 601 q 191 755 126 719 q 335 791 256 791 l 800 791 m 396 168 l 396 629 q 395 651 396 644 q 388 668 393 658 q 368 682 382 678 q 327 686 353 686 q 189 599 248 686 q 129 381 129 511 q 180 182 129 263 q 316 100 231 100 q 346 104 331 100 q 378 124 361 107 q 396 168 396 141 z "},"œ":{"ha":814,"x_min":4,"x_max":789,"o":"m 774 269 l 475 269 q 590 98 486 98 q 701 118 651 98 q 736 132 726 126 q 749 136 736 132 l 789 26 l 776 20 q 587 -19 678 -19 q 412 64 476 -19 q 237 -19 353 -19 q 69 58 127 -19 q 4 301 4 145 q 16 424 4 366 q 55 533 28 481 q 131 614 81 585 q 250 644 180 644 q 419 568 365 644 q 570 644 479 644 q 677 610 632 644 q 743 523 723 575 q 772 429 764 471 q 781 353 781 387 q 774 269 781 320 m 457 380 l 659 380 q 631 492 658 457 q 570 528 605 528 q 496 494 530 528 q 457 380 461 461 m 126 308 q 247 98 126 98 q 339 157 315 98 q 363 312 363 216 q 338 479 363 430 q 250 528 313 528 q 126 308 126 528 z "},"Ŕ":{"ha":814,"x_min":47,"x_max":798,"o":"m 47 791 l 410 791 q 524 783 483 791 q 604 750 566 776 q 668 673 643 723 q 693 568 693 623 q 692 540 693 553 q 681 496 690 526 q 655 441 671 465 q 603 392 639 418 q 518 351 567 366 q 670 111 571 278 l 798 111 l 798 0 l 589 0 q 457 236 532 123 q 393 319 414 301 q 340 338 373 338 l 271 338 l 271 111 l 389 111 l 389 0 l 47 0 l 47 111 l 153 111 l 153 680 l 47 680 l 47 791 m 410 680 l 271 680 l 271 449 l 372 449 q 522 477 479 449 q 568 572 568 509 q 530 657 568 635 q 410 680 491 680 m 629 1042 l 403 914 l 285 914 l 427 1047 l 629 1047 l 629 1042 z "},"ŕ":{"ha":814,"x_min":84,"x_max":795,"o":"m 96 614 l 365 614 l 365 514 q 429 571 403 551 q 506 612 456 591 q 610 633 556 633 q 699 617 658 633 q 755 587 739 601 q 795 551 772 574 l 674 458 q 587 517 640 517 q 553 511 571 517 q 517 495 534 505 q 481 472 499 486 q 448 446 463 458 q 417 418 433 433 q 392 393 401 403 q 374 374 382 384 l 365 365 l 365 111 l 616 111 l 616 0 l 84 0 l 84 111 l 247 111 l 247 503 l 96 503 l 96 614 m 629 865 l 403 738 l 285 738 l 427 871 l 629 871 l 629 865 z "},"Ŗ":{"ha":814,"x_min":47,"x_max":798,"o":"m 47 791 l 410 791 q 524 783 483 791 q 604 750 566 776 q 668 673 643 723 q 693 568 693 623 q 692 540 693 553 q 681 496 690 526 q 655 441 671 465 q 603 392 639 418 q 518 351 567 366 q 670 111 571 278 l 798 111 l 798 0 l 589 0 q 457 236 532 123 q 393 319 414 301 q 340 338 373 338 l 271 338 l 271 111 l 389 111 l 389 0 l 47 0 l 47 111 l 153 111 l 153 680 l 47 680 l 47 791 m 410 680 l 271 680 l 271 449 l 372 449 q 522 477 479 449 q 568 572 568 509 q 530 657 568 635 q 410 680 491 680 m 526 8 l 522 -24 q 585 -53 547 -24 q 624 -130 624 -81 q 619 -158 624 -144 q 603 -191 614 -172 q 562 -220 591 -209 q 492 -232 533 -232 q 317 -206 431 -232 l 334 -113 q 484 -137 431 -137 q 510 -130 503 -137 q 493 -117 507 -121 q 415 -106 479 -114 l 427 8 l 526 8 z "},"ŗ":{"ha":814,"x_min":84,"x_max":795,"o":"m 498 0 l 494 -24 q 557 -53 518 -24 q 595 -130 595 -81 q 591 -158 595 -144 q 574 -191 586 -172 q 534 -220 563 -209 q 464 -232 505 -232 q 289 -206 403 -232 l 305 -113 q 456 -137 403 -137 q 481 -130 475 -137 q 465 -117 479 -121 q 387 -106 450 -114 l 399 0 l 84 0 l 84 111 l 247 111 l 247 503 l 96 503 l 96 614 l 365 614 l 365 514 q 429 571 403 551 q 506 612 456 591 q 610 633 556 633 q 699 617 658 633 q 755 587 739 601 q 795 551 772 574 l 674 458 q 587 517 640 517 q 553 511 571 517 q 517 495 534 505 q 481 472 499 486 q 448 446 463 458 q 417 418 433 433 q 392 393 401 403 q 374 374 382 384 l 365 365 l 365 111 l 616 111 l 616 0 l 498 0 z "},"Ř":{"ha":814,"x_min":47,"x_max":798,"o":"m 47 791 l 410 791 q 524 783 483 791 q 604 750 566 776 q 668 673 643 723 q 693 568 693 623 q 692 540 693 553 q 681 496 690 526 q 655 441 671 465 q 603 392 639 418 q 518 351 567 366 q 670 111 571 278 l 798 111 l 798 0 l 589 0 q 457 236 532 123 q 393 319 414 301 q 340 338 373 338 l 271 338 l 271 111 l 389 111 l 389 0 l 47 0 l 47 111 l 153 111 l 153 680 l 47 680 l 47 791 m 410 680 l 271 680 l 271 449 l 372 449 q 522 477 479 449 q 568 572 568 509 q 530 657 568 635 q 410 680 491 680 m 468 902 l 353 902 l 220 1017 l 289 1061 l 412 996 l 522 1061 l 594 1017 l 468 902 z "},"ř":{"ha":814,"x_min":84,"x_max":795,"o":"m 96 614 l 365 614 l 365 514 q 429 571 403 551 q 506 612 456 591 q 610 633 556 633 q 699 617 658 633 q 755 587 739 601 q 795 551 772 574 l 674 458 q 587 517 640 517 q 553 511 571 517 q 517 495 534 505 q 481 472 499 486 q 448 446 463 458 q 417 418 433 433 q 392 393 401 403 q 374 374 382 384 l 365 365 l 365 111 l 616 111 l 616 0 l 84 0 l 84 111 l 247 111 l 247 503 l 96 503 l 96 614 m 468 726 l 353 726 l 220 841 l 289 884 l 412 819 l 522 884 l 594 841 l 468 726 z "},"Ś":{"ha":814,"x_min":115,"x_max":712,"o":"m 590 804 l 699 804 q 693 688 693 745 q 701 536 693 633 q 704 503 704 528 l 597 488 q 589 539 593 521 q 574 592 586 557 q 543 646 562 627 q 491 682 525 666 q 412 697 457 697 q 282 656 327 697 q 237 566 237 616 q 255 509 237 532 q 307 475 273 487 q 361 460 342 464 q 416 452 381 456 q 579 420 540 437 q 616 401 598 412 q 712 225 712 340 q 629 50 712 121 q 427 -22 547 -22 q 337 -8 376 -22 q 282 19 298 5 q 244 56 266 33 l 233 -26 l 123 -26 q 127 65 127 15 q 117 282 127 167 l 225 282 q 410 95 243 95 q 535 127 480 95 q 590 222 590 159 q 565 286 590 262 q 509 318 540 311 q 430 331 479 326 q 382 336 400 334 q 327 347 363 339 q 266 363 290 354 q 210 391 241 373 q 160 431 179 408 q 128 487 141 453 q 115 563 115 521 q 202 741 115 667 q 395 814 289 814 q 579 728 499 814 l 590 804 m 629 1042 l 403 914 l 285 914 l 427 1047 l 629 1047 l 629 1042 z "},"ś":{"ha":814,"x_min":117,"x_max":703,"o":"m 564 646 l 670 628 q 656 510 656 560 q 670 412 656 467 l 564 397 q 557 415 559 407 l 547 446 q 381 517 522 517 q 239 441 239 517 q 252 401 239 416 q 298 377 266 385 q 347 367 330 369 q 407 362 365 365 q 513 354 486 357 q 578 342 541 351 q 637 315 614 332 q 703 184 703 266 q 627 39 703 98 q 433 -19 551 -19 q 343 -6 384 -19 q 286 18 302 7 q 243 50 270 28 l 227 -20 l 121 -14 q 134 115 134 68 q 121 221 134 164 l 227 233 q 281 134 240 170 q 411 98 321 98 q 534 121 487 98 q 581 187 581 145 q 546 235 581 224 q 416 251 511 245 q 206 296 266 260 q 142 359 167 319 q 117 445 117 399 q 196 585 117 536 q 366 633 275 633 q 547 570 463 633 l 564 646 m 629 865 l 403 738 l 285 738 l 427 871 l 629 871 l 629 865 z "},"Ŝ":{"ha":814,"x_min":115,"x_max":712,"o":"m 590 804 l 699 804 q 693 688 693 745 q 701 536 693 633 q 704 503 704 528 l 597 488 q 589 539 593 521 q 574 592 586 557 q 543 646 562 627 q 491 682 525 666 q 412 697 457 697 q 282 656 327 697 q 237 566 237 616 q 255 509 237 532 q 307 475 273 487 q 361 460 342 464 q 416 452 381 456 q 579 420 540 437 q 616 401 598 412 q 712 225 712 340 q 629 50 712 121 q 427 -22 547 -22 q 337 -8 376 -22 q 282 19 298 5 q 244 56 266 33 l 233 -26 l 123 -26 q 127 65 127 15 q 117 282 127 167 l 225 282 q 410 95 243 95 q 535 127 480 95 q 590 222 590 159 q 565 286 590 262 q 509 318 540 311 q 430 331 479 326 q 382 336 400 334 q 327 347 363 339 q 266 363 290 354 q 210 391 241 373 q 160 431 179 408 q 128 487 141 453 q 115 563 115 521 q 202 741 115 667 q 395 814 289 814 q 579 728 499 814 l 590 804 m 346 1061 l 463 1061 l 595 945 l 525 902 l 401 967 l 292 902 l 220 945 l 346 1061 z "},"ŝ":{"ha":814,"x_min":117,"x_max":703,"o":"m 564 646 l 670 628 q 656 510 656 560 q 670 412 656 467 l 564 397 q 557 415 559 407 l 547 446 q 381 517 522 517 q 239 441 239 517 q 252 401 239 416 q 298 377 266 385 q 347 367 330 369 q 407 362 365 365 q 513 354 486 357 q 578 342 541 351 q 637 315 614 332 q 703 184 703 266 q 627 39 703 98 q 433 -19 551 -19 q 343 -6 384 -19 q 286 18 302 7 q 243 50 270 28 l 227 -20 l 121 -14 q 134 115 134 68 q 121 221 134 164 l 227 233 q 281 134 240 170 q 411 98 321 98 q 534 121 487 98 q 581 187 581 145 q 546 235 581 224 q 416 251 511 245 q 206 296 266 260 q 142 359 167 319 q 117 445 117 399 q 196 585 117 536 q 366 633 275 633 q 547 570 463 633 l 564 646 m 346 884 l 463 884 l 595 769 l 525 726 l 401 791 l 292 726 l 220 769 l 346 884 z "},"Ş":{"ha":814,"x_min":115,"x_max":712,"o":"m 469 -18 l 469 -23 q 532 -52 494 -23 q 571 -130 571 -81 q 566 -158 571 -144 q 550 -191 562 -172 q 509 -220 538 -209 q 439 -232 480 -232 q 264 -206 378 -232 l 279 -113 q 431 -137 377 -137 q 457 -130 450 -137 q 439 -117 454 -121 q 361 -106 425 -114 l 372 -16 q 300 7 326 -8 q 244 56 275 23 l 233 -26 l 123 -26 q 127 65 127 15 q 117 282 127 167 l 225 282 q 410 92 243 92 q 534 125 479 92 q 590 222 590 157 q 581 267 590 248 q 559 296 571 285 q 514 315 547 307 q 458 326 481 323 q 381 336 435 330 q 115 563 115 369 q 202 741 115 667 q 395 814 289 814 q 579 728 499 814 l 590 804 l 699 804 q 693 688 693 745 q 704 503 693 628 l 597 488 q 589 539 593 521 q 574 592 586 557 q 543 646 562 627 q 491 682 525 666 q 412 697 457 697 q 286 657 335 697 q 237 566 237 617 q 255 509 237 532 q 307 475 273 487 q 361 460 340 464 q 416 452 381 456 q 579 420 540 437 q 616 401 598 412 q 712 225 712 340 q 647 67 712 136 q 469 -18 582 -1 z "},"ş":{"ha":814,"x_min":117,"x_max":703,"o":"m 465 -18 l 465 -24 q 527 -53 488 -24 q 566 -130 566 -81 q 561 -158 566 -144 q 545 -191 556 -172 q 504 -220 533 -209 q 434 -232 475 -232 q 260 -206 369 -232 l 275 -113 q 427 -137 373 -137 q 452 -130 446 -137 q 435 -117 449 -121 q 357 -106 420 -114 l 368 -12 q 243 50 312 -5 l 227 -20 l 121 -14 q 134 115 134 68 q 121 221 134 164 l 227 233 q 281 134 240 170 q 411 98 321 98 q 534 121 487 98 q 581 187 581 145 q 546 235 581 224 q 416 251 511 245 q 206 296 266 260 q 142 359 167 319 q 117 445 117 399 q 196 585 117 536 q 366 633 275 633 q 547 570 463 633 l 564 646 l 670 628 q 656 510 656 560 q 670 412 656 467 l 564 397 q 557 415 559 407 l 547 446 q 381 517 522 517 q 239 441 239 517 q 252 401 239 416 q 298 377 266 385 q 347 367 330 369 q 407 362 365 365 q 513 354 486 357 q 578 342 541 351 q 637 315 614 332 q 703 184 703 266 q 633 45 703 102 q 465 -18 563 -11 z "},"Š":{"ha":814,"x_min":115,"x_max":712,"o":"m 590 804 l 699 804 q 693 688 693 745 q 701 536 693 633 q 704 503 704 528 l 597 488 q 589 539 593 521 q 574 592 586 557 q 543 646 562 627 q 491 682 525 666 q 412 697 457 697 q 282 656 327 697 q 237 566 237 616 q 255 509 237 532 q 307 475 273 487 q 361 460 342 464 q 416 452 381 456 q 579 420 540 437 q 616 401 598 412 q 712 225 712 340 q 629 50 712 121 q 427 -22 547 -22 q 337 -8 376 -22 q 282 19 298 5 q 244 56 266 33 l 233 -26 l 123 -26 q 127 65 127 15 q 117 282 127 167 l 225 282 q 410 95 243 95 q 535 127 480 95 q 590 222 590 159 q 565 286 590 262 q 509 318 540 311 q 430 331 479 326 q 382 336 400 334 q 327 347 363 339 q 266 363 290 354 q 210 391 241 373 q 160 431 179 408 q 128 487 141 453 q 115 563 115 521 q 202 741 115 667 q 395 814 289 814 q 579 728 499 814 l 590 804 m 468 902 l 353 902 l 220 1017 l 289 1061 l 412 996 l 522 1061 l 594 1017 l 468 902 z "},"š":{"ha":814,"x_min":117,"x_max":703,"o":"m 564 646 l 670 628 q 656 510 656 560 q 670 412 656 467 l 564 397 q 557 415 559 407 l 547 446 q 381 517 522 517 q 239 441 239 517 q 252 401 239 416 q 298 377 266 385 q 347 367 330 369 q 407 362 365 365 q 513 354 486 357 q 578 342 541 351 q 637 315 614 332 q 703 184 703 266 q 627 39 703 98 q 433 -19 551 -19 q 343 -6 384 -19 q 286 18 302 7 q 243 50 270 28 l 227 -20 l 121 -14 q 134 115 134 68 q 121 221 134 164 l 227 233 q 281 134 240 170 q 411 98 321 98 q 534 121 487 98 q 581 187 581 145 q 546 235 581 224 q 416 251 511 245 q 206 296 266 260 q 142 359 167 319 q 117 445 117 399 q 196 585 117 536 q 366 633 275 633 q 547 570 463 633 l 564 646 m 468 726 l 353 726 l 220 841 l 289 884 l 412 819 l 522 884 l 594 841 l 468 726 z "},"Ţ":{"ha":814,"x_min":42,"x_max":773,"o":"m 442 0 l 439 -24 q 503 -53 464 -24 q 541 -130 541 -81 q 536 -158 541 -144 q 520 -191 532 -172 q 479 -220 509 -209 q 410 -232 450 -232 q 235 -206 349 -232 l 250 -113 q 401 -137 359 -137 q 427 -130 420 -137 q 410 -117 425 -121 q 331 -106 395 -114 l 343 0 l 191 0 l 191 111 l 349 111 l 349 680 l 176 680 l 159 416 l 42 433 l 68 791 l 747 791 l 773 433 l 656 416 l 639 680 l 467 680 l 467 111 l 627 111 l 627 0 l 442 0 z "},"ţ":{"ha":814,"x_min":126,"x_max":750,"o":"m 494 -16 l 494 -24 q 555 -53 517 -24 q 594 -130 594 -81 q 589 -158 594 -144 q 573 -191 585 -172 q 532 -220 562 -209 q 463 -232 503 -232 q 289 -206 397 -232 l 304 -113 q 456 -137 401 -137 q 481 -130 475 -137 q 463 -117 477 -121 q 385 -106 449 -114 l 396 -14 q 309 18 345 -4 q 254 62 273 39 q 227 125 236 85 q 217 190 218 165 q 216 262 216 214 l 216 490 l 126 490 l 126 601 l 216 601 l 216 791 l 334 791 l 334 601 l 643 601 l 643 490 l 334 490 l 334 262 q 334 208 334 224 q 340 165 335 191 q 356 128 346 140 q 387 108 366 117 q 439 99 408 99 q 519 109 479 99 q 591 130 559 118 q 705 175 623 141 l 750 68 q 494 -16 595 -4 z "},"Ť":{"ha":814,"x_min":42,"x_max":773,"o":"m 68 791 l 747 791 l 773 433 l 656 416 l 639 680 l 467 680 l 467 111 l 627 111 l 627 0 l 191 0 l 191 111 l 349 111 l 349 680 l 176 680 l 159 416 l 42 433 l 68 791 m 468 902 l 353 902 l 220 1017 l 289 1061 l 412 996 l 522 1061 l 594 1017 l 468 902 z "},"ť":{"ha":814,"x_min":126,"x_max":750,"o":"m 216 791 l 334 791 l 334 601 l 643 601 l 643 490 l 334 490 l 334 262 q 334 208 334 224 q 340 165 335 191 q 356 127 346 138 q 387 107 366 117 q 439 98 408 98 q 518 107 477 98 q 584 126 559 117 q 662 157 609 136 l 705 175 l 750 68 q 450 -19 562 -19 q 273 42 332 -19 q 226 132 236 81 q 216 262 216 183 l 216 490 l 126 490 l 126 601 l 216 601 l 216 791 m 468 871 l 353 871 l 220 986 l 289 1029 l 412 964 l 522 1029 l 594 986 l 468 871 z "},"Ŧ":{"ha":814,"x_min":42,"x_max":773,"o":"m 68 791 l 747 791 l 773 433 l 656 416 l 639 680 l 467 680 l 467 518 l 587 518 l 587 403 l 467 403 l 467 111 l 627 111 l 627 0 l 191 0 l 191 111 l 349 111 l 349 403 l 227 403 l 227 518 l 349 518 l 349 680 l 176 680 l 159 416 l 42 433 l 68 791 z "},"ŧ":{"ha":814,"x_min":126,"x_max":750,"o":"m 216 791 l 334 791 l 334 601 l 643 601 l 643 490 l 334 490 l 334 438 l 643 438 l 643 332 l 334 332 l 334 262 q 334 208 334 224 q 340 165 335 191 q 356 127 346 138 q 387 107 366 117 q 439 98 408 98 q 518 107 477 98 q 584 126 559 117 q 662 157 609 136 l 705 175 l 750 68 q 450 -19 562 -19 q 273 42 332 -19 q 226 132 236 81 q 216 262 216 183 l 216 332 l 126 332 l 126 438 l 216 438 l 216 490 l 126 490 l 126 601 l 216 601 l 216 791 z "},"Ũ":{"ha":814,"x_min":20,"x_max":793,"o":"m 20 791 l 365 791 l 365 680 l 232 680 l 232 334 q 233 263 232 289 q 244 201 235 237 q 271 144 254 164 q 323 110 289 125 q 407 95 358 95 q 490 110 456 95 q 543 144 525 125 q 570 201 560 164 q 581 263 579 237 q 582 334 582 289 l 582 680 l 449 680 l 449 791 l 793 791 l 793 680 l 700 680 l 700 334 q 651 92 700 163 q 553 2 606 26 q 407 -22 500 -22 q 271 5 338 -22 q 163 92 203 31 q 114 334 114 164 l 114 680 l 20 680 l 20 791 m 552 1072 l 646 1043 q 629 998 636 1015 q 603 954 621 981 q 555 912 585 926 q 486 898 525 898 q 380 939 438 898 q 321 968 338 968 q 267 906 290 968 q 264 901 266 906 q 262 895 263 895 l 168 926 q 187 973 179 956 q 214 1017 195 990 q 259 1056 232 1043 q 321 1069 286 1069 q 431 1025 369 1069 q 491 997 468 997 q 525 1015 513 997 q 552 1072 537 1032 z "},"ũ":{"ha":814,"x_min":30,"x_max":768,"o":"m 30 614 l 254 614 l 254 243 q 365 98 254 98 q 439 115 403 98 q 491 147 475 133 q 544 198 507 161 l 544 503 l 433 503 l 433 614 l 662 614 l 662 111 l 768 111 l 768 0 l 544 0 l 544 42 q 366 -19 458 -19 q 267 1 315 -19 q 191 54 218 20 q 136 243 136 123 l 136 503 l 30 503 l 30 614 m 552 895 l 646 867 q 629 821 636 838 q 603 777 621 804 q 555 736 585 750 q 486 722 525 722 q 380 762 438 722 q 321 792 338 792 q 267 730 290 792 q 264 724 266 730 q 262 719 263 719 l 168 750 q 187 797 179 780 q 214 840 195 814 q 259 880 232 867 q 321 892 286 892 q 431 849 369 892 q 491 821 468 821 q 525 838 513 821 q 552 895 537 856 z "},"Ū":{"ha":814,"x_min":20,"x_max":793,"o":"m 20 791 l 365 791 l 365 680 l 232 680 l 232 334 q 233 263 232 289 q 244 201 235 237 q 271 144 254 164 q 323 110 289 125 q 407 95 358 95 q 490 110 456 95 q 543 144 525 125 q 570 201 560 164 q 581 263 579 237 q 582 334 582 289 l 582 680 l 449 680 l 449 791 l 793 791 l 793 680 l 700 680 l 700 334 q 651 92 700 163 q 553 2 606 26 q 407 -22 500 -22 q 271 5 338 -22 q 163 92 203 31 q 114 334 114 164 l 114 680 l 20 680 l 20 791 m 175 1038 l 639 1038 l 639 922 l 175 922 l 175 1038 z "},"ū":{"ha":814,"x_min":30,"x_max":768,"o":"m 30 614 l 254 614 l 254 243 q 365 98 254 98 q 439 115 403 98 q 491 147 475 133 q 544 198 507 161 l 544 503 l 433 503 l 433 614 l 662 614 l 662 111 l 768 111 l 768 0 l 544 0 l 544 42 q 366 -19 458 -19 q 267 1 315 -19 q 191 54 218 20 q 136 243 136 123 l 136 503 l 30 503 l 30 614 m 175 861 l 639 861 l 639 746 l 175 746 l 175 861 z "},"Ŭ":{"ha":814,"x_min":20,"x_max":793,"o":"m 20 791 l 365 791 l 365 680 l 232 680 l 232 334 q 233 263 232 289 q 244 201 235 237 q 271 144 254 164 q 323 110 289 125 q 407 95 358 95 q 490 110 456 95 q 543 144 525 125 q 570 201 560 164 q 581 263 579 237 q 582 334 582 289 l 582 680 l 449 680 l 449 791 l 793 791 l 793 680 l 700 680 l 700 334 q 651 92 700 163 q 553 2 606 26 q 407 -22 500 -22 q 271 5 338 -22 q 163 92 203 31 q 114 334 114 164 l 114 680 l 20 680 l 20 791 m 165 1074 l 271 1074 q 407 978 301 978 q 543 1074 514 978 l 648 1074 q 644 1058 648 1066 q 599 968 629 1005 q 531 914 568 930 q 464 892 494 898 q 407 886 434 886 q 198 990 269 886 q 165 1074 180 1017 z "},"ŭ":{"ha":814,"x_min":30,"x_max":768,"o":"m 30 614 l 254 614 l 254 243 q 365 98 254 98 q 439 115 403 98 q 491 147 475 133 q 544 198 507 161 l 544 503 l 433 503 l 433 614 l 662 614 l 662 111 l 768 111 l 768 0 l 544 0 l 544 42 q 366 -19 458 -19 q 267 1 315 -19 q 191 54 218 20 q 136 243 136 123 l 136 503 l 30 503 l 30 614 m 165 898 l 271 898 q 407 802 301 802 q 543 898 514 802 l 648 898 q 644 882 648 890 q 599 791 629 829 q 531 738 568 754 q 464 715 494 722 q 407 709 434 709 q 198 814 269 709 q 165 898 180 841 z "},"Ů":{"ha":814,"x_min":20,"x_max":793,"o":"m 20 791 l 365 791 l 365 680 l 232 680 l 232 334 q 233 263 232 289 q 244 201 235 237 q 271 144 254 164 q 323 110 289 125 q 407 95 358 95 q 490 110 456 95 q 543 144 525 125 q 570 201 560 164 q 581 263 579 237 q 582 334 582 289 l 582 680 l 449 680 l 449 791 l 793 791 l 793 680 l 700 680 l 700 334 q 651 92 700 163 q 553 2 606 26 q 407 -22 500 -22 q 271 5 338 -22 q 163 92 203 31 q 114 334 114 164 l 114 680 l 20 680 l 20 791 m 492 1081 q 510 1063 492 1081 q 528 996 528 1046 q 492 911 528 945 q 407 876 457 876 q 322 911 357 876 q 288 996 288 945 q 322 1081 288 1046 q 407 1116 357 1116 q 492 1081 457 1116 m 450 996 q 438 1027 450 1015 q 407 1039 426 1039 q 376 1026 389 1039 q 363 996 363 1013 q 376 965 363 978 q 407 952 389 952 q 437 965 425 952 q 450 996 450 978 z "},"ů":{"ha":814,"x_min":30,"x_max":768,"o":"m 30 614 l 254 614 l 254 243 q 365 98 254 98 q 439 115 403 98 q 491 147 475 133 q 544 198 507 161 l 544 503 l 433 503 l 433 614 l 662 614 l 662 111 l 768 111 l 768 0 l 544 0 l 544 42 q 366 -19 458 -19 q 267 1 315 -19 q 191 54 218 20 q 136 243 136 123 l 136 503 l 30 503 l 30 614 m 492 905 q 510 887 492 905 q 528 819 528 869 q 492 734 528 769 q 407 700 457 700 q 322 734 357 700 q 288 819 288 769 q 322 905 288 869 q 407 940 357 940 q 492 905 457 940 m 450 819 q 438 850 450 838 q 407 863 426 863 q 376 850 389 863 q 363 819 363 837 q 376 789 363 802 q 407 776 389 776 q 437 789 425 776 q 450 819 450 802 z "},"Ű":{"ha":814,"x_min":20,"x_max":793,"o":"m 20 791 l 365 791 l 365 680 l 232 680 l 232 334 q 233 263 232 289 q 244 201 235 237 q 271 144 254 164 q 323 110 289 125 q 407 95 358 95 q 490 110 456 95 q 543 144 525 125 q 570 201 560 164 q 581 263 579 237 q 582 334 582 289 l 582 680 l 449 680 l 449 791 l 793 791 l 793 680 l 700 680 l 700 334 q 651 92 700 163 q 553 2 606 26 q 407 -22 500 -22 q 271 5 338 -22 q 163 92 203 31 q 114 334 114 164 l 114 680 l 20 680 l 20 791 m 475 1067 l 263 892 l 171 892 l 320 1067 l 475 1067 m 694 1067 l 483 892 l 389 892 l 540 1067 l 694 1067 z "},"ű":{"ha":814,"x_min":30,"x_max":768,"o":"m 30 614 l 254 614 l 254 243 q 365 98 254 98 q 439 115 403 98 q 491 147 475 133 q 544 198 507 161 l 544 503 l 433 503 l 433 614 l 662 614 l 662 111 l 768 111 l 768 0 l 544 0 l 544 42 q 366 -19 458 -19 q 267 1 315 -19 q 191 54 218 20 q 136 243 136 123 l 136 503 l 30 503 l 30 614 m 475 891 l 263 716 l 171 716 l 320 891 l 475 891 m 694 891 l 483 716 l 389 716 l 540 891 l 694 891 z "},"Ų":{"ha":814,"x_min":20,"x_max":793,"o":"m 553 -66 l 533 -156 q 408 -195 473 -195 q 321 -167 355 -195 q 286 -98 286 -138 q 335 -15 286 -53 q 244 18 283 -4 q 182 71 205 39 q 144 132 159 103 q 125 202 130 160 q 118 269 119 244 q 117 334 117 293 l 117 680 l 20 680 l 20 791 l 368 791 l 368 680 l 235 680 l 235 334 q 236 263 235 289 q 247 201 237 237 q 274 146 256 165 q 326 113 292 127 q 410 98 361 98 q 475 105 446 98 q 521 121 503 113 q 551 149 538 129 q 570 182 564 170 q 578 226 575 195 q 582 270 582 256 q 582 320 582 283 l 582 680 l 452 680 l 452 791 l 793 791 l 793 680 l 700 680 l 700 320 q 666 106 700 178 q 521 -4 632 35 q 475 -21 490 -15 q 441 -36 460 -27 q 416 -54 423 -45 q 410 -75 410 -64 q 422 -98 410 -90 q 452 -106 435 -106 q 553 -66 484 -106 z "},"ų":{"ha":814,"x_min":30,"x_max":768,"o":"m 768 111 l 768 0 l 735 0 q 649 -31 690 -9 q 608 -75 608 -53 q 621 -98 608 -90 q 650 -106 633 -106 q 751 -66 682 -106 l 731 -156 q 606 -195 671 -195 q 519 -167 553 -195 q 484 -98 484 -138 q 555 -3 484 -35 l 555 0 l 544 0 l 544 42 q 366 -19 458 -19 q 267 1 315 -19 q 191 54 218 20 q 136 243 136 123 l 136 503 l 30 503 l 30 614 l 254 614 l 254 243 q 365 98 254 98 q 544 198 452 98 l 544 503 l 433 503 l 433 614 l 662 614 l 662 111 l 768 111 z "},"Ÿ":{"ha":814,"x_min":28,"x_max":785,"o":"m 28 791 l 339 791 l 339 680 l 260 680 l 411 429 l 559 680 l 477 680 l 477 791 l 785 791 l 785 680 l 690 680 l 467 304 l 467 111 l 621 111 l 621 0 l 193 0 l 193 111 l 350 111 l 350 304 l 123 680 l 28 680 l 28 791 m 241 899 l 241 1055 l 372 1055 l 372 899 l 241 899 m 442 899 l 442 1055 l 572 1055 l 572 899 l 442 899 z "},"Ź":{"ha":814,"x_min":98,"x_max":716,"o":"m 106 791 l 686 791 l 686 701 l 255 111 l 598 111 l 598 326 l 716 326 l 716 0 l 98 0 l 98 95 l 524 680 l 224 680 l 224 486 l 106 486 l 106 791 m 629 1042 l 403 914 l 285 914 l 427 1047 l 629 1047 l 629 1042 z "},"ź":{"ha":814,"x_min":123,"x_max":690,"o":"m 137 614 l 690 614 l 690 524 l 301 111 l 572 111 l 572 236 l 690 236 l 690 0 l 123 0 l 123 98 l 509 503 l 255 503 l 255 385 l 137 385 l 137 614 m 629 865 l 403 738 l 285 738 l 427 871 l 629 871 l 629 865 z "},"Ż":{"ha":814,"x_min":98,"x_max":716,"o":"m 106 791 l 686 791 l 686 701 l 255 111 l 598 111 l 598 326 l 716 326 l 716 0 l 98 0 l 98 95 l 524 680 l 224 680 l 224 486 l 106 486 l 106 791 m 342 899 l 342 1062 l 472 1062 l 472 899 l 342 899 z "},"ż":{"ha":814,"x_min":123,"x_max":690,"o":"m 137 614 l 690 614 l 690 524 l 301 111 l 572 111 l 572 236 l 690 236 l 690 0 l 123 0 l 123 98 l 509 503 l 255 503 l 255 385 l 137 385 l 137 614 m 342 723 l 342 886 l 472 886 l 472 723 l 342 723 z "},"Ž":{"ha":814,"x_min":98,"x_max":716,"o":"m 106 791 l 686 791 l 686 701 l 255 111 l 598 111 l 598 326 l 716 326 l 716 0 l 98 0 l 98 95 l 524 680 l 224 680 l 224 486 l 106 486 l 106 791 m 468 902 l 353 902 l 220 1017 l 289 1061 l 412 996 l 522 1061 l 594 1017 l 468 902 z "},"ž":{"ha":814,"x_min":123,"x_max":690,"o":"m 137 614 l 690 614 l 690 524 l 301 111 l 572 111 l 572 236 l 690 236 l 690 0 l 123 0 l 123 98 l 509 503 l 255 503 l 255 385 l 137 385 l 137 614 m 468 726 l 353 726 l 220 841 l 289 884 l 412 819 l 522 884 l 594 841 l 468 726 z "},"ƒ":{"ha":814,"x_min":23,"x_max":703,"o":"m 703 914 l 682 798 q 582 810 618 810 q 497 798 532 810 q 446 772 463 787 q 420 733 429 758 q 410 694 411 708 q 408 655 408 680 l 408 609 l 639 609 l 639 503 l 408 503 l 408 94 q 118 -129 408 -129 q 23 -123 72 -129 l 37 -9 q 206 -5 153 -15 q 274 28 259 5 q 289 103 289 50 l 289 503 l 148 503 l 148 609 l 289 609 l 289 662 q 350 840 289 777 q 605 924 430 924 q 703 914 651 924 z "},"ǵ":{"ha":814,"x_min":49,"x_max":765,"o":"m 540 614 l 765 614 l 765 503 l 658 503 l 658 61 q 581 -149 658 -92 q 361 -206 505 -206 l 220 -206 l 220 -95 q 465 -80 425 -95 q 502 -59 487 -72 q 524 -34 517 -46 q 535 0 532 -22 q 539 36 538 22 q 540 77 540 50 q 354 11 458 11 q 138 100 227 11 q 49 315 49 190 q 140 532 49 444 q 355 620 232 620 q 540 556 460 620 l 540 614 m 540 313 q 486 450 540 396 q 359 503 433 503 q 230 450 286 503 q 174 316 174 396 q 228 182 174 237 q 358 127 282 127 q 488 183 437 127 q 540 313 540 239 m 629 865 l 403 738 l 285 738 l 427 871 l 629 871 l 629 865 z "},"ˆ":{"ha":814,"x_min":220,"x_max":595,"o":"m 346 884 l 463 884 l 595 769 l 525 726 l 401 791 l 292 726 l 220 769 l 346 884 z "},"ˇ":{"ha":814,"x_min":220,"x_max":594,"o":"m 468 726 l 353 726 l 220 841 l 289 884 l 412 819 l 522 884 l 594 841 l 468 726 z "},"˘":{"ha":814,"x_min":165,"x_max":648,"o":"m 165 898 l 271 898 q 407 802 301 802 q 543 898 514 802 l 648 898 q 644 882 648 890 q 599 791 629 829 q 531 738 568 754 q 464 715 494 722 q 407 709 434 709 q 198 814 269 709 q 165 898 180 841 z "},"˙":{"ha":814,"x_min":342,"x_max":472,"o":"m 342 723 l 342 886 l 472 886 l 472 723 l 342 723 z "},"˚":{"ha":814,"x_min":288,"x_max":528,"o":"m 492 905 q 510 887 492 905 q 528 819 528 869 q 492 734 528 769 q 407 700 457 700 q 322 734 357 700 q 288 819 288 769 q 322 905 288 869 q 407 940 357 940 q 492 905 457 940 m 450 819 q 438 850 450 838 q 407 863 426 863 q 376 850 389 863 q 363 819 363 837 q 376 789 363 802 q 407 776 389 776 q 437 789 425 776 q 450 819 450 802 z "},"˛":{"ha":814,"x_min":275,"x_max":547,"o":"m 543 -66 l 522 -156 q 517 -159 519 -159 q 397 -195 458 -195 q 310 -167 345 -195 q 275 -98 275 -138 q 307 -29 275 -62 q 411 26 339 4 l 547 26 l 547 19 q 519 9 537 15 q 493 0 502 3 q 471 -8 484 -3 q 450 -18 457 -14 q 433 -27 442 -22 q 418 -37 423 -33 q 408 -48 412 -42 q 401 -60 403 -54 q 399 -75 399 -66 q 412 -98 399 -90 q 441 -106 425 -106 q 543 -66 473 -106 z "},"˜":{"ha":814,"x_min":168,"x_max":646,"o":"m 552 895 l 646 867 q 629 821 636 838 q 603 777 621 804 q 555 736 585 750 q 486 722 525 722 q 380 762 438 722 q 321 792 338 792 q 267 730 290 792 q 264 724 266 730 q 262 719 263 719 l 168 750 q 187 797 179 780 q 214 840 195 814 q 259 880 232 867 q 321 892 286 892 q 431 849 369 892 q 491 821 468 821 q 525 838 513 821 q 552 895 537 856 z "},"˝":{"ha":814,"x_min":171,"x_max":694,"o":"m 475 891 l 263 716 l 171 716 l 320 891 l 475 891 m 694 891 l 483 716 l 389 716 l 540 891 l 694 891 z "},"Γ":{"ha":814,"x_min":64,"x_max":742,"o":"m 64 791 l 735 791 l 742 503 l 636 503 l 623 680 l 288 680 l 288 111 l 418 111 l 418 0 l 64 0 l 64 111 l 175 111 l 175 680 l 64 680 l 64 791 z "},"Θ":{"ha":814,"x_min":43,"x_max":770,"o":"m 252 262 l 252 518 l 349 518 l 349 438 l 464 438 l 464 518 l 560 518 l 560 262 l 464 262 l 464 342 l 349 342 l 349 262 l 252 262 m 144 97 q 94 157 144 97 q 43 395 43 217 q 144 692 43 572 q 407 812 245 812 q 670 692 570 812 q 770 395 770 571 q 670 98 770 218 q 407 -23 570 -23 q 144 97 245 -23 m 230 613 q 196 568 230 613 q 163 395 163 524 q 231 176 163 266 q 407 87 298 87 q 583 176 515 87 q 651 395 651 266 q 584 612 651 522 q 407 703 517 703 q 230 613 297 703 z "},"Σ":{"ha":814,"x_min":49,"x_max":723,"o":"m 723 791 l 715 503 l 609 503 l 595 680 l 199 680 l 418 416 l 189 111 l 609 111 l 616 290 l 723 290 l 723 0 l 49 0 l 49 99 l 278 416 l 49 692 l 49 791 l 723 791 z "},"Φ":{"ha":814,"x_min":54,"x_max":760,"o":"m 351 700 l 239 700 l 239 791 l 575 791 l 575 700 l 463 700 l 463 644 q 665 590 602 637 q 760 397 760 519 q 677 218 760 279 q 463 153 594 157 l 463 88 l 575 88 l 575 0 l 239 0 l 239 88 l 351 88 l 351 153 q 134 219 214 159 q 54 397 54 279 q 56 433 54 415 q 74 492 58 452 q 118 561 90 532 q 207 615 146 590 q 351 644 267 640 l 351 700 m 351 258 l 351 538 q 317 537 327 537 q 273 529 307 537 q 220 508 239 521 q 185 467 202 495 q 168 399 168 438 q 184 331 168 359 q 219 289 201 302 q 269 268 237 275 q 314 260 301 260 q 351 258 327 259 m 463 538 l 463 258 q 600 294 555 260 q 646 400 646 328 q 463 538 646 533 z "},"Ω":{"ha":814,"x_min":26,"x_max":788,"o":"m 30 0 l 30 157 l 126 157 l 126 103 l 266 103 l 266 130 q 86 245 146 159 q 26 445 26 332 q 138 709 26 606 q 407 812 251 812 q 676 709 564 812 q 788 446 788 605 q 787 414 788 430 q 779 363 785 399 q 758 298 773 328 q 718 233 742 267 q 650 172 693 199 q 549 130 606 145 l 549 103 l 688 103 l 688 157 l 784 157 l 784 0 l 446 0 l 446 198 q 674 439 674 240 q 648 556 674 503 q 582 640 623 609 q 496 686 541 670 q 407 703 450 703 q 225 633 311 703 q 140 439 140 564 q 369 198 140 237 l 369 0 l 30 0 z "},"α":{"ha":814,"x_min":50,"x_max":810,"o":"m 724 111 l 810 111 l 810 0 l 644 0 l 637 19 q 583 161 620 69 q 551 106 566 129 q 505 50 536 84 q 429 -2 473 16 q 330 -20 384 -20 q 126 80 202 -20 q 50 312 50 180 q 132 547 50 460 q 321 635 214 635 q 419 614 374 635 q 497 555 464 593 q 547 491 530 517 q 583 429 564 465 l 666 646 l 777 621 l 644 297 q 686 205 670 241 l 724 111 m 529 294 q 419 477 483 406 q 328 525 380 525 q 214 462 259 525 q 168 309 168 399 q 218 151 168 213 q 338 90 267 90 q 529 294 437 90 z "},"δ":{"ha":814,"x_min":94,"x_max":720,"o":"m 655 859 l 655 751 l 324 751 l 324 749 l 521 602 q 583 555 562 572 q 635 506 605 537 q 682 447 666 475 q 709 379 697 419 q 720 294 720 339 q 628 72 720 164 q 407 -20 536 -20 q 184 72 275 -20 q 94 293 94 164 q 107 381 94 336 q 149 470 121 426 q 230 548 178 514 q 351 594 282 582 l 241 680 q 205 708 214 701 q 163 746 182 726 l 163 859 l 655 859 m 548 437 q 519 465 548 437 q 406 492 491 492 q 264 436 320 492 q 209 292 209 380 q 265 150 209 210 q 404 90 321 90 q 548 151 491 90 q 605 296 605 212 q 548 437 605 382 z "},"ε":{"ha":814,"x_min":137,"x_max":716,"o":"m 617 646 l 716 639 q 704 502 704 571 q 709 403 704 463 l 617 389 q 614 396 614 395 q 595 446 604 429 q 565 487 586 464 q 507 521 544 510 q 416 532 471 532 q 334 518 366 532 q 292 490 301 505 q 283 464 283 476 q 341 399 283 427 q 500 372 399 372 l 548 373 l 548 264 q 467 267 513 267 q 373 260 414 267 q 311 241 332 252 q 274 216 289 231 q 255 192 259 202 q 251 174 251 182 q 300 113 251 136 q 414 90 349 90 q 625 148 487 90 q 635 152 631 148 l 667 46 l 663 45 q 659 42 659 43 q 397 -20 513 -20 q 208 33 279 -20 q 137 160 137 85 q 178 262 137 216 q 278 327 220 308 q 168 469 168 373 q 237 593 168 545 q 408 642 307 642 q 503 627 458 642 q 566 600 548 612 q 617 564 585 589 l 617 646 z "},"μ":{"ha":814,"x_min":31,"x_max":784,"o":"m 31 620 l 260 620 l 260 282 q 265 200 260 224 q 286 155 270 176 q 401 98 331 98 q 469 113 434 98 q 521 152 505 129 q 553 282 553 195 l 553 517 l 442 517 l 442 620 l 671 620 l 671 103 l 784 103 l 784 0 l 553 0 l 553 30 q 496 0 538 30 q 429 -20 469 -20 q 260 30 331 -20 l 260 -194 l 142 -194 l 142 517 l 31 517 l 31 620 z "},"π":{"ha":814,"x_min":45,"x_max":770,"o":"m 770 614 l 770 503 l 661 503 l 661 111 l 770 111 l 770 0 l 464 0 l 464 111 l 548 111 l 548 503 l 266 503 l 266 111 l 350 111 l 350 0 l 45 0 l 45 111 l 153 111 l 153 503 l 45 503 l 45 614 l 770 614 z "},"σ":{"ha":814,"x_min":72,"x_max":808,"o":"m 808 642 l 808 526 l 620 538 l 617 536 q 728 302 728 458 q 633 77 728 175 q 401 -20 538 -20 q 166 80 260 -20 q 72 312 72 180 q 111 466 72 393 q 214 582 151 538 q 500 642 302 642 l 808 642 m 403 529 q 251 466 312 529 q 190 311 190 403 q 252 157 190 221 q 401 94 313 94 q 549 157 487 94 q 610 311 610 221 q 549 467 610 404 q 403 529 487 529 z "},"τ":{"ha":814,"x_min":121,"x_max":646,"o":"m 445 503 l 445 157 q 446 132 445 141 q 452 111 448 122 q 469 95 457 100 q 498 90 480 90 q 543 100 525 90 q 594 138 562 111 l 612 31 q 467 -12 545 -12 q 361 26 389 -12 q 332 132 332 64 l 332 503 l 266 503 q 121 488 203 503 l 121 591 l 144 598 q 254 614 222 614 l 646 614 l 646 503 l 445 503 z "},"φ":{"ha":814,"x_min":56,"x_max":758,"o":"m 435 -18 l 435 -205 l 317 -205 l 317 -9 q 184 48 240 8 q 103 139 129 88 q 66 231 77 190 q 56 311 56 273 q 61 367 56 338 q 83 446 66 396 q 146 544 100 496 q 262 623 193 591 l 281 631 l 281 500 l 275 496 q 203 415 229 465 q 176 309 176 365 q 214 193 176 251 q 317 110 251 134 l 317 454 q 347 582 317 541 q 472 643 392 643 q 669 551 579 643 q 758 319 758 458 q 753 252 758 286 q 727 170 747 217 q 673 85 707 122 q 578 19 640 49 q 435 -18 517 -11 m 435 461 l 435 98 l 457 99 q 525 121 498 103 q 586 176 552 138 q 625 236 613 208 q 637 313 637 264 q 584 466 637 404 q 479 528 530 528 q 435 461 435 528 z "},"،":{"ha":864,"x_min":316,"x_max":548,"o":"m 548 126 q 548 107 548 126 q 521 60 548 88 q 454 33 494 33 q 357 76 395 33 q 316 199 316 122 q 355 341 316 271 q 449 450 393 411 l 464 461 l 505 416 l 490 403 q 429 323 449 363 q 408 240 408 282 q 412 212 408 225 l 412 209 q 456 221 434 221 q 521 193 494 221 q 548 126 548 164 z "},"؛":{"ha":864,"x_min":316,"x_max":548,"o":"m 529 91 q 529 73 529 91 q 503 28 529 54 q 441 3 477 3 q 378 28 404 3 q 353 91 353 54 q 378 153 353 127 q 441 179 404 179 q 503 153 477 179 q 529 91 529 127 m 548 359 q 548 340 548 359 q 521 294 548 321 q 454 266 494 266 q 357 311 396 266 q 316 434 316 357 q 354 575 316 505 q 450 685 392 646 l 464 693 l 505 650 l 490 636 q 429 557 449 598 q 408 473 408 517 q 412 445 408 458 l 412 444 q 456 456 433 456 q 520 427 492 456 q 548 359 548 397 z "},"؟":{"ha":833,"x_min":152,"x_max":681,"o":"m 681 583 l 560 583 l 560 678 l 533 688 q 423 701 496 701 q 320 668 365 701 q 275 578 275 635 q 289 524 275 548 q 317 487 302 500 q 365 460 332 473 q 414 443 397 448 q 468 429 430 438 q 505 420 476 427 q 511 419 506 420 q 517 418 511 419 l 517 248 l 397 248 l 397 327 q 340 345 362 336 q 278 374 317 353 q 214 418 239 395 q 171 484 190 442 q 152 575 152 525 q 229 750 152 678 q 438 822 305 822 q 642 783 519 822 q 681 768 674 770 l 681 583 m 374 165 q 391 181 374 165 q 460 197 408 197 q 545 165 511 197 q 579 88 579 133 q 545 10 579 42 q 460 -22 510 -22 q 374 10 408 -22 q 339 88 339 42 q 374 165 339 134 z "},"ء":{"ha":864,"x_min":239,"x_max":625,"o":"m 342 134 q 393 109 361 118 q 473 99 426 99 q 563 115 496 99 q 625 133 585 121 l 557 3 q 500 -11 522 -7 q 400 -41 438 -26 q 342 -65 377 -49 q 273 -99 308 -81 q 239 -117 273 -99 l 244 -68 q 285 -9 251 -43 q 316 20 296 3 q 290 37 298 30 q 264 92 264 60 q 324 232 264 155 q 456 312 388 312 q 528 289 491 312 q 556 264 538 281 l 499 170 q 469 178 481 176 q 407 187 434 187 q 378 171 399 187 q 342 134 373 165 z "},"آ":{"ha":864,"x_min":258,"x_max":606,"o":"m 606 1005 q 581 913 604 1000 q 556 825 556 826 q 552 867 556 837 q 545 910 549 898 q 423 854 494 871 q 327 845 381 845 l 308 845 l 301 845 q 286 812 297 838 q 275 787 282 804 q 270 788 273 787 q 264 788 266 788 q 258 787 259 788 l 258 967 q 315 943 281 951 q 382 935 347 935 q 490 955 430 935 q 606 1005 548 979 m 519 3 l 456 -66 q 444 102 456 -15 q 407 378 429 251 q 347 635 380 540 l 429 788 q 492 534 469 724 q 515 203 509 399 q 519 3 519 87 z "},"أ":{"ha":864,"x_min":319,"x_max":545,"o":"m 545 3 l 480 -66 q 469 92 480 -18 q 433 354 454 232 q 373 601 407 506 l 456 754 q 518 510 495 690 q 541 193 534 380 q 545 3 545 84 m 510 817 q 472 798 509 817 q 393 753 419 769 q 327 704 346 724 l 327 727 q 340 769 327 739 q 354 798 345 780 q 332 817 339 804 q 319 860 319 834 q 361 970 319 907 q 453 1038 407 1038 q 483 1024 473 1038 q 492 990 492 1010 q 486 955 492 972 q 472 933 479 937 q 461 943 467 940 q 435 952 450 952 q 385 929 416 952 q 354 887 354 906 q 380 868 354 876 q 430 860 407 860 q 491 882 450 860 q 540 910 515 895 l 510 817 z "},"ؤ":{"ha":864,"x_min":231,"x_max":633,"o":"m 477 530 l 439 511 q 361 467 388 483 q 294 418 313 438 l 294 441 q 308 483 294 453 q 321 513 312 494 q 300 530 307 518 q 286 574 286 548 q 328 684 286 621 q 420 751 374 751 q 450 738 441 751 q 460 704 460 726 q 453 669 460 686 q 439 647 446 651 q 429 656 434 654 q 404 666 418 666 q 353 643 384 666 q 321 601 321 620 q 349 583 321 591 q 399 574 374 574 q 458 597 418 574 q 507 624 483 609 l 477 530 m 578 47 l 423 47 q 349 172 349 47 q 377 328 349 248 q 484 437 418 437 q 591 338 547 437 q 633 142 633 245 l 633 75 q 566 -191 633 -81 q 357 -317 488 -317 q 292 -295 328 -317 q 231 -243 255 -273 q 458 -123 357 -205 q 578 47 567 -37 m 553 199 q 514 256 537 233 q 468 283 490 283 q 425 262 445 283 q 396 213 410 244 q 404 204 397 209 q 422 199 411 199 l 553 199 z "},"إ":{"ha":864,"x_min":320,"x_max":544,"o":"m 514 -334 q 476 -354 513 -334 q 396 -399 423 -382 q 330 -446 350 -427 l 330 -423 q 345 -382 332 -411 q 358 -353 349 -372 q 335 -334 345 -346 q 323 -290 323 -316 q 366 -182 323 -244 q 457 -114 412 -114 q 487 -126 477 -114 q 496 -160 496 -140 q 490 -195 496 -178 q 475 -217 484 -214 q 467 -209 469 -210 q 439 -199 454 -199 q 389 -222 419 -199 q 358 -264 358 -244 q 385 -282 358 -274 q 434 -290 412 -290 q 495 -269 456 -290 q 544 -240 519 -255 l 514 -334 m 492 3 l 429 -66 q 416 102 429 -15 q 380 378 401 251 q 320 635 353 540 l 401 788 q 465 534 442 724 q 488 203 481 399 q 492 3 492 87 z "},"ئ":{"ha":864,"x_min":90,"x_max":774,"o":"m 309 461 l 271 441 q 191 396 220 412 q 125 349 145 368 l 125 372 q 140 412 127 384 q 153 442 144 423 q 130 461 140 449 q 118 505 118 479 q 161 613 118 552 q 252 681 208 681 q 282 669 273 681 q 292 635 292 655 q 285 598 292 617 q 270 578 279 581 q 262 586 264 585 q 236 597 248 597 q 184 574 214 597 q 153 530 153 551 q 180 513 153 521 q 231 505 208 505 q 290 526 251 505 l 339 553 l 309 461 m 503 256 q 595 227 522 245 q 712 144 712 197 l 712 81 q 635 -68 712 -8 q 472 -142 575 -117 q 317 -163 391 -163 q 138 -111 190 -163 q 90 49 90 -64 q 115 194 90 104 q 168 324 140 283 l 186 324 q 167 248 179 302 q 153 148 153 183 q 212 20 153 58 q 346 -8 258 -8 q 522 15 437 -8 q 639 64 586 34 q 541 92 616 75 q 427 153 427 122 q 444 273 427 210 q 490 395 460 330 q 572 518 521 461 q 689 590 636 590 q 751 574 730 590 q 774 513 774 553 q 762 427 774 484 q 732 351 746 362 q 719 400 724 376 q 673 434 705 434 q 600 400 640 434 q 536 326 560 366 q 518 294 522 304 q 503 256 509 274 z "},"ا":{"ha":864,"x_min":346,"x_max":518,"o":"m 518 3 l 454 -66 q 442 102 454 -15 q 406 378 427 251 q 346 635 378 540 l 427 788 q 491 534 468 724 q 514 203 507 399 q 518 3 518 87 z "},"ب":{"ha":864,"x_min":26,"x_max":838,"o":"m 563 -152 l 486 -228 l 401 -145 l 479 -68 l 563 -152 m 210 0 q 80 39 127 0 q 26 176 26 85 q 56 305 26 232 q 136 419 88 384 l 165 419 q 132 361 142 382 q 98 254 98 294 q 125 184 98 209 q 239 153 160 153 l 754 153 q 731 231 754 190 q 692 285 722 244 l 743 434 q 806 311 779 389 q 838 132 838 218 l 838 0 l 210 0 z "},"ة":{"ha":864,"x_min":262,"x_max":604,"o":"m 422 613 l 345 536 l 262 618 l 338 697 l 422 613 m 598 620 l 521 543 l 437 625 l 514 703 l 598 620 m 604 153 q 571 4 604 42 q 450 -34 538 -34 q 347 -9 385 -34 q 302 75 302 19 q 327 178 302 123 q 387 271 349 222 q 446 339 412 305 l 406 380 l 499 475 q 537 396 515 445 q 582 275 564 334 q 604 153 604 201 m 555 160 q 530 204 555 183 q 490 225 505 225 q 415 201 445 225 q 372 152 395 187 q 414 127 391 137 q 471 117 438 117 q 525 130 500 117 q 555 160 549 142 z "},"ت":{"ha":864,"x_min":26,"x_max":838,"o":"m 471 416 l 393 339 l 311 423 l 388 500 l 471 416 m 647 423 l 570 346 l 486 429 l 563 507 l 647 423 m 210 0 q 80 39 127 0 q 26 176 26 85 q 56 305 26 232 q 136 419 88 384 l 165 419 q 132 361 142 382 q 98 254 98 294 q 125 184 98 209 q 239 153 160 153 l 754 153 q 731 231 754 190 q 692 285 722 244 l 743 434 q 806 311 779 389 q 838 132 838 218 l 838 0 l 210 0 z "},"ث":{"ha":864,"x_min":26,"x_max":838,"o":"m 441 416 l 363 339 l 281 423 l 358 500 l 441 416 m 617 423 l 540 346 l 456 429 l 533 507 l 617 423 m 519 536 l 444 458 l 359 543 l 437 620 l 519 536 m 210 0 q 80 39 127 0 q 26 176 26 85 q 56 305 26 232 q 136 419 88 384 l 165 419 q 132 361 142 382 q 98 254 98 294 q 125 184 98 209 q 239 153 160 153 l 754 153 q 731 231 754 190 q 692 285 722 244 l 743 434 q 806 311 779 389 q 838 132 838 218 l 838 0 l 210 0 z "},"ج":{"ha":864,"x_min":119,"x_max":745,"o":"m 499 -152 l 422 -228 l 339 -145 l 416 -68 l 499 -152 m 395 184 q 317 244 353 222 q 236 275 270 275 q 195 261 217 275 q 149 222 172 247 l 142 232 q 170 319 155 275 q 273 423 209 423 q 380 368 317 423 q 488 266 434 316 q 609 210 555 210 l 724 210 l 648 64 l 458 64 q 265 1 353 64 q 178 -136 178 -62 q 287 -275 178 -210 q 534 -339 396 -339 l 745 -339 q 608 -451 665 -411 q 521 -491 552 -491 q 243 -415 353 -491 q 119 -176 119 -330 q 163 -11 119 -99 q 273 126 206 77 q 316 151 288 137 q 395 184 350 167 z "},"ح":{"ha":864,"x_min":119,"x_max":745,"o":"m 395 184 q 317 244 353 222 q 236 275 270 275 q 195 261 217 275 q 149 222 172 247 l 142 232 q 170 319 155 275 q 273 423 209 423 q 380 368 317 423 q 488 266 434 316 q 609 210 555 210 l 724 210 l 648 64 l 458 64 q 265 1 353 64 q 178 -136 178 -62 q 287 -275 178 -210 q 534 -339 396 -339 l 745 -339 q 608 -451 665 -411 q 521 -491 552 -491 q 243 -415 353 -491 q 119 -176 119 -330 q 163 -11 119 -99 q 273 126 206 77 q 316 151 288 137 q 395 184 350 167 z "},"خ":{"ha":864,"x_min":119,"x_max":745,"o":"m 323 620 l 245 543 l 163 625 l 240 703 l 323 620 m 395 184 q 317 244 353 222 q 236 275 270 275 q 195 261 217 275 q 149 222 172 247 l 142 232 q 170 319 155 275 q 273 423 209 423 q 380 368 317 423 q 488 266 434 316 q 609 210 555 210 l 724 210 l 648 64 l 458 64 q 265 1 353 64 q 178 -136 178 -62 q 287 -275 178 -210 q 534 -339 396 -339 l 745 -339 q 608 -451 665 -411 q 521 -491 552 -491 q 243 -415 353 -491 q 119 -176 119 -330 q 163 -11 119 -99 q 273 126 206 77 q 316 151 288 137 q 395 184 350 167 z "},"د":{"ha":864,"x_min":229,"x_max":635,"o":"m 635 104 q 625 34 635 57 q 572 0 612 0 l 289 0 q 241 37 256 0 q 229 125 229 68 q 237 180 229 149 q 254 233 244 210 q 277 193 266 206 q 349 153 309 153 l 532 153 q 551 163 541 153 q 562 186 562 172 q 517 281 562 224 q 399 385 469 339 l 416 564 q 444 543 418 564 q 503 487 475 517 q 568 406 543 445 q 620 266 602 354 q 635 104 635 189 z "},"ذ":{"ha":864,"x_min":229,"x_max":635,"o":"m 449 693 l 372 616 l 288 699 l 366 776 l 449 693 m 635 104 q 625 34 635 57 q 572 0 612 0 l 289 0 q 241 37 256 0 q 229 125 229 68 q 237 180 229 149 q 254 233 244 210 q 277 193 266 206 q 349 153 309 153 l 532 153 q 551 163 541 153 q 562 186 562 172 q 517 281 562 224 q 399 385 469 339 l 416 564 q 444 543 418 564 q 503 487 475 517 q 568 406 543 445 q 620 266 602 354 q 635 104 635 189 z "},"ر":{"ha":864,"x_min":216,"x_max":648,"o":"m 353 -338 q 281 -313 323 -338 q 216 -260 240 -289 q 472 -111 355 -220 q 585 68 585 -8 q 537 171 585 104 q 491 231 522 193 l 543 416 q 571 374 547 416 q 621 259 601 321 q 648 83 648 171 q 614 -95 648 -1 q 514 -262 576 -198 q 353 -338 442 -338 z "},"ز":{"ha":864,"x_min":216,"x_max":648,"o":"m 506 522 l 442 458 l 368 534 l 431 597 l 506 522 m 353 -338 q 281 -313 323 -338 q 216 -260 240 -289 q 472 -111 355 -220 q 585 68 585 -8 q 537 171 585 104 q 491 231 522 193 l 543 416 q 571 374 547 416 q 621 259 601 321 q 648 83 648 171 q 614 -95 648 -1 q 514 -262 576 -198 q 353 -338 442 -338 z "},"س":{"ha":864,"x_min":14,"x_max":850,"o":"m 502 172 q 586 217 552 172 q 636 328 616 255 l 647 328 q 694 217 665 252 q 761 176 727 176 q 792 203 792 176 q 768 250 792 218 q 743 278 760 260 l 789 406 q 804 382 792 406 q 836 304 825 349 q 850 160 850 239 q 827 64 850 99 q 770 28 803 28 l 760 28 q 709 39 736 28 q 637 104 665 58 q 594 53 625 79 q 525 22 557 22 l 468 22 l 468 -7 q 391 -198 468 -100 q 293 -277 346 -255 q 205 -294 254 -292 q 62 -228 119 -297 q 14 -54 14 -171 q 49 94 14 4 q 99 193 79 170 l 117 193 q 94 117 103 156 q 77 18 77 52 q 136 -110 77 -61 q 233 -141 170 -140 q 293 -130 260 -141 q 374 -80 335 -117 q 407 -31 391 -66 q 361 81 407 14 q 315 138 346 103 l 382 305 q 433 220 397 259 q 502 172 475 172 z "},"ش":{"ha":864,"x_min":14,"x_max":850,"o":"m 614 476 l 537 399 l 454 483 l 530 559 l 614 476 m 791 483 l 713 406 l 629 488 l 707 567 l 791 483 m 693 595 l 617 518 l 533 602 l 609 680 l 693 595 m 502 172 q 586 217 552 172 q 636 328 616 255 l 647 328 q 694 217 665 252 q 761 176 727 176 q 792 203 792 176 q 768 250 792 218 q 743 278 760 260 l 789 406 q 804 382 792 406 q 836 304 825 349 q 850 160 850 239 q 827 64 850 99 q 770 28 803 28 l 760 28 q 709 39 736 28 q 637 104 665 58 q 594 53 625 79 q 525 22 557 22 l 468 22 l 468 -7 q 391 -198 468 -100 q 293 -277 346 -255 q 205 -294 254 -292 q 62 -228 119 -297 q 14 -54 14 -171 q 49 94 14 4 q 99 193 79 170 l 117 193 q 94 117 103 156 q 77 18 77 52 q 136 -110 77 -61 q 233 -141 170 -140 q 293 -130 260 -141 q 374 -80 335 -117 q 407 -31 391 -66 q 361 81 407 14 q 315 138 346 103 l 382 305 q 433 220 397 259 q 502 172 475 172 z "},"ص":{"ha":864,"x_min":16,"x_max":848,"o":"m 471 -20 q 393 -210 471 -114 q 296 -289 349 -267 q 208 -307 256 -305 q 65 -241 122 -311 q 16 -68 16 -183 q 52 81 16 -8 q 102 180 81 156 l 119 180 q 96 103 106 142 q 80 4 80 38 q 138 -123 80 -75 q 236 -153 172 -153 q 297 -142 263 -153 q 377 -94 338 -129 q 410 -45 393 -80 q 362 69 410 0 q 317 125 349 91 l 385 292 q 435 206 396 256 q 505 160 471 160 q 549 231 513 159 q 635 363 586 300 q 724 435 686 434 q 773 419 753 438 q 825 349 810 384 q 848 194 848 288 q 840 73 848 122 q 802 0 829 0 l 471 0 l 471 -20 m 804 178 q 770 252 804 216 q 713 288 739 288 q 642 259 680 288 q 545 149 595 224 l 777 149 q 795 156 787 149 q 804 178 804 165 z "},"ض":{"ha":864,"x_min":16,"x_max":848,"o":"m 471 -20 q 393 -210 471 -114 q 296 -289 349 -267 q 208 -307 256 -305 q 65 -241 122 -311 q 16 -68 16 -183 q 52 81 16 -8 q 102 180 81 156 l 119 180 q 96 103 106 142 q 80 4 80 38 q 138 -123 80 -75 q 236 -153 172 -153 q 297 -142 263 -153 q 377 -94 338 -129 q 410 -45 393 -80 q 362 69 410 0 q 317 125 349 91 l 385 292 q 435 206 396 256 q 505 160 471 160 q 549 231 513 159 q 635 363 586 300 q 724 435 686 434 q 773 419 753 438 q 825 349 810 384 q 848 194 848 288 q 840 73 848 122 q 802 0 829 0 l 471 0 l 471 -20 m 804 178 q 770 252 804 216 q 713 288 739 288 q 642 259 680 288 q 545 149 595 224 l 777 149 q 795 156 787 149 q 804 178 804 165 m 608 510 l 530 433 l 446 517 l 524 593 l 608 510 z "},"ط":{"ha":864,"x_min":79,"x_max":785,"o":"m 785 237 q 769 77 785 130 q 681 0 745 0 l 209 0 q 126 52 160 0 q 88 145 103 87 q 79 197 88 145 q 109 175 98 182 q 178 153 148 153 l 239 153 q 290 171 266 153 q 327 210 308 184 q 292 467 316 327 q 241 669 264 625 l 316 854 q 363 675 342 804 q 391 439 380 575 q 400 273 400 327 q 434 317 416 294 q 514 400 476 369 q 613 445 570 445 q 726 388 673 445 q 785 237 785 323 m 727 187 q 663 259 709 228 q 586 288 623 288 q 511 264 553 288 q 373 153 449 231 l 659 153 q 699 162 681 153 q 727 187 716 171 z "},"ظ":{"ha":864,"x_min":79,"x_max":785,"o":"m 610 579 l 533 502 l 450 586 l 528 663 l 610 579 m 785 237 q 769 77 785 130 q 681 0 745 0 l 209 0 q 126 52 160 0 q 88 145 103 87 l 79 197 q 109 175 98 182 q 178 153 148 153 l 239 153 q 290 171 266 153 q 327 210 308 184 q 292 467 316 327 q 241 669 264 625 l 316 854 q 363 675 342 804 q 391 439 380 575 q 400 273 400 327 q 434 317 416 294 q 514 400 476 369 q 613 445 570 445 q 726 388 673 445 q 785 237 785 323 m 727 187 q 663 259 709 228 q 586 288 623 288 q 511 264 553 288 q 373 153 449 231 l 659 153 q 699 162 681 153 q 727 187 716 171 z "},"ع":{"ha":864,"x_min":121,"x_max":743,"o":"m 228 121 q 164 183 184 156 q 127 277 127 228 q 190 430 127 357 q 301 498 245 498 q 396 468 351 498 q 483 372 441 438 l 480 359 q 434 373 480 359 q 365 385 385 385 q 254 355 309 385 q 183 298 210 330 q 262 244 214 270 q 362 214 321 214 q 391 220 378 214 l 604 298 l 559 142 q 518 129 557 142 q 426 95 467 111 q 330 50 368 71 q 232 -30 278 22 q 178 -137 178 -91 q 290 -270 178 -203 q 533 -339 406 -339 l 743 -339 q 608 -449 662 -410 q 519 -490 548 -490 q 340 -452 429 -490 q 186 -339 243 -411 q 121 -157 121 -260 q 153 -7 121 -87 q 228 121 183 66 z "},"غ":{"ha":864,"x_min":121,"x_max":743,"o":"m 328 654 l 251 578 l 167 661 l 244 738 l 328 654 m 228 121 q 164 183 184 156 q 127 277 127 228 q 190 430 127 357 q 301 498 245 498 q 396 468 351 498 q 483 372 441 438 l 480 359 l 434 373 q 365 385 385 385 q 254 355 309 385 q 183 298 210 330 q 262 244 214 270 q 362 214 321 214 q 391 220 378 214 l 604 298 l 559 142 q 518 129 557 142 q 426 95 467 111 q 330 50 368 71 q 232 -30 278 22 q 178 -137 178 -91 q 290 -270 178 -203 q 533 -339 406 -339 l 743 -339 q 608 -449 662 -410 q 519 -490 548 -490 q 340 -452 429 -490 q 186 -339 243 -411 q 121 -157 121 -260 q 153 -7 121 -87 q 228 121 183 66 z "},"ـ":{"ha":864,"x_min":-12,"x_max":875,"o":"m 875 1 l -12 0 l -12 153 l 875 153 l 875 1 z "},"ف":{"ha":864,"x_min":12,"x_max":852,"o":"m 636 591 l 559 513 l 475 597 l 552 674 l 636 591 m 774 236 q 727 313 757 282 q 673 345 697 345 q 650 334 663 345 q 625 305 636 323 q 712 263 644 294 q 774 236 755 244 m 187 0 q 60 38 102 0 q 12 171 12 80 q 49 302 12 220 q 121 415 85 384 l 152 415 q 122 359 132 380 q 92 254 92 293 q 115 184 92 208 q 227 153 148 153 l 684 153 q 631 175 658 164 q 572 231 572 203 q 582 312 572 252 q 617 438 595 391 q 688 502 647 502 q 796 404 745 502 q 852 165 852 300 l 852 54 q 836 13 852 26 q 784 0 821 0 l 187 0 z "},"ق":{"ha":864,"x_min":114,"x_max":750,"o":"m 585 543 l 507 467 l 425 549 l 500 627 l 585 543 m 408 536 l 331 458 l 248 543 l 326 620 l 408 536 m 750 -7 q 671 -155 750 -87 q 500 -250 605 -212 q 343 -282 408 -282 q 163 -213 221 -282 q 114 -49 114 -155 q 151 103 114 9 q 201 205 180 182 l 218 205 q 198 129 210 183 q 184 30 184 64 q 240 -98 184 -61 q 370 -127 285 -127 q 576 -75 475 -127 q 697 19 654 -33 q 671 46 682 41 q 643 52 659 52 l 491 52 q 448 87 465 52 q 433 151 433 118 q 464 309 433 221 q 560 419 505 419 q 598 411 581 419 q 656 361 631 395 q 716 237 690 316 q 742 106 732 189 q 750 -7 750 38 m 617 203 q 583 244 601 228 q 548 262 564 262 q 519 248 533 262 q 492 212 505 233 q 526 203 507 203 l 617 203 z "},"ك":{"ha":864,"x_min":65,"x_max":800,"o":"m 716 153 q 671 430 703 271 q 606 678 635 608 l 694 837 q 745 665 719 802 q 784 394 768 548 q 800 144 800 240 l 800 0 l 201 0 q 110 30 145 0 q 65 152 65 66 q 85 285 65 221 q 144 400 106 349 l 176 400 q 155 351 161 372 q 133 250 133 294 q 159 182 133 209 q 245 153 189 153 l 716 153 m 454 389 q 435 387 446 389 q 419 385 425 385 q 373 401 391 385 q 355 441 355 418 q 359 471 355 458 q 377 511 362 484 q 434 576 397 547 q 510 613 476 613 l 491 530 q 442 517 458 522 q 396 479 396 498 q 411 463 396 468 q 427 461 419 461 q 447 462 433 461 q 469 463 461 463 q 503 458 491 463 q 514 438 514 453 q 495 354 514 391 q 414 300 468 300 l 315 300 q 380 332 368 326 q 454 389 437 363 z "},"ل":{"ha":864,"x_min":149,"x_max":715,"o":"m 655 -37 q 633 174 655 39 q 582 439 610 309 q 532 632 555 552 l 610 802 q 662 601 637 742 q 699 317 684 475 q 715 49 715 159 l 715 -42 q 601 -218 715 -142 q 342 -293 487 -293 q 205 -243 256 -293 q 149 -84 149 -187 q 168 47 149 -26 q 218 165 186 119 l 239 165 q 218 84 225 121 q 210 18 210 47 q 270 -114 210 -76 q 389 -141 313 -141 q 535 -108 450 -141 q 655 -37 620 -75 z "},"م":{"ha":864,"x_min":221,"x_max":643,"o":"m 323 61 q 346 -46 323 61 q 372 -183 362 -125 q 384 -320 384 -267 q 365 -388 384 -346 q 346 -423 359 -400 l 327 -423 q 300 -214 327 -321 q 248 -49 290 -178 q 221 75 221 37 q 251 168 221 119 q 335 245 285 221 q 392 266 361 258 q 438 275 415 270 q 412 296 419 292 q 384 307 396 307 q 313 286 351 307 q 282 266 301 279 l 275 286 q 290 335 282 311 q 332 429 309 393 q 401 479 366 479 q 480 435 434 479 q 560 351 519 393 q 643 298 609 305 l 582 137 q 484 129 548 137 q 389 109 420 121 q 338 83 351 94 q 323 61 324 73 z "},"ن":{"ha":864,"x_min":117,"x_max":747,"o":"m 503 416 l 426 339 l 343 423 l 419 500 l 503 416 m 701 94 q 657 186 685 137 q 612 254 629 235 l 658 406 q 681 362 659 406 q 724 259 708 309 q 747 127 747 186 l 747 68 q 671 -54 747 1 q 506 -129 606 -100 q 351 -153 420 -153 q 170 -94 229 -153 q 117 45 117 -42 q 149 236 117 140 q 195 334 174 307 l 214 334 q 192 255 203 316 q 180 157 180 194 q 241 30 180 68 q 380 0 290 0 q 576 31 481 0 q 701 94 656 57 z "},"ه":{"ha":864,"x_min":282,"x_max":583,"o":"m 583 153 q 551 4 583 42 q 430 -34 518 -34 q 327 -9 365 -34 q 282 75 282 19 q 307 178 282 123 q 366 271 328 222 q 426 339 391 305 l 385 380 l 480 475 q 517 396 496 445 q 562 275 544 334 q 583 153 583 201 m 536 160 q 511 204 536 183 q 469 225 486 225 q 395 201 425 225 q 351 152 374 187 q 393 127 369 137 q 452 117 418 117 q 505 130 480 117 q 536 160 529 142 z "},"و":{"ha":864,"x_min":231,"x_max":633,"o":"m 578 47 l 423 47 q 349 172 349 47 q 377 328 349 248 q 484 437 418 437 q 591 338 547 437 q 633 142 633 245 l 633 75 q 566 -191 633 -81 q 357 -317 488 -317 q 292 -295 328 -317 q 231 -243 255 -273 q 458 -123 357 -205 q 578 47 567 -37 m 553 199 q 514 256 537 233 q 468 283 490 283 q 425 262 445 283 q 396 213 410 244 q 404 204 397 209 q 422 199 411 199 l 553 199 z "},"ى":{"ha":864,"x_min":90,"x_max":774,"o":"m 503 256 q 595 227 522 245 q 712 144 712 197 l 712 81 q 635 -68 712 -8 q 472 -142 575 -117 q 317 -163 391 -163 q 138 -111 190 -163 q 90 49 90 -64 q 115 194 90 104 q 168 324 140 283 l 186 324 q 167 248 179 302 q 153 148 153 183 q 212 20 153 58 q 346 -8 258 -8 q 522 15 437 -8 q 639 64 586 34 q 541 92 616 75 q 427 153 427 122 q 444 273 427 210 q 490 395 460 330 q 572 518 521 461 q 689 590 636 590 q 751 574 730 590 q 774 513 774 553 q 762 427 774 484 q 732 351 746 362 q 719 400 724 376 q 673 434 705 434 q 600 400 640 434 q 536 326 560 366 q 518 294 522 304 q 503 256 509 274 z "},"ي":{"ha":864,"x_min":90,"x_max":774,"o":"m 346 -294 l 269 -372 l 184 -288 l 262 -210 l 346 -294 m 521 -288 l 444 -365 l 359 -281 l 437 -203 l 521 -288 m 503 256 q 595 227 522 245 q 712 144 712 197 l 712 81 q 635 -68 712 -8 q 472 -142 575 -117 q 317 -163 391 -163 q 138 -111 190 -163 q 90 49 90 -64 q 115 194 90 104 q 168 324 140 283 l 186 324 q 167 248 179 302 q 153 148 153 183 q 212 20 153 58 q 346 -8 258 -8 q 522 15 437 -8 q 639 64 586 34 q 541 92 616 75 q 427 153 427 122 q 444 273 427 210 q 490 395 460 330 q 572 518 521 461 q 689 590 636 590 q 751 574 730 590 q 774 513 774 553 q 762 427 774 484 q 732 351 746 362 q 719 400 724 376 q 673 434 705 434 q 600 400 640 434 q 536 326 560 366 q 518 294 522 304 q 503 256 509 274 z "},"ً":{"ha":0,"x_min":-23,"x_max":327,"o":"m 327 1309 q 298 1252 307 1265 q 247 1211 278 1225 l -18 1095 q 12 1153 -1 1135 q 62 1196 31 1181 l 327 1309 m 320 1160 q 290 1104 304 1120 q 239 1062 271 1076 l -23 944 q 5 1002 -8 983 q 57 1046 26 1031 l 320 1160 z "},"ٌ":{"ha":0,"x_min":-46,"x_max":312,"o":"m 312 1036 q 308 1008 312 1019 q 293 997 304 997 q 280 1002 289 997 q 262 1015 271 1006 l 244 1029 l 228 1042 q 169 989 198 1013 q 114 948 140 964 q 66 923 88 932 q 27 914 43 914 q 15 917 19 914 q 11 923 11 920 q 16 937 11 926 q 28 962 22 948 q 41 994 35 977 q 46 1024 46 1010 q 45 1040 46 1031 q 39 1057 43 1050 q 28 1069 35 1065 q 9 1073 20 1073 q -13 1064 -5 1073 q -25 1044 -20 1055 q -31 1023 -30 1032 q -35 1013 -33 1013 q -43 1017 -41 1013 q -46 1029 -46 1021 q -43 1066 -46 1044 q -33 1108 -39 1088 q -13 1143 -26 1128 q 19 1158 0 1158 q 64 1143 49 1158 q 85 1096 79 1128 q 87 1046 88 1077 q 85 991 87 1015 q 141 1023 114 1001 q 190 1067 168 1044 q 170 1082 180 1076 q 151 1097 160 1088 q 136 1118 141 1105 q 130 1149 130 1130 q 138 1196 130 1172 q 161 1238 146 1219 q 197 1270 176 1257 q 241 1282 217 1282 q 268 1274 256 1282 q 288 1257 279 1267 q 300 1233 296 1246 q 304 1207 304 1219 q 301 1184 304 1196 q 294 1160 298 1172 q 283 1135 289 1147 q 274 1112 278 1122 q 302 1080 292 1096 q 312 1036 312 1063 m 233 1142 q 241 1168 240 1154 q 237 1192 241 1181 q 222 1211 232 1203 q 199 1218 213 1218 q 187 1213 193 1218 q 182 1199 182 1207 q 193 1174 182 1187 q 233 1142 205 1161 z "},"ٍ":{"ha":0,"x_min":-24,"x_max":326,"o":"m 326 -351 q 296 -410 305 -395 q 245 -450 277 -435 l -20 -566 q 19 -496 3 -515 q 61 -467 35 -476 l 326 -351 m 319 -502 q 290 -557 302 -540 q 239 -600 270 -586 l -24 -716 q 4 -659 -9 -678 q 56 -616 24 -629 l 319 -502 z "},"َ":{"ha":0,"x_min":12,"x_max":355,"o":"m 355 1169 q 317 1101 334 1120 q 275 1072 300 1082 l 12 956 q 39 1013 28 996 q 92 1057 61 1043 l 355 1169 z "},"ُ":{"ha":0,"x_min":-46,"x_max":263,"o":"m 263 1085 q 261 1069 263 1080 q 255 1047 259 1059 q 252 1019 254 1031 q 248 1006 251 1006 q 214 1020 233 1006 q 176 1051 195 1034 q 86 954 127 986 q 14 922 45 922 q -17 927 0 922 q -46 937 -34 932 q 1 964 -24 948 q 50 999 26 981 q 97 1037 75 1017 q 134 1080 119 1057 q 97 1114 110 1096 q 84 1156 84 1131 q 93 1202 84 1176 q 116 1252 102 1229 q 149 1291 130 1275 q 187 1308 168 1308 q 216 1301 205 1308 q 235 1282 228 1294 q 246 1255 243 1271 q 250 1223 250 1240 q 241 1168 250 1194 q 222 1120 233 1143 q 234 1111 227 1116 q 248 1100 241 1105 l 259 1090 q 263 1085 263 1088 m 193 1181 q 179 1212 193 1199 q 148 1225 165 1225 q 138 1221 142 1225 q 134 1213 134 1217 q 146 1187 134 1204 q 180 1150 157 1169 q 189 1165 184 1158 q 193 1181 193 1172 z "},"ِ":{"ha":0,"x_min":-18,"x_max":327,"o":"m 327 -464 q 288 -532 305 -514 q 245 -563 271 -551 l -18 -677 q 11 -621 -1 -637 q 62 -578 31 -591 l 327 -464 z "},"ّ":{"ha":0,"x_min":-11,"x_max":335,"o":"m 335 1165 q 235 1017 335 1017 q 202 1021 214 1017 q 171 1036 190 1024 q 133 977 164 1004 q 65 951 102 951 q 8 972 27 951 q -11 1044 -11 994 q -6 1091 -11 1063 q 5 1141 -1 1119 l 28 1143 q 41 1065 28 1089 q 76 1042 53 1042 q 130 1080 110 1042 q 157 1196 151 1119 l 175 1202 q 189 1143 182 1172 q 235 1108 201 1108 q 293 1168 283 1108 q 296 1237 296 1187 l 319 1246 q 329 1208 323 1230 q 335 1165 335 1187 z "},"ْ":{"ha":0,"x_min":19,"x_max":270,"o":"m 270 1108 q 132 962 270 962 q 50 988 80 962 q 19 1061 19 1015 q 60 1200 19 1135 q 160 1264 100 1264 q 238 1217 206 1264 q 270 1108 270 1171 m 228 1090 q 201 1152 228 1119 q 130 1190 170 1190 q 81 1165 106 1190 q 57 1109 57 1141 q 152 1044 57 1044 q 207 1057 186 1044 q 228 1090 228 1070 z "},"٠":{"ha":864,"x_min":338,"x_max":526,"o":"m 526 296 q 496 229 511 270 q 469 152 481 189 q 395 199 430 172 q 338 248 366 221 q 360 315 345 275 q 397 395 376 355 q 461 337 429 362 q 526 296 494 312 z "},"١":{"ha":864,"x_min":328,"x_max":536,"o":"m 536 174 q 529 87 536 145 q 514 -11 522 30 l 491 -11 l 491 16 q 483 140 491 87 q 441 301 471 221 q 395 396 420 349 q 328 500 365 450 l 369 689 q 422 614 410 633 q 462 549 446 579 q 490 486 477 519 q 524 333 513 416 q 536 174 536 250 z "},"٢":{"ha":864,"x_min":220,"x_max":644,"o":"m 644 681 q 575 486 644 557 q 431 423 514 423 q 450 308 444 373 q 457 182 457 243 q 445 92 457 156 q 423 -11 433 27 l 392 -11 q 383 159 392 88 q 353 292 374 231 q 296 411 332 354 q 220 506 263 461 l 264 689 q 313 631 305 640 q 373 581 345 597 q 450 559 410 559 q 545 591 494 559 q 617 681 608 629 l 644 681 z "},"٣":{"ha":864,"x_min":195,"x_max":669,"o":"m 669 681 q 646 496 669 563 q 556 418 618 418 q 510 431 532 418 q 483 453 491 448 q 446 416 475 429 q 404 407 425 407 q 418 300 414 363 q 422 167 422 236 q 406 72 422 140 q 380 -11 391 4 l 357 -11 q 347 153 357 81 q 315 290 336 225 q 265 403 294 350 q 195 506 236 456 l 240 689 q 301 597 269 635 q 382 543 346 543 q 446 585 419 543 q 483 681 471 620 l 499 681 q 519 595 506 627 q 560 553 537 553 q 618 592 593 553 q 651 681 644 631 l 669 681 z "},"٤":{"ha":864,"x_min":248,"x_max":616,"o":"m 616 133 q 568 66 586 88 q 487 0 515 0 q 431 5 461 0 q 361 27 401 11 q 294 74 319 46 q 269 122 269 102 q 304 229 269 170 q 368 313 331 274 q 292 351 368 313 q 248 396 248 377 q 311 528 248 450 q 506 689 382 616 l 448 517 q 362 484 388 499 q 338 465 338 473 q 415 418 338 452 q 492 369 492 384 q 481 338 492 361 q 461 304 471 316 q 399 250 456 298 q 359 203 359 216 q 377 178 359 194 q 424 150 397 157 q 500 138 450 142 q 616 133 551 133 z "},"٥":{"ha":864,"x_min":240,"x_max":625,"o":"m 625 321 q 576 102 625 171 q 406 27 525 27 q 271 73 312 27 q 240 180 240 110 q 264 384 240 266 q 323 583 288 502 q 396 675 361 675 q 491 631 438 675 q 583 507 548 581 q 625 321 625 419 m 564 298 q 494 427 564 350 q 380 505 425 505 q 327 423 349 505 q 309 298 309 355 q 319 224 309 244 q 404 180 339 180 q 521 217 473 180 q 564 298 564 254 z "},"٦":{"ha":864,"x_min":214,"x_max":651,"o":"m 651 159 l 624 0 q 495 191 530 61 q 464 495 464 298 q 420 482 452 487 q 368 477 388 477 q 296 487 327 477 q 245 514 264 496 q 225 562 233 525 q 214 689 214 609 l 235 689 q 304 636 251 658 q 393 617 350 617 q 458 624 420 617 q 533 651 506 633 l 552 640 q 539 555 543 590 q 536 484 536 519 q 569 307 536 406 q 651 159 602 208 z "},"٧":{"ha":864,"x_min":186,"x_max":678,"o":"m 678 524 q 612 452 643 502 q 560 343 589 412 q 513 190 536 281 q 477 0 490 99 l 454 0 q 429 120 448 57 q 385 240 410 183 q 340 340 369 281 q 271 445 312 400 q 186 511 231 490 l 217 684 q 312 620 273 661 q 382 518 347 583 q 424 414 404 475 q 457 285 444 354 q 481 387 468 339 q 511 473 495 434 q 587 610 544 556 q 678 689 629 665 l 678 524 z "},"٨":{"ha":864,"x_min":186,"x_max":678,"o":"m 186 155 q 252 227 222 176 q 304 335 275 266 q 352 488 330 397 q 387 678 374 579 l 410 678 q 437 556 416 623 q 479 438 454 495 q 524 338 495 397 q 593 233 552 278 q 678 167 633 189 l 648 -5 q 553 58 593 18 q 481 160 517 95 q 440 264 460 203 q 407 393 420 326 q 383 292 396 339 q 353 205 370 244 q 278 68 320 122 q 186 -11 236 14 l 186 155 z "},"٩":{"ha":864,"x_min":237,"x_max":627,"o":"m 627 159 l 601 0 q 486 142 524 52 q 452 339 452 227 q 415 315 433 327 q 372 300 389 300 q 271 333 304 300 q 237 441 237 366 q 279 604 237 528 q 392 689 327 689 q 468 642 438 689 q 505 537 491 605 q 519 426 513 495 q 552 283 525 357 q 627 159 583 202 m 426 476 q 408 525 426 496 q 359 559 387 559 q 316 533 336 559 q 296 486 296 507 q 319 442 296 461 q 376 423 343 423 q 411 441 396 423 q 426 476 426 458 z "},"٪":{"ha":864,"x_min":138,"x_max":727,"o":"m 726 141 q 696 75 711 115 q 669 -3 681 34 q 594 45 629 18 q 537 94 566 66 q 559 161 544 121 q 597 240 575 201 q 661 182 628 208 q 726 141 693 157 m 328 852 q 298 785 313 826 q 271 708 283 745 q 197 755 232 728 q 140 804 168 777 q 162 871 146 831 q 199 951 178 911 q 263 893 231 918 q 328 852 296 868 m 726 955 l 247 0 l 140 0 l 617 955 l 726 955 z "},"٭":{"ha":864,"x_min":190,"x_max":674,"o":"m 674 807 l 526 697 l 582 522 l 433 629 l 282 522 l 338 697 l 190 807 l 374 807 l 433 983 l 491 807 l 674 807 z "},"ٮ":{"ha":864,"x_min":26,"x_max":838,"o":"m 210 0 q 80 39 127 0 q 26 176 26 85 q 56 305 26 232 q 136 419 88 384 l 165 419 q 132 361 142 382 q 98 254 98 294 q 125 184 98 209 q 239 153 160 153 l 754 153 q 731 231 754 190 q 692 285 722 244 l 743 434 q 806 311 779 389 q 838 132 838 218 l 838 0 l 210 0 z "},"ٹ":{"ha":864,"x_min":26,"x_max":838,"o":"m 583 433 q 576 369 583 391 q 541 338 567 338 l 353 338 q 320 359 334 338 q 305 396 311 373 l 301 416 q 313 408 308 411 q 340 399 328 399 l 365 399 q 385 407 376 399 q 400 422 392 412 q 385 525 396 469 q 366 605 374 587 l 396 680 q 415 608 406 659 q 426 514 420 568 q 429 448 429 469 q 442 465 435 456 q 475 498 460 486 q 514 515 496 515 q 559 494 538 515 q 583 433 583 467 m 559 412 q 534 442 552 429 q 503 453 518 453 q 473 444 490 453 q 418 399 449 430 l 533 399 q 548 403 541 399 q 559 412 555 407 m 210 0 q 80 39 127 0 q 26 176 26 85 q 56 305 26 232 q 136 419 88 384 l 165 419 q 132 361 142 382 q 98 254 98 294 q 125 184 98 209 q 239 153 160 153 l 754 153 q 731 231 754 190 q 692 285 722 244 l 743 434 q 806 311 779 389 q 838 132 838 218 l 838 0 l 210 0 z "},"ټ":{"ha":864,"x_min":26,"x_max":838,"o":"m 521 -62 q 510 -119 521 -92 q 480 -167 499 -146 q 435 -199 461 -187 q 378 -212 410 -212 q 311 -180 335 -212 q 288 -79 288 -148 q 297 -24 288 -50 q 324 22 307 1 q 366 54 342 42 q 420 65 391 65 q 459 53 441 65 q 491 22 477 41 q 513 -20 505 3 q 521 -62 521 -42 m 468 -90 q 458 -65 468 -79 q 435 -39 449 -52 q 406 -20 422 -27 q 376 -12 389 -12 q 336 -31 351 -12 q 321 -71 321 -49 q 328 -91 321 -81 q 346 -107 335 -100 q 372 -117 357 -114 q 400 -121 387 -121 q 421 -118 410 -121 q 444 -111 433 -115 q 461 -100 454 -106 q 468 -90 468 -95 m 471 416 l 393 339 l 311 423 l 388 500 l 471 416 m 647 423 l 570 346 l 486 429 l 563 507 l 647 423 m 210 0 q 80 39 127 0 q 26 176 26 85 q 56 305 26 232 q 136 419 88 384 l 165 419 q 132 361 142 382 q 98 254 98 294 q 125 184 98 209 q 239 153 160 153 l 754 153 q 731 231 754 190 q 692 285 722 244 l 743 434 q 806 311 779 389 q 838 132 838 218 l 838 0 l 210 0 z "},"پ":{"ha":864,"x_min":26,"x_max":838,"o":"m 439 -187 l 517 -110 l 600 -193 l 524 -270 l 439 -187 m 263 -195 l 340 -117 l 425 -199 l 347 -278 l 263 -195 m 361 -307 l 437 -229 l 521 -313 l 446 -391 l 361 -307 m 210 0 q 80 39 127 0 q 26 176 26 85 q 56 305 26 232 q 136 419 88 384 l 165 419 q 132 361 142 382 q 98 254 98 294 q 125 184 98 209 q 239 153 160 153 l 754 153 q 731 231 754 190 q 692 285 722 244 l 743 434 q 806 311 779 389 q 838 132 838 218 l 838 0 l 210 0 z "},"ځ":{"ha":864,"x_min":119,"x_max":745,"o":"m 563 562 l 525 541 q 445 496 473 513 q 378 449 399 468 l 378 472 q 393 513 381 484 q 407 543 397 524 q 384 562 393 549 q 372 605 372 579 q 415 713 372 652 q 506 781 461 781 q 536 769 526 781 q 545 735 545 755 q 538 699 545 718 q 524 678 533 681 q 515 686 518 685 q 490 697 502 697 q 438 674 468 697 q 407 631 407 651 q 434 613 407 621 q 484 605 461 605 q 544 627 505 605 l 593 654 l 563 562 m 395 184 q 317 244 353 222 q 236 275 270 275 q 195 261 217 275 q 149 222 172 247 l 142 232 q 170 319 155 275 q 273 423 209 423 q 380 368 317 423 q 488 266 434 316 q 609 210 555 210 l 724 210 l 648 64 l 458 64 q 265 1 353 64 q 178 -136 178 -62 q 287 -275 178 -210 q 534 -339 396 -339 l 745 -339 q 608 -451 665 -411 q 521 -491 552 -491 q 243 -415 353 -491 q 119 -176 119 -330 q 163 -11 119 -99 q 273 126 206 77 q 316 151 288 137 q 395 184 350 167 z "},"څ":{"ha":864,"x_min":119,"x_max":745,"o":"m 494 496 l 416 419 l 334 503 l 410 579 l 494 496 m 670 503 l 593 426 l 509 509 l 586 587 l 670 503 m 572 616 l 496 538 l 412 623 l 488 700 l 572 616 m 395 184 q 317 244 353 222 q 236 275 270 275 q 195 261 217 275 q 149 222 172 247 l 142 232 q 170 319 155 275 q 273 423 209 423 q 380 368 317 423 q 488 266 434 316 q 609 210 555 210 l 724 210 l 648 64 l 458 64 q 265 1 353 64 q 178 -136 178 -62 q 287 -275 178 -210 q 534 -339 396 -339 l 745 -339 q 608 -451 665 -411 q 521 -491 552 -491 q 243 -415 353 -491 q 119 -176 119 -330 q 163 -11 119 -99 q 273 126 206 77 q 316 151 288 137 q 395 184 350 167 z "},"چ":{"ha":864,"x_min":119,"x_max":745,"o":"m 500 -77 l 578 0 l 661 -84 l 586 -160 l 500 -77 m 324 -85 l 401 -8 l 486 -90 l 410 -170 l 324 -85 m 423 -198 l 498 -119 l 583 -203 l 507 -281 l 423 -198 m 395 184 q 317 244 353 222 q 236 275 270 275 q 195 261 217 275 q 149 222 172 247 l 142 232 q 170 319 155 275 q 273 423 209 423 q 380 368 317 423 q 488 266 434 316 q 609 210 555 210 l 724 210 l 648 64 l 458 64 q 265 1 353 64 q 178 -136 178 -62 q 287 -275 178 -210 q 534 -339 396 -339 l 745 -339 q 608 -451 665 -411 q 521 -491 552 -491 q 243 -415 353 -491 q 119 -176 119 -330 q 163 -11 119 -99 q 273 126 206 77 q 316 151 288 137 q 395 184 350 167 z "},"ڈ":{"ha":864,"x_min":229,"x_max":635,"o":"m 549 694 q 543 631 549 651 q 507 600 533 600 l 319 600 q 286 620 300 600 q 271 658 277 635 q 267 678 271 658 q 279 670 274 673 q 307 661 294 661 l 331 661 q 351 667 342 661 q 366 684 358 673 q 351 785 362 730 q 332 867 340 849 l 362 940 q 381 869 372 921 q 392 774 387 829 q 395 708 395 730 q 408 726 401 718 q 441 760 426 747 q 480 777 463 777 q 525 754 505 777 q 549 694 549 728 m 526 674 q 500 703 518 690 q 469 715 484 715 q 439 705 456 715 q 384 661 415 692 l 499 661 q 514 664 507 661 q 526 674 521 667 m 635 104 q 625 34 635 57 q 572 0 612 0 l 289 0 q 241 37 256 0 q 229 125 229 68 q 237 180 229 149 q 254 233 244 210 q 277 193 266 206 q 349 153 309 153 l 532 153 q 551 163 541 153 q 562 186 562 172 q 517 281 562 224 q 399 385 469 339 l 416 564 q 444 543 418 564 q 503 487 475 517 q 568 406 543 445 q 620 266 602 354 q 635 104 635 189 z "},"ډ":{"ha":864,"x_min":229,"x_max":635,"o":"m 562 -68 q 551 -125 562 -98 q 521 -172 540 -152 q 476 -205 502 -193 q 420 -217 450 -217 q 353 -184 377 -217 q 328 -84 328 -152 q 338 -28 328 -54 q 365 18 347 -3 q 407 49 382 38 q 461 60 431 60 q 500 47 483 60 q 532 16 518 35 q 553 -24 545 -3 q 562 -68 562 -46 m 510 -95 q 500 -71 510 -84 q 477 -45 491 -57 q 448 -24 464 -33 q 418 -16 431 -16 q 378 -35 393 -16 q 363 -76 363 -54 q 370 -96 363 -87 q 388 -113 377 -106 q 414 -122 399 -119 q 442 -125 429 -125 q 463 -122 450 -125 q 486 -115 475 -119 q 503 -106 496 -111 q 510 -95 510 -100 m 635 104 q 625 34 635 57 q 572 0 612 0 l 289 0 q 241 37 256 0 q 229 125 229 68 q 237 180 229 149 q 254 233 244 210 q 277 193 266 206 q 349 153 309 153 l 532 153 q 551 163 541 153 q 562 186 562 172 q 517 281 562 224 q 399 385 469 339 l 416 564 q 444 543 418 564 q 503 487 475 517 q 568 406 543 445 q 620 266 602 354 q 635 104 635 189 z "},"ڑ":{"ha":864,"x_min":216,"x_max":651,"o":"m 651 597 q 644 533 651 555 q 609 502 635 502 l 420 502 q 388 524 401 502 q 373 560 378 537 q 369 581 373 560 q 381 572 376 575 q 408 563 396 563 l 433 563 q 453 571 444 563 q 468 586 460 576 q 453 689 464 633 q 434 769 442 751 l 464 844 q 483 772 473 823 q 494 678 488 732 q 496 612 496 633 q 510 629 503 620 q 543 662 528 650 q 582 680 564 680 q 627 658 606 680 q 651 597 651 631 m 627 576 q 602 606 620 593 q 571 617 586 617 q 541 608 557 617 q 486 563 517 594 l 601 563 q 616 567 609 563 q 627 576 623 571 m 353 -338 q 281 -313 323 -338 q 216 -260 240 -289 q 472 -111 355 -220 q 585 68 585 -8 q 537 171 585 104 q 491 231 522 193 l 543 416 q 571 374 547 416 q 621 259 601 321 q 648 83 648 171 q 614 -95 648 -1 q 514 -262 576 -198 q 353 -338 442 -338 z "},"ړ":{"ha":864,"x_min":216,"x_max":659,"o":"m 659 -298 q 648 -355 659 -328 q 618 -403 637 -382 q 574 -435 600 -423 q 517 -448 548 -448 q 450 -416 473 -448 q 426 -315 426 -384 q 435 -260 426 -286 q 463 -214 445 -235 q 505 -182 480 -194 q 559 -171 529 -171 q 597 -183 579 -171 q 629 -214 616 -195 q 651 -256 643 -233 q 659 -298 659 -278 m 606 -326 q 597 -301 606 -315 q 574 -275 587 -288 q 544 -256 560 -263 q 514 -248 528 -248 q 475 -267 490 -248 q 460 -307 460 -285 q 467 -327 460 -317 q 484 -343 473 -336 q 510 -353 495 -350 q 538 -357 525 -357 q 559 -354 548 -357 q 582 -347 571 -351 q 600 -336 593 -342 q 606 -326 606 -331 m 353 -338 q 281 -313 323 -338 q 216 -260 240 -289 q 472 -111 355 -220 q 585 68 585 -8 q 537 171 585 104 q 491 231 522 193 l 543 416 q 571 374 547 416 q 621 259 601 321 q 648 83 648 171 q 614 -95 648 -1 q 514 -262 576 -198 q 353 -338 442 -338 z "},"ږ":{"ha":864,"x_min":216,"x_max":760,"o":"m 760 -316 l 682 -392 l 598 -309 l 675 -232 l 760 -316 m 429 60 l 350 -16 l 266 68 l 345 144 l 429 60 m 353 -338 q 281 -313 323 -338 q 216 -260 240 -289 q 472 -111 355 -220 q 585 68 585 -8 q 537 171 585 104 q 491 231 522 193 l 543 416 q 571 374 547 416 q 621 259 601 321 q 648 83 648 171 q 614 -95 648 -1 q 514 -262 576 -198 q 353 -338 442 -338 z "},"ژ":{"ha":864,"x_min":216,"x_max":727,"o":"m 519 505 l 442 426 l 359 510 l 437 589 l 519 505 m 727 507 l 650 429 l 566 513 l 643 591 l 727 507 m 616 635 l 540 559 l 456 643 l 533 719 l 616 635 m 353 -338 q 281 -313 323 -338 q 216 -260 240 -289 q 472 -111 355 -220 q 585 68 585 -8 q 537 171 585 104 q 491 231 522 193 l 543 416 q 571 374 547 416 q 621 259 601 321 q 648 83 648 171 q 614 -95 648 -1 q 514 -262 576 -198 q 353 -338 442 -338 z "},"ښ":{"ha":864,"x_min":14,"x_max":850,"o":"m 719 -141 l 642 -217 l 557 -134 l 635 -57 l 719 -141 m 659 483 l 583 407 l 499 491 l 575 567 l 659 483 m 502 172 q 586 217 552 172 q 636 328 616 255 l 647 328 q 694 217 665 252 q 761 176 727 176 q 792 203 792 176 q 768 250 792 218 q 743 278 760 260 l 789 406 q 804 382 792 406 q 836 304 825 349 q 850 160 850 239 q 827 64 850 99 q 770 28 803 28 l 760 28 q 709 39 736 28 q 637 104 665 58 q 594 53 625 79 q 525 22 557 22 l 468 22 l 468 -7 q 391 -198 468 -100 q 293 -277 346 -255 q 205 -294 254 -292 q 62 -228 119 -297 q 14 -54 14 -171 q 49 94 14 4 q 99 193 79 170 l 117 193 q 94 117 103 156 q 77 18 77 52 q 136 -110 77 -61 q 233 -141 170 -140 q 293 -130 260 -141 q 374 -80 335 -117 q 407 -31 391 -66 q 361 81 407 14 q 315 138 346 103 l 382 305 q 433 220 397 259 q 502 172 475 172 z "},"ڤ":{"ha":864,"x_min":12,"x_max":852,"o":"m 642 590 l 564 513 l 481 597 l 557 673 l 642 590 m 818 597 l 741 519 l 656 602 l 734 681 l 818 597 m 720 709 l 644 632 l 560 716 l 636 793 l 720 709 m 774 236 q 727 313 757 282 q 673 345 697 345 q 650 334 663 345 q 625 305 636 323 q 712 263 644 294 q 774 236 755 244 m 187 0 q 60 38 102 0 q 12 171 12 80 q 49 302 12 220 q 121 415 85 384 l 152 415 q 122 359 132 380 q 92 254 92 293 q 115 184 92 208 q 227 153 148 153 l 684 153 q 631 175 658 164 q 572 231 572 203 q 582 312 572 252 q 617 438 595 391 q 688 502 647 502 q 796 404 745 502 q 852 165 852 300 l 852 54 q 836 13 852 26 q 784 0 821 0 l 187 0 z "},"ک":{"ha":864,"x_min":20,"x_max":842,"o":"m 156 0 q 65 30 100 0 q 20 152 20 66 q 41 285 20 221 q 99 400 61 349 l 132 400 q 110 351 117 372 q 88 250 88 286 q 114 182 88 209 q 201 153 141 153 l 666 153 q 602 234 646 193 q 505 304 557 275 q 450 326 475 320 q 401 332 425 332 q 357 326 373 332 q 326 316 343 320 q 284 376 308 321 q 260 457 260 431 q 388 627 298 525 q 598 826 486 738 q 842 975 735 933 l 842 808 q 662 720 760 783 q 510 604 581 669 q 403 490 453 552 q 460 472 450 476 q 524 441 498 457 q 700 282 650 362 q 747 114 747 205 q 735 47 747 75 q 682 0 716 0 l 156 0 z "},"ګ":{"ha":864,"x_min":20,"x_max":842,"o":"m 787 651 q 776 594 787 621 q 746 547 765 567 q 701 514 727 526 q 646 502 675 502 q 578 534 602 502 q 553 635 553 566 q 563 689 553 663 q 590 735 572 715 q 632 767 608 755 q 686 779 656 779 q 726 766 708 779 q 757 735 743 754 q 779 694 770 716 q 787 651 787 671 m 735 624 q 726 648 735 635 q 703 674 716 662 q 673 694 689 686 q 643 701 656 701 q 604 683 618 701 q 589 643 589 665 q 595 623 589 632 q 613 606 602 613 q 639 596 624 600 q 667 593 654 593 q 688 595 675 593 q 711 603 700 598 q 728 613 722 608 q 735 624 735 618 m 156 0 q 65 30 100 0 q 20 152 20 66 q 41 285 20 221 q 99 400 61 349 l 132 400 q 110 351 117 372 q 88 250 88 286 q 114 182 88 209 q 201 153 141 153 l 666 153 q 602 234 646 193 q 505 304 557 275 q 450 326 475 320 q 401 332 425 332 q 357 326 373 332 q 326 316 343 320 q 284 376 308 321 q 260 457 260 431 q 388 627 298 525 q 598 826 486 738 q 842 975 735 933 l 842 808 q 662 720 760 783 q 510 604 581 669 q 403 490 453 552 q 460 472 450 476 q 524 441 498 457 q 700 282 650 362 q 747 114 747 205 q 735 47 747 75 q 682 0 716 0 l 156 0 z "},"گ":{"ha":864,"x_min":20,"x_max":842,"o":"m 802 1090 q 791 1005 799 1054 q 495 798 636 922 q 267 532 354 673 l 244 595 q 489 884 334 749 q 802 1090 644 1019 m 156 0 q 65 30 100 0 q 20 152 20 66 q 41 285 20 221 q 99 400 61 349 l 132 400 q 110 351 117 372 q 88 250 88 286 q 114 182 88 209 q 201 153 141 153 l 666 153 q 602 234 646 193 q 505 304 557 275 q 450 326 475 320 q 401 332 425 332 q 357 326 373 332 q 326 316 343 320 q 284 376 308 321 q 260 457 260 431 q 388 627 298 525 q 598 826 486 738 q 842 975 735 933 l 842 808 q 662 720 760 783 q 510 604 581 669 q 403 490 453 552 q 460 472 450 476 q 524 441 498 457 q 700 282 650 362 q 747 114 747 205 q 735 47 747 75 q 682 0 716 0 l 156 0 z "},"ں":{"ha":864,"x_min":117,"x_max":747,"o":"m 701 94 q 657 186 685 137 q 612 254 629 235 l 658 406 q 681 362 659 406 q 724 259 708 309 q 747 127 747 186 l 747 68 q 671 -54 747 1 q 506 -129 606 -100 q 351 -153 420 -153 q 170 -94 229 -153 q 117 45 117 -42 q 149 236 117 140 q 195 334 174 307 l 214 334 q 192 255 203 316 q 180 157 180 194 q 241 30 180 68 q 380 0 290 0 q 576 31 481 0 q 701 94 656 57 z "},"ڼ":{"ha":864,"x_min":117,"x_max":747,"o":"m 582 -176 q 571 -233 582 -206 q 541 -281 560 -260 q 496 -313 522 -301 q 439 -326 471 -326 q 372 -294 396 -326 q 349 -193 349 -262 q 358 -138 349 -164 q 385 -92 368 -113 q 427 -60 403 -72 q 481 -49 452 -49 q 520 -61 502 -49 q 552 -92 538 -73 q 574 -134 566 -111 q 582 -176 582 -156 m 529 -203 q 519 -179 529 -193 q 496 -153 510 -165 q 467 -134 483 -141 q 437 -126 450 -126 q 397 -144 412 -126 q 382 -184 382 -163 q 389 -205 382 -195 q 407 -221 396 -214 q 433 -231 418 -228 q 461 -235 448 -235 q 482 -232 471 -235 q 505 -224 494 -229 q 522 -214 515 -220 q 529 -203 529 -209 m 503 416 l 426 339 l 343 423 l 419 500 l 503 416 m 701 94 q 657 186 685 137 q 612 254 629 235 l 658 406 q 681 362 659 406 q 724 259 708 309 q 747 127 747 186 l 747 68 q 671 -54 747 1 q 506 -129 606 -100 q 351 -153 420 -153 q 170 -94 229 -153 q 117 45 117 -42 q 149 236 117 140 q 195 334 174 307 l 214 334 q 192 255 203 316 q 180 157 180 194 q 241 30 180 68 q 380 0 290 0 q 576 31 481 0 q 701 94 656 57 z "},"ھ":{"ha":864,"x_min":39,"x_max":792,"o":"m 260 179 q 231 227 240 208 q 222 278 222 245 q 274 408 222 345 q 370 499 309 453 l 317 540 l 411 684 q 472 633 416 684 q 594 518 541 572 q 704 388 666 448 q 760 278 735 339 q 792 133 792 198 l 792 52 q 757 -16 792 12 q 678 -45 722 -45 q 510 3 625 -45 q 385 61 422 38 q 305 26 365 46 q 165 -1 229 -1 l 39 -1 l 92 159 l 126 159 q 200 164 164 159 q 260 179 236 170 m 708 141 q 662 236 694 184 q 583 323 624 294 q 570 245 583 288 q 532 176 556 202 q 597 146 575 155 q 666 130 639 130 q 692 132 681 130 q 708 141 704 134 m 521 334 q 485 379 507 359 q 441 399 463 399 q 374 372 419 399 q 301 315 332 345 q 373 260 324 289 q 416 236 388 250 q 467 269 437 243 q 521 334 500 298 z "},"ۀ":{"ha":864,"x_min":282,"x_max":583,"o":"m 534 732 l 496 712 q 416 667 445 684 q 350 620 370 639 l 350 643 q 365 684 353 655 q 378 713 369 694 q 355 732 365 720 q 343 776 343 750 q 387 884 343 823 q 477 952 433 952 q 507 940 498 952 q 517 906 517 926 q 510 869 517 888 q 495 849 505 852 q 487 857 490 856 q 461 868 473 868 q 410 845 439 868 q 378 802 378 822 q 406 784 378 792 q 456 776 433 776 q 515 798 476 776 l 564 825 l 534 732 m 583 153 q 551 4 583 42 q 430 -34 518 -34 q 327 -9 365 -34 q 282 75 282 19 q 307 178 282 123 q 366 271 328 222 q 426 339 391 305 l 385 380 l 480 475 q 517 396 496 445 q 562 275 544 334 q 583 153 583 201 m 536 160 q 511 204 536 183 q 469 225 486 225 q 395 201 425 225 q 351 152 374 187 q 393 127 369 137 q 452 117 418 117 q 505 130 480 117 q 536 160 529 142 z "},"ۃ":{"ha":864,"x_min":282,"x_max":647,"o":"m 471 708 l 393 631 l 311 715 l 388 792 l 471 708 m 647 715 l 570 637 l 486 720 l 563 799 l 647 715 m 583 153 q 551 4 583 42 q 430 -34 518 -34 q 327 -9 365 -34 q 282 75 282 19 q 307 178 282 123 q 366 271 328 222 q 426 339 391 305 l 385 380 l 480 475 q 517 396 496 445 q 562 275 544 334 q 583 153 583 201 m 536 160 q 511 204 536 183 q 469 225 486 225 q 395 201 425 225 q 351 152 374 187 q 393 127 369 137 q 452 117 418 117 q 505 130 480 117 q 536 160 529 142 z "},"ی":{"ha":864,"x_min":90,"x_max":774,"o":"m 503 256 q 595 227 522 245 q 712 144 712 197 l 712 81 q 635 -68 712 -8 q 472 -142 575 -117 q 317 -163 391 -163 q 138 -111 190 -163 q 90 49 90 -64 q 115 194 90 104 q 168 324 140 283 l 186 324 q 167 248 179 302 q 153 148 153 183 q 212 20 153 58 q 346 -8 258 -8 q 522 15 437 -8 q 639 64 586 34 q 541 92 616 75 q 427 153 427 122 q 444 273 427 210 q 490 395 460 330 q 572 518 521 461 q 689 590 636 590 q 751 574 730 590 q 774 513 774 553 q 762 427 774 484 q 732 351 746 362 q 719 400 724 376 q 673 434 705 434 q 600 400 640 434 q 536 326 560 366 q 518 294 522 304 q 503 256 509 274 z "},"ۍ":{"ha":864,"x_min":27,"x_max":856,"o":"m 239 198 q 235 148 236 178 q 293 20 231 58 q 427 -8 339 -8 q 604 15 526 -8 q 720 64 667 34 q 623 92 707 71 q 509 153 509 122 q 525 273 509 216 q 572 395 541 330 q 654 518 602 461 q 770 590 718 590 q 833 574 814 590 q 856 513 856 553 q 844 427 856 476 q 814 351 827 362 q 800 400 808 376 q 754 434 789 434 q 682 400 722 434 q 617 326 642 366 q 600 294 604 304 q 585 256 590 274 q 677 227 604 245 q 793 144 793 197 l 793 81 q 716 -68 793 -4 q 553 -142 656 -117 q 399 -163 472 -163 q 220 -111 271 -163 q 171 49 171 -64 q 186 145 171 83 q 28 30 126 100 l 27 111 q 199 198 160 152 q 239 198 227 227 z "},"ې":{"ha":864,"x_min":90,"x_max":774,"o":"m 381 -345 l 297 -263 l 374 -184 l 458 -269 l 381 -345 m 387 -528 l 302 -444 l 381 -366 l 464 -450 l 387 -528 m 503 256 q 595 227 522 245 q 712 144 712 197 l 712 81 q 635 -68 712 -8 q 472 -142 575 -117 q 317 -163 391 -163 q 138 -111 190 -163 q 90 49 90 -64 q 115 194 90 104 q 168 324 140 283 l 186 324 q 167 248 179 302 q 153 148 153 183 q 212 20 153 58 q 346 -8 258 -8 q 522 15 437 -8 q 639 64 586 34 q 541 92 616 75 q 427 153 427 122 q 444 273 427 210 q 490 395 460 330 q 572 518 521 461 q 689 590 636 590 q 751 574 730 590 q 774 513 774 553 q 762 427 774 484 q 732 351 746 362 q 719 400 724 376 q 673 434 705 434 q 600 400 640 434 q 536 326 560 366 q 518 294 522 304 q 503 256 509 274 z "},"۔":{"ha":864,"x_min":252,"x_max":639,"o":"m 252 0 l 347 176 l 637 176 l 543 0 l 252 0 z "},"۰":{"ha":864,"x_min":338,"x_max":526,"o":"m 526 296 q 496 229 511 270 q 469 152 481 189 q 395 199 430 172 q 338 248 366 221 q 360 315 345 275 q 397 395 376 355 q 461 337 429 362 q 526 296 494 312 z "},"۱":{"ha":864,"x_min":328,"x_max":536,"o":"m 536 174 q 529 87 536 145 q 514 -11 522 30 l 491 -11 l 491 16 q 483 140 491 87 q 441 301 471 221 q 395 396 420 349 q 328 500 365 450 l 369 689 q 422 614 410 633 q 462 549 446 579 q 490 486 477 519 q 524 333 513 416 q 536 174 536 250 z "},"۲":{"ha":864,"x_min":220,"x_max":644,"o":"m 644 681 q 575 486 644 557 q 431 423 514 423 q 450 308 444 373 q 457 182 457 243 q 445 92 457 156 q 423 -11 433 27 l 392 -11 q 383 159 392 88 q 353 292 374 231 q 296 411 332 354 q 220 506 263 461 l 264 689 q 313 631 305 640 q 373 581 345 597 q 450 559 410 559 q 545 591 494 559 q 617 681 608 629 l 644 681 z "},"۳":{"ha":864,"x_min":195,"x_max":669,"o":"m 669 681 q 646 496 669 563 q 556 418 618 418 q 510 431 532 418 q 483 453 491 448 q 446 416 475 429 q 404 407 425 407 q 418 300 414 363 q 422 167 422 236 q 406 72 422 140 q 380 -11 391 4 l 357 -11 q 347 153 357 81 q 315 290 336 225 q 265 403 294 350 q 195 506 236 456 l 240 689 q 301 597 269 635 q 382 543 346 543 q 446 585 419 543 q 483 681 471 620 l 499 681 q 519 595 506 627 q 560 553 537 553 q 618 592 593 553 q 651 681 644 631 l 669 681 z "},"۴":{"ha":864,"x_min":203,"x_max":665,"o":"m 434 385 q 445 315 434 374 q 434 65 465 203 q 407 -18 418 -3 l 384 -18 q 283 403 384 248 q 217 488 255 448 l 203 502 l 258 720 l 324 639 q 345 616 335 627 q 394 685 358 648 q 490 722 430 722 q 617 669 572 722 q 633 637 633 648 q 587 601 633 601 q 565 606 582 601 q 518 610 548 610 q 463 553 460 612 q 481 521 465 530 q 528 511 495 511 q 576 522 563 511 q 635 547 616 553 q 648 540 644 543 q 663 501 665 530 q 643 450 662 472 q 507 384 594 391 q 434 385 467 380 z "},"۵":{"ha":864,"x_min":240,"x_max":635,"o":"m 331 575 q 404 667 369 667 q 499 623 446 667 q 591 499 556 572 q 633 313 633 411 q 609 94 635 148 q 579 47 595 64 q 513 14 551 15 q 456 57 488 14 q 422 11 446 26 q 391 3 404 1 q 243 254 220 24 q 331 575 258 399 m 572 283 q 503 418 572 339 q 388 496 433 496 q 335 415 357 496 q 316 288 317 350 q 355 168 315 186 q 396 164 382 156 q 420 209 416 172 q 453 252 426 254 q 494 203 486 250 q 543 176 498 179 q 572 283 574 216 z "},"۶":{"ha":864,"x_min":222,"x_max":666,"o":"m 350 298 q 264 352 304 309 q 224 458 224 395 q 297 608 224 522 q 449 693 370 693 q 540 661 492 693 q 593 578 593 624 q 544 555 593 555 q 513 562 540 555 q 385 549 433 583 q 361 513 359 530 q 437 445 365 445 q 513 469 463 445 l 590 506 q 650 515 632 528 q 665 491 665 505 q 662 468 665 475 l 620 347 l 604 342 q 438 245 509 309 q 350 136 399 209 q 270 -8 309 75 l 248 3 q 261 88 245 20 q 289 180 277 156 q 350 298 319 243 z "},"۷":{"ha":864,"x_min":186,"x_max":678,"o":"m 678 524 q 612 452 643 502 q 560 343 589 412 q 513 190 536 281 q 477 0 490 99 l 454 0 q 429 120 448 57 q 385 240 410 183 q 340 340 369 281 q 271 445 312 400 q 186 511 231 490 l 217 684 q 312 620 273 661 q 382 518 347 583 q 424 414 404 475 q 457 285 444 354 q 481 387 468 339 q 511 473 495 434 q 587 610 544 556 q 678 689 629 665 l 678 524 z "},"۸":{"ha":864,"x_min":186,"x_max":678,"o":"m 186 155 q 252 227 222 176 q 304 335 275 266 q 352 488 330 397 q 387 678 374 579 l 410 678 q 437 556 416 623 q 479 438 454 495 q 524 338 495 397 q 593 233 552 278 q 678 167 633 189 l 648 -5 q 553 58 593 18 q 481 160 517 95 q 440 264 460 203 q 407 393 420 326 q 383 292 396 339 q 353 205 370 244 q 278 68 320 122 q 186 -11 236 14 l 186 155 z "},"۹":{"ha":864,"x_min":237,"x_max":627,"o":"m 627 159 l 601 0 q 486 142 524 52 q 452 339 452 227 q 415 315 433 327 q 372 300 389 300 q 271 333 304 300 q 237 441 237 366 q 279 604 237 528 q 392 689 327 689 q 468 642 438 689 q 505 537 491 605 q 519 426 513 495 q 552 283 525 357 q 627 159 583 202 m 426 476 q 408 525 426 496 q 359 559 387 559 q 316 533 336 559 q 296 486 296 507 q 319 442 296 461 q 376 423 343 423 q 411 441 396 423 q 426 476 426 458 z "},"‌":{"ha":0,"x_min":-274,"x_max":274,"o":"m 258 922 q 167 968 212 954 q 72 987 122 983 l 209 852 l 180 822 l 9 990 l -11 990 l -179 823 l -209 854 l -73 987 q -168 969 -123 983 q -258 922 -212 955 l -274 944 q -171 1019 -222 990 q -54 1057 -119 1047 l -206 1208 l -176 1237 l 0 1061 l 179 1240 l 206 1210 l 53 1057 q 169 1019 117 1047 q 274 944 221 990 l 258 922 m 30 863 q 22 842 30 852 q 0 833 14 833 q -22 842 -14 833 q -30 863 -30 852 q -22 885 -30 876 q 0 894 -14 894 q 22 885 14 894 q 30 863 30 876 m 30 724 q 22 703 30 711 q 0 694 14 694 q -22 703 -14 694 q -30 724 -30 711 q -22 745 -30 736 q 0 753 -14 753 q 22 745 14 753 q 30 724 30 736 m 30 586 q 22 564 30 572 q 0 556 14 556 q -22 564 -14 556 q -30 586 -30 572 q -22 606 -30 597 q 0 616 -14 616 q 22 606 14 616 q 30 586 30 597 m 30 445 q 22 426 30 434 q 0 418 14 418 q -22 426 -14 418 q -30 445 -30 434 q -22 467 -30 458 q 0 476 -14 476 q 22 467 14 476 q 30 445 30 458 m 30 307 q 22 286 30 296 q 0 277 14 277 q -22 286 -14 277 q -30 307 -30 296 q -22 329 -30 320 q 0 338 -14 338 q 22 329 14 338 q 30 307 30 320 m 30 168 q 22 146 30 155 q 0 138 14 138 q -22 146 -14 138 q -30 168 -30 155 q -22 189 -30 180 q 0 198 -14 198 q 22 189 14 198 q 30 168 30 180 m 30 30 q 22 9 30 18 q 0 0 14 0 q -22 9 -14 0 q -30 30 -30 18 q -22 50 -30 41 q 0 58 -14 58 q 22 50 14 58 q 30 30 30 41 z "},"‍":{"ha":0,"x_min":-274,"x_max":274,"o":"m 0 1061 q 89 1050 49 1061 q 162 1023 129 1040 q 222 986 195 1006 q 274 944 250 966 q 271 939 274 943 l 266 930 l 258 922 q 203 954 231 940 q 145 975 176 967 q 79 987 114 983 q 0 990 45 990 q -79 987 -45 990 q -145 976 -114 983 q -203 956 -176 968 q -258 922 -231 943 q -266 932 -262 928 q -271 939 -269 935 q -274 944 -274 943 q -222 986 -250 966 q -162 1023 -195 1006 q -89 1050 -129 1040 q 0 1061 -49 1061 m 30 863 q 22 842 30 852 q 0 833 14 833 q -22 842 -14 833 q -30 863 -30 852 q -22 885 -30 876 q 0 894 -14 894 q 22 885 14 894 q 30 863 30 876 m 30 724 q 22 703 30 711 q 0 694 14 694 q -22 703 -14 694 q -30 724 -30 711 q -22 745 -30 736 q 0 753 -14 753 q 22 745 14 753 q 30 724 30 736 m 30 586 q 22 564 30 572 q 0 556 14 556 q -22 564 -14 556 q -30 586 -30 572 q -22 606 -30 597 q 0 616 -14 616 q 22 606 14 616 q 30 586 30 597 m 30 445 q 22 426 30 434 q 0 418 14 418 q -22 426 -14 418 q -30 445 -30 434 q -22 467 -30 458 q 0 476 -14 476 q 22 467 14 476 q 30 445 30 458 m 30 307 q 22 286 30 296 q 0 277 14 277 q -22 286 -14 277 q -30 307 -30 296 q -22 329 -30 320 q 0 338 -14 338 q 22 329 14 338 q 30 307 30 320 m 30 168 q 22 146 30 155 q 0 138 14 138 q -22 146 -14 138 q -30 168 -30 155 q -22 189 -30 180 q 0 198 -14 198 q 22 189 14 198 q 30 168 30 180 m 30 30 q 22 9 30 18 q 0 0 14 0 q -22 9 -14 0 q -30 30 -30 18 q -22 50 -30 41 q 0 58 -14 58 q 22 50 14 58 q 30 30 30 41 z "},"‎":{"ha":0,"x_min":-65,"x_max":92,"o":"m -65 880 l -65 1066 l 92 974 l -65 880 z "},"‏":{"ha":0,"x_min":-92,"x_max":65,"o":"m -92 974 l 65 1066 l 65 880 l -92 974 z "},"–":{"ha":814,"x_min":103,"x_max":711,"o":"m 103 468 l 711 468 l 711 343 l 103 343 l 103 468 z "},"—":{"ha":814,"x_min":-65,"x_max":879,"o":"m -65 468 l 879 468 l 879 343 l -65 343 l -65 468 z "},"‗":{"ha":814,"x_min":-65,"x_max":879,"o":"m 879 -237 l 879 -305 l -65 -305 l -65 -237 l 879 -237 m -65 -102 l 879 -102 l 879 -170 l -65 -170 l -65 -102 z "},"‘":{"ha":814,"x_min":208,"x_max":519,"o":"m 403 419 l 208 419 l 373 791 l 519 791 l 403 419 z "},"’":{"ha":814,"x_min":209,"x_max":522,"o":"m 327 791 l 522 791 l 355 419 l 209 419 l 327 791 z "},"‚":{"ha":814,"x_min":209,"x_max":522,"o":"m 327 228 l 522 228 l 355 -144 l 209 -144 l 327 228 z "},"“":{"ha":814,"x_min":110,"x_max":701,"o":"m 585 419 l 388 419 l 555 791 l 701 791 l 585 419 m 305 419 l 110 419 l 277 791 l 423 791 l 305 419 z "},"”":{"ha":814,"x_min":71,"x_max":661,"o":"m 187 791 l 382 791 l 217 419 l 71 419 l 187 791 m 465 791 l 661 791 l 495 419 l 349 419 l 465 791 z "},"„":{"ha":814,"x_min":71,"x_max":661,"o":"m 187 228 l 382 228 l 217 -144 l 71 -144 l 187 228 m 465 228 l 661 228 l 495 -144 l 349 -144 l 465 228 z "},"†":{"ha":814,"x_min":156,"x_max":658,"o":"m 345 791 l 469 791 l 469 595 l 658 595 l 658 486 l 469 486 l 469 -65 l 345 -65 l 345 486 l 156 486 l 156 595 l 345 595 l 345 791 z "},"‡":{"ha":814,"x_min":156,"x_max":659,"o":"m 343 791 l 468 791 l 468 570 l 659 570 l 659 460 l 468 460 l 468 340 l 659 340 l 659 231 l 468 231 l 468 -65 l 343 -65 l 343 231 l 156 231 l 156 340 l 343 340 l 343 460 l 156 460 l 156 570 l 343 570 l 343 791 z "},"•":{"ha":814,"x_min":255,"x_max":557,"o":"m 513 492 q 491 514 513 492 q 406 536 469 536 q 298 492 342 536 q 255 385 255 448 q 299 277 255 321 q 406 233 343 233 q 513 278 469 233 q 557 385 557 323 q 513 492 557 448 z "},"…":{"ha":814,"x_min":20,"x_max":793,"o":"m 216 178 q 233 162 216 178 q 251 94 251 146 q 216 9 251 41 q 136 -22 180 -22 q 56 10 91 -22 q 20 94 20 42 q 56 177 20 145 q 136 209 91 209 q 216 178 180 209 m 486 178 q 504 162 486 178 q 522 94 522 146 q 486 9 522 41 q 407 -22 450 -22 q 327 10 362 -22 q 292 94 292 42 q 327 177 292 145 q 407 209 362 209 q 486 178 450 209 m 758 178 q 776 162 758 178 q 793 94 793 146 q 758 9 793 41 q 678 -22 723 -22 q 598 9 633 -22 q 563 94 563 41 q 598 178 563 146 q 678 209 633 209 q 758 178 723 209 z "},"‪":{"ha":0,"x_min":-38,"x_max":155,"o":"m 61 -148 l 61 -84 l -38 -84 l -38 659 l 0 659 l 0 -46 l 61 -46 l 61 19 l 155 -65 l 61 -148 z "},"‫":{"ha":0,"x_min":-155,"x_max":38,"o":"m -61 -84 l -61 -148 l -155 -65 l -61 19 l -61 -46 l 0 -46 l 0 659 l 38 659 l 38 -84 l -61 -84 z "},"‬":{"ha":0,"x_min":-84,"x_max":84,"o":"m 19 659 l 19 -46 l 76 -46 l 76 -84 l -76 -84 l -76 -46 l -19 -46 l -19 659 l -84 659 l 0 753 l 84 659 l 19 659 z "},"‭":{"ha":0,"x_min":-134,"x_max":155,"o":"m 61 941 l 61 1004 l -134 1004 l -134 1042 l 61 1042 l 61 1105 l 155 1024 l 61 941 m 30 863 q 22 842 30 852 q 0 833 14 833 q -22 842 -14 833 q -30 863 -30 852 q -22 885 -30 876 q 0 894 -14 894 q 22 885 14 894 q 30 863 30 876 m 30 724 q 22 703 30 711 q 0 694 14 694 q -22 703 -14 694 q -30 724 -30 711 q -22 745 -30 736 q 0 753 -14 753 q 22 745 14 753 q 30 724 30 736 m 30 586 q 22 564 30 572 q 0 556 14 556 q -22 564 -14 556 q -30 586 -30 572 q -22 606 -30 597 q 0 616 -14 616 q 22 606 14 616 q 30 586 30 597 m 30 445 q 22 426 30 434 q 0 418 14 418 q -22 426 -14 418 q -30 445 -30 434 q -22 467 -30 458 q 0 476 -14 476 q 22 467 14 476 q 30 445 30 458 m 30 307 q 22 286 30 296 q 0 277 14 277 q -22 286 -14 277 q -30 307 -30 296 q -22 329 -30 320 q 0 338 -14 338 q 22 329 14 338 q 30 307 30 320 m 30 168 q 22 146 30 155 q 0 138 14 138 q -22 146 -14 138 q -30 168 -30 155 q -22 189 -30 180 q 0 198 -14 198 q 22 189 14 198 q 30 168 30 180 m 30 30 q 22 9 30 18 q 0 0 14 0 q -22 9 -14 0 q -30 30 -30 18 q -22 50 -30 41 q 0 58 -14 58 q 22 50 14 58 q 30 30 30 41 z "}}}
